<svg width="100" height="22" viewBox="0 0 100 22" fill="none" xmlns="http://www.w3.org/2000/svg">
<path fill-rule="evenodd" clip-rule="evenodd" d="M45.6374 21.2071H49.9434L52.8213 4.95004H48.5154L47.4609 10.8378C47.2705 10.1787 46.875 9.66607 46.2745 9.29992C45.674 8.91912 44.9125 8.72872 43.9897 8.72872C43.0378 8.72872 42.137 8.97038 41.2876 9.4537C40.4381 9.92237 39.7131 10.6034 39.1126 11.4968C38.5121 12.3902 38.102 13.4447 37.8824 14.6604C37.7798 15.2316 37.7286 15.8101 37.7286 16.3959C37.7286 17.4211 37.9043 18.3072 38.2558 19.0542C38.622 19.8011 39.1199 20.3723 39.7497 20.7678C40.3941 21.1632 41.1338 21.3609 41.9686 21.3609C42.8327 21.3609 43.6163 21.1779 44.3193 20.8117C45.0223 20.4309 45.5788 19.911 45.9889 19.2519L45.6374 21.2071ZM43.1989 13.1884C43.6968 12.7344 44.2827 12.5074 44.9564 12.5074C45.5129 12.5074 45.9596 12.6758 46.2965 13.0127C46.6334 13.3495 46.8018 13.8182 46.8018 14.4187C46.8018 14.6091 46.7798 14.8142 46.7359 15.0338C46.6041 15.8247 46.2819 16.4472 45.7692 16.9012C45.2713 17.3552 44.7001 17.5823 44.0557 17.5823C43.4845 17.5823 43.0304 17.4211 42.6936 17.0989C42.3567 16.7621 42.1883 16.2861 42.1883 15.6709C42.1883 15.4659 42.2103 15.2535 42.2542 15.0338C42.4007 14.243 42.7155 13.6278 43.1989 13.1884Z" fill="#979796"/>
<path d="M71.0525 16.2188L70.1762 21.2072H65.8483L66.2024 19.1915C67.8275 18.3202 69.4668 17.2985 71.0525 16.2188Z" fill="#979796"/>
<path d="M73.6584 14.3637L72.4562 21.2072H76.7841L78.687 10.3751C77.3655 11.4886 75.8311 12.731 74.1773 13.976C74.0056 14.1052 73.8326 14.2345 73.6584 14.3637Z" fill="#979796"/>
<path d="M79.1313 7.84594L79.64 4.95005H75.3121L74.2379 11.0647C76.0648 9.91077 77.7537 8.78625 79.1313 7.84594Z" fill="#979796"/>
<path d="M71.6813 12.6398L73.0322 4.95005H68.7043L66.8807 15.3301C68.4516 14.5229 70.0848 13.5968 71.6813 12.6398Z" fill="#979796"/>
<path d="M83.37 21.2072L85.5449 8.88251H81.217L79.0421 21.2072H83.37Z" fill="#979796"/>
<path d="M96.1496 8.77267C97.336 8.77267 98.2587 9.11685 98.9177 9.80521C99.5768 10.4936 99.9063 11.4529 99.9063 12.6832C99.9063 13.1079 99.8624 13.5619 99.7745 14.0452L98.5223 21.2072H94.2163L95.3807 14.5945C95.41 14.4627 95.4246 14.2723 95.4246 14.0233C95.4246 13.4814 95.2709 13.064 94.9633 12.771C94.6704 12.4635 94.253 12.3097 93.7111 12.3097C93.0666 12.3097 92.5174 12.5147 92.0634 12.9248C91.624 13.3349 91.3384 13.9134 91.2066 14.6604V14.5725L90.0422 21.2072H85.7363L87.8893 8.88251H92.2172L91.8437 10.9476C92.327 10.2885 92.9348 9.76127 93.6671 9.36583C94.4141 8.97039 95.2416 8.77267 96.1496 8.77267Z" fill="#979796"/>
<path d="M21.8549 9.82717C21.1519 9.12416 20.134 8.77266 18.8012 8.77266C17.9224 8.77266 17.0876 8.99235 16.2967 9.43173C15.5058 9.85647 14.8321 10.4277 14.2756 11.1453C14.0119 10.3837 13.5652 9.79788 12.9355 9.38779C12.3057 8.9777 11.5294 8.77266 10.6067 8.77266C9.75726 8.77266 8.98102 8.95573 8.27801 9.32189C7.58965 9.67339 7.01845 10.1494 6.56443 10.7499L6.89396 8.8825H2.56605L0.413086 21.2071H4.71902L5.88338 14.5725V14.6604C6.00055 13.972 6.27883 13.4447 6.71821 13.0786C7.15759 12.6978 7.69217 12.5074 8.32195 12.5074C8.86385 12.5074 9.28859 12.6539 9.59615 12.9468C9.90372 13.2251 10.0575 13.6205 10.0575 14.1331C10.0575 14.2063 10.0429 14.3601 10.0136 14.5945L8.82724 21.2071H13.1332L14.3195 14.5945C14.4367 13.9354 14.7076 13.4228 15.1324 13.0566C15.5717 12.6905 16.1063 12.5074 16.7361 12.5074C17.2634 12.5074 17.6808 12.6465 17.9883 12.9248C18.2959 13.2031 18.4497 13.5912 18.4497 14.0892C18.4497 14.1917 18.435 14.3601 18.4057 14.5945L17.2414 21.2071H21.5473L22.8215 14.0452C22.8948 13.5326 22.9314 13.1079 22.9314 12.771C22.9314 11.5115 22.5725 10.5302 21.8549 9.82717Z" fill="#979796"/>
<path fill-rule="evenodd" clip-rule="evenodd" d="M31.6395 8.72872C33.2799 8.72872 34.5687 9.16078 35.5061 10.0249C36.4434 10.889 36.9121 12.0607 36.9121 13.5399C36.9121 13.9061 36.8755 14.3308 36.8023 14.8142C36.6385 15.4329 36.0778 15.8247 35.4378 15.8247H28.3661C28.3515 15.9419 28.3442 16.1103 28.3442 16.33C28.3442 17.3845 28.8348 17.9118 29.8161 17.9118C30.2408 17.9118 30.607 17.8093 30.9146 17.6042C31.2368 17.3992 31.4784 17.1282 31.6395 16.7914H36.2091C35.7111 18.1388 34.8543 19.2373 33.6387 20.0867C32.4231 20.9362 31.0171 21.3609 29.4207 21.3609C27.8096 21.3609 26.5354 20.9142 25.598 20.0208C24.6607 19.1274 24.192 17.8971 24.192 16.33C24.192 15.8613 24.236 15.3634 24.3238 14.8361C24.5435 13.5912 24.9976 12.5074 25.6859 11.5847C26.3889 10.662 27.253 9.95899 28.2783 9.47567C29.3035 8.9777 30.4239 8.72872 31.6395 8.72872ZM32.5622 14.0233C32.5915 13.9061 32.6062 13.745 32.6062 13.5399C32.6062 13.0713 32.4597 12.7198 32.1668 12.4854C31.8739 12.2364 31.5004 12.112 31.0464 12.112C30.4752 12.112 29.9845 12.2731 29.5744 12.5953C29.1644 12.9175 28.8714 13.3935 28.6957 14.0233H32.5622Z" fill="#979796"/>
<path d="M78.7183 9.52919C77.2831 10.7525 75.5576 12.1632 73.6796 13.5748L73.9924 11.7943C75.7944 10.6649 77.4772 9.55277 78.8814 8.6004L78.7183 9.52919Z" fill="#979796"/>
<path d="M66.6445 16.0071C68.2099 15.2164 69.8407 14.3029 71.4384 13.3542L71.0683 15.4613C69.4818 16.5589 67.8378 17.6037 66.2064 18.5006L66.6445 16.0071Z" fill="#979796"/>
<path d="M59.9275 8.72869C61.5678 8.72869 62.8567 9.16075 63.794 10.0249C64.7314 10.889 65.2001 12.0607 65.2001 13.5399C65.2001 13.9061 65.1635 14.3308 65.0902 14.8141C64.9264 15.4328 64.3657 15.8247 63.7257 15.8247H56.6541C56.6395 15.9419 56.6321 16.1103 56.6321 16.33C56.6321 17.3845 57.3054 18.1113 58.1293 18.461C63.4376 20.0208 82.8445 5.82878 82.8445 5.82878C82.8445 5.82878 66.9169 21.2071 57.7086 21.3609C56.0976 21.3609 54.8233 20.9142 53.886 20.0208C52.9487 19.1274 52.48 17.8971 52.48 16.33C52.48 15.8613 52.5239 15.3633 52.6118 14.8361C52.8315 13.5912 53.2855 12.5074 53.9739 11.5847C54.6769 10.662 55.541 9.95896 56.5662 9.47564C57.5914 8.97767 58.7119 8.72869 59.9275 8.72869ZM60.8502 14.0232C60.8795 13.9061 60.8941 13.745 60.8941 13.5399C60.8941 13.0712 60.7477 12.7197 60.4547 12.4854C60.1618 12.2364 59.7884 12.1119 59.3343 12.1119C58.7631 12.1119 58.2725 12.273 57.8624 12.5952C57.4523 12.9175 57.1594 13.3935 56.9836 14.0232H60.8502Z" fill="#979796"/>
<path d="M88.7949 0.470625L81.6196 3.10157C81.5367 3.13194 81.4925 3.22216 81.5193 3.30622L81.8309 4.28572C81.8466 4.33512 81.8847 4.37423 81.9336 4.39132L82.9344 4.7408C82.9817 4.75732 83.034 4.75141 83.0764 4.72474L84.8459 3.61249C85.0676 3.47316 85.2985 3.77604 85.1055 3.95296L83.8316 5.12073C83.7976 5.15194 83.7782 5.19601 83.7782 5.24219V6.21324C83.7782 6.30424 83.8519 6.37801 83.9429 6.37801H86.3624C86.4275 6.37801 86.4864 6.33972 86.5129 6.28029L89.0021 0.692367C89.0613 0.559354 88.9316 0.420497 88.7949 0.470625Z" fill="#979796"/>
</svg>
