<svg width="78" height="20" viewBox="0 0 78 20" fill="none" xmlns="http://www.w3.org/2000/svg">
<path d="M64.6184 3.33815C65.2004 2.43062 66.0346 1.68728 67.1211 1.10814C68.2076 0.528989 69.3898 0.239416 70.6676 0.239416C71.9771 0.239416 73.1616 0.520779 74.2212 1.08351C75.2808 1.64623 76.1245 2.50824 76.7524 3.66951C77.3802 4.83079 77.6942 6.32344 77.6942 8.14745V18.3258C77.6942 18.5795 77.6024 18.793 77.419 18.9661C77.2355 19.1393 77.0094 19.2259 76.7405 19.2259H72.3234C72.0546 19.2259 71.8284 19.1393 71.645 18.9661C71.4615 18.793 71.3698 18.5795 71.3698 18.3258V8.39373C71.3698 7.56382 71.2401 6.90333 70.9807 6.41225C70.7214 5.92117 70.3774 5.56741 69.9488 5.35098C69.5202 5.13454 69.0323 5.02633 68.4852 5.02633C68.0107 5.02633 67.5552 5.13454 67.1188 5.35098C66.6823 5.56741 66.3312 5.92117 66.0655 6.41225C65.7998 6.90333 65.6669 7.56382 65.6669 8.39373V18.3258C65.6669 18.5795 65.5752 18.793 65.3918 18.9661C65.2083 19.1393 64.9822 19.2259 64.7133 19.2259H60.2962C60.0274 19.2259 59.8012 19.1393 59.6178 18.9661C59.4343 18.793 59.3426 18.5795 59.3426 18.3258V8.39373C59.3426 7.56382 59.2081 6.90333 58.9393 6.41225C58.6704 5.92117 58.3217 5.56741 57.8931 5.35098C57.4646 5.13454 56.9862 5.02633 56.4579 5.02633C55.9835 5.02633 55.528 5.13828 55.0915 5.36217C54.655 5.58607 54.3 5.93983 54.0264 6.42344C53.7528 6.90706 53.616 7.55935 53.616 8.3803V18.3258C53.616 18.5795 53.5243 18.793 53.3408 18.9661C53.1574 19.1393 52.9312 19.2259 52.6624 19.2259H47.6744C47.4055 19.2259 47.1794 19.1393 46.9959 18.9661C46.8125 18.793 46.7207 18.5795 46.7207 18.3258V16.9555C46.0692 17.8213 45.2175 18.4758 44.1658 18.9191C43.1141 19.3624 41.8608 19.5841 40.4059 19.5841C38.9699 19.5841 37.6889 19.2729 36.5628 18.6504C35.7634 18.2085 35.0867 17.6203 34.5328 16.8857L34.5624 16.8515L34.6176 16.7854C35.3451 15.8988 35.7088 14.8808 35.7088 13.7314C35.7088 12.8836 35.489 12.0731 35.0494 11.2999C34.6097 10.5267 33.8743 9.84682 32.8432 9.26021C31.8121 8.6736 30.4235 8.24298 28.6775 7.96833C27.2574 7.71458 26.2088 7.47874 25.532 7.26082C24.8551 7.04289 24.4123 6.80407 24.2035 6.54435C23.9948 6.28463 23.8904 5.99655 23.8904 5.68011C23.8904 5.2353 24.0794 4.8696 24.4573 4.58301C24.8353 4.29642 25.3643 4.15313 26.0444 4.15313C26.6611 4.15313 27.168 4.24717 27.565 4.43524C27.9619 4.62331 28.3138 4.83602 28.6206 5.07335C28.9274 5.31068 29.239 5.50099 29.5553 5.64428C29.6249 5.69802 29.7071 5.74056 29.802 5.7719C29.8969 5.80325 29.9981 5.81892 30.1056 5.81892H34.0673C34.295 5.81892 34.4974 5.73235 34.6745 5.5592C34.8517 5.38605 34.9276 5.17261 34.9023 4.91886C34.877 4.50689 34.6722 4.03372 34.2879 3.49935C33.9674 3.05379 33.5239 2.62225 32.9571 2.20471L32.957 1.49772C32.957 1.24397 33.0488 1.03052 33.2322 0.857371C33.4157 0.684224 33.6418 0.597651 33.9107 0.597651H38.6836C38.9525 0.597651 39.1786 0.684224 39.3621 0.857371C39.5455 1.03052 39.6372 1.24397 39.6372 1.49772V11.2686C39.6372 13.621 40.7395 14.7972 42.9441 14.7972C43.9974 14.7972 44.8309 14.4889 45.4445 13.8725C46.0581 13.256 46.3649 12.3881 46.3649 11.2686V1.49772C46.3649 1.24397 46.4566 1.03052 46.6401 0.857371C46.8235 0.684224 47.0497 0.597651 47.3185 0.597651H52.3065C52.5754 0.597651 52.8015 0.684224 52.985 0.857371C53.1685 1.03052 53.2602 1.24397 53.2602 1.49772V2.70676C53.7663 2.07686 54.4716 1.51563 55.3762 1.02305C56.2808 0.530482 57.3531 0.269269 58.593 0.239416C61.5219 0.17971 63.5304 1.21262 64.6184 3.33815ZM10.3829 0.239416C12.442 0.239416 14.1998 0.560335 15.6564 1.20217C16.8063 1.70888 17.7551 2.38956 18.5028 3.24421L18.4912 3.25978C17.8428 4.14194 17.5186 5.06066 17.5186 6.01595C17.5186 7.07871 17.7851 7.98699 18.318 8.74077C18.851 9.49456 19.6085 10.1073 20.5906 10.579C21.5727 11.0506 22.7264 11.4208 24.0517 11.6895C25.4402 11.9492 26.4801 12.1933 27.1712 12.4216C27.8623 12.65 28.3249 12.8926 28.5589 13.1493C28.793 13.406 28.91 13.727 28.91 14.1121C28.91 14.6196 28.6657 15.0061 28.177 15.2718C27.6883 15.5375 27.0961 15.6704 26.4002 15.6704C25.7834 15.6704 25.2584 15.5778 24.825 15.3927C24.3917 15.2077 24.0114 14.9897 23.684 14.739C23.3566 14.4882 23.0285 14.2792 22.6995 14.1121C22.6173 14.0315 22.5469 13.9822 22.4884 13.9643C22.4299 13.9464 22.3642 13.9374 22.2915 13.9374H17.9503C17.7257 13.9374 17.5162 14.0218 17.3217 14.1904C17.1272 14.3591 17.0425 14.5748 17.0678 14.8375C17.0932 15.2256 17.279 15.6875 17.6253 16.2234C17.7858 16.4716 17.9869 16.7171 18.2288 16.9599C17.5629 17.6402 16.7449 18.194 15.775 18.6213C14.3184 19.2632 12.5211 19.5841 10.3829 19.5841C8.24473 19.5841 6.44737 19.2632 4.99082 18.6213C3.53427 17.9795 2.42011 17.0526 1.64835 15.8405C0.876581 14.6285 0.441672 13.1911 0.34362 11.5283C0.318316 11.0506 0.305664 10.5081 0.305664 9.90056C0.305664 9.29305 0.318316 8.75794 0.34362 8.29522C0.441672 6.60853 0.89635 5.16514 1.70765 3.96506C2.51896 2.76497 3.65288 1.84401 5.10943 1.20217C6.56598 0.560335 8.3238 0.239416 10.3829 0.239416ZM10.3829 4.60092C9.27586 4.60092 8.45428 4.9308 7.91815 5.59055C7.38203 6.2503 7.08392 7.21156 7.02382 8.47434C6.99985 8.81372 6.98723 9.26161 6.98597 9.81802L6.98587 9.91175C6.98587 10.5118 6.99852 10.9909 7.02382 11.3492C7.08392 12.6328 7.38203 13.5993 7.91815 14.2486C8.45428 14.8979 9.27586 15.2226 10.3829 15.2226C11.5058 15.2226 12.3313 14.8979 12.8595 14.2486C13.3877 13.5993 13.6819 12.6328 13.742 11.3492C13.7673 10.9909 13.7799 10.5118 13.7799 9.91175C13.7799 9.31171 13.7673 8.83257 13.742 8.47434C13.6819 7.21156 13.3877 6.2503 12.8595 5.59055C12.3313 4.9308 11.5058 4.60092 10.3829 4.60092Z" fill="#979796"/>
</svg>
