<svg width="130" height="20" viewBox="0 0 130 20" fill="none" xmlns="http://www.w3.org/2000/svg">
<path d="M106.754 0.236969L106.188 0.745704L99.9512 5.73167L100.65 5.96945L106.752 1.10329L113.586 5.96945L114.282 5.73167L106.754 0.236969Z" fill="#979796"/>
<path d="M60.7232 18.5126C60.5947 18.4856 60.4404 18.4388 60.2624 18.3703C60.0469 18.2893 59.8966 18.1777 59.8076 18.0318C59.7186 17.8877 59.6751 17.695 59.6751 17.4591V12.2673C59.6751 11.2751 59.422 10.4809 58.9157 9.88482C58.4095 9.28875 57.6303 8.98981 56.5822 8.98981C56.1096 8.98981 55.6844 9.04383 55.3067 9.15188C54.929 9.25993 54.6047 9.39499 54.3298 9.55707C54.0925 9.69934 53.8414 9.88302 53.5764 10.1081C53.3114 10.335 53.0879 10.5277 52.9119 10.6898H52.8566V9.28334L52.7003 9.14108L49.0636 9.36258V10.0307C49.2851 10.0433 49.4928 10.0703 49.6846 10.1063C49.8764 10.1441 50.0425 10.2018 50.1829 10.2828C50.3748 10.4035 50.525 10.5601 50.6318 10.7528C50.7386 10.9455 50.792 11.1562 50.792 11.3849V17.5402C50.792 17.7815 50.7426 17.9796 50.6417 18.1308C50.5409 18.2821 50.3886 18.3884 50.181 18.4496C50.0485 18.491 49.8903 18.5162 49.7103 18.5306C49.5284 18.545 49.3543 18.5576 49.1843 18.572V19.2401H54.5414V18.572C54.3496 18.5594 54.1617 18.5342 53.9818 18.5018C53.7998 18.4694 53.6318 18.4172 53.4775 18.3505C53.2699 18.2695 53.1156 18.1542 53.0108 18.0066C52.908 17.8589 52.8546 17.6698 52.8546 17.4393V11.7019C52.9218 11.5938 53.0266 11.4515 53.171 11.2715C53.3153 11.0932 53.5091 10.9257 53.7544 10.7708C54.0055 10.6088 54.2942 10.4719 54.6205 10.3602C54.9468 10.2486 55.3067 10.1928 55.6983 10.1928C56.2243 10.1928 56.6712 10.3855 57.0371 10.769C57.4049 11.1544 57.5868 11.7001 57.5868 12.4078V17.5384C57.5868 17.7815 57.5374 17.9778 57.4365 18.1308C57.3357 18.2821 57.1834 18.3884 56.9758 18.4496C56.8433 18.4892 56.6732 18.5162 56.4715 18.5306C56.2678 18.545 56.0819 18.5576 55.9119 18.572V19.2401H61.2571V18.572C61.0277 18.5594 60.8478 18.5378 60.7192 18.5108M44.7546 14.675C44.5667 15.4512 44.2642 16.1463 43.8509 16.7604C43.4514 17.3673 42.9333 17.8409 42.2985 18.1777C41.6617 18.5144 40.9478 18.6837 40.1588 18.6837C39.3164 18.6837 38.5906 18.5162 37.9855 18.1831C37.3804 17.8499 36.8781 17.3853 36.4766 16.791C36.0633 16.1841 35.7588 15.489 35.567 14.7057C35.3751 13.9223 35.2782 13.0471 35.2782 12.0746C35.2782 11.1976 35.3692 10.3602 35.5492 9.56427C35.7311 8.76831 36.006 8.07318 36.3758 7.47891C36.7673 6.85762 37.2736 6.36239 37.8945 5.99142C38.5155 5.62045 39.2689 5.43496 40.1568 5.43496C40.9478 5.43496 41.6499 5.59524 42.2629 5.91578C42.8759 6.23633 43.3861 6.68294 43.7935 7.25741C44.2009 7.83727 44.5094 8.5396 44.719 9.36258C44.9286 10.1856 45.0354 11.0896 45.0354 12.0746C45.0354 13.0597 44.9425 13.8989 44.7526 14.675M45.5021 6.58029C44.8297 5.93199 44.0308 5.43136 43.1073 5.07299C42.1838 4.71463 41.201 4.53635 40.1588 4.53635C39.1166 4.53635 38.1912 4.71103 37.2696 5.06219C36.3481 5.41335 35.5413 5.91939 34.8471 6.58029C34.1451 7.2484 33.5934 8.03897 33.1939 8.95379C32.7945 9.86861 32.5947 10.9095 32.5947 12.0764C32.5947 13.1425 32.7846 14.142 33.1662 15.0766C33.5459 16.0113 34.07 16.8054 34.7364 17.4591C35.4009 18.1272 36.1978 18.6477 37.1253 19.0223C38.0527 19.3968 39.0632 19.5841 40.1588 19.5841C41.1851 19.5841 42.1541 19.4076 43.0638 19.0583C43.9735 18.7071 44.7704 18.2083 45.4586 17.56C46.1685 16.9063 46.7222 16.1139 47.1217 15.1829C47.5212 14.2518 47.7209 13.2164 47.7209 12.0764C47.7209 10.9365 47.5251 9.90823 47.1336 8.9754C46.742 8.04077 46.1982 7.243 45.5041 6.58209" fill="#979796"/>
<path d="M129.086 15.0949C128.922 14.7677 128.686 14.4796 128.38 14.2286C128.096 13.9926 127.736 13.7751 127.297 13.5818C126.859 13.3866 126.393 13.2156 125.901 13.0706C125.398 12.9181 124.978 12.7806 124.638 12.6579C124.298 12.5352 124.016 12.4051 123.791 12.2657C123.559 12.1188 123.385 11.9422 123.269 11.7322C123.153 11.5221 123.095 11.2619 123.095 10.9496C123.095 10.5425 123.271 10.1949 123.623 9.90859C123.974 9.62046 124.456 9.47733 125.07 9.47733C125.819 9.47733 126.453 9.70969 126.973 10.1744C127.493 10.6391 127.832 11.2433 127.988 11.9831H128.762L128.594 8.67243H127.786L127.527 9.21523C127.243 9.06838 126.875 8.94383 126.423 8.83973C125.969 8.73564 125.526 8.68359 125.092 8.68359C123.961 8.68359 123.061 8.97543 122.389 9.56098C121.714 10.1465 121.378 10.8603 121.378 11.7024C121.378 12.1839 121.482 12.6003 121.692 12.9553C121.902 13.3104 122.171 13.6096 122.501 13.8531C122.807 14.0836 123.175 14.2844 123.605 14.4536C124.036 14.6246 124.426 14.7584 124.778 14.8551C125.218 14.9815 125.618 15.1079 125.979 15.2362C126.337 15.3644 126.641 15.5094 126.887 15.6693C127.125 15.8291 127.307 16.015 127.431 16.2288C127.555 16.4407 127.617 16.6935 127.617 16.9872C127.617 17.5542 127.423 17.991 127.033 18.294C126.643 18.5989 126.091 18.7513 125.372 18.7513C124.864 18.7513 124.406 18.6472 123.998 18.4372C123.591 18.2271 123.239 17.9687 122.949 17.662C122.673 17.3683 122.437 17.0411 122.241 16.6768C122.046 16.3125 121.918 15.9946 121.858 15.7232H121.084L121.196 19.3053H122.036L122.261 18.6268C122.493 18.8089 122.879 19.006 123.421 19.2216C123.963 19.4372 124.556 19.5451 125.2 19.5451C126.419 19.5451 127.411 19.2421 128.18 18.6361C128.946 18.0301 129.33 17.2512 129.33 16.2957C129.33 15.8217 129.248 15.422 129.084 15.0949H129.086ZM113.274 10.3863C113.794 9.77847 114.446 9.47547 115.233 9.47547C115.705 9.47547 116.089 9.57585 116.387 9.77847C116.687 9.97923 116.922 10.2395 117.094 10.5592C117.25 10.8585 117.366 11.2303 117.436 11.6745C117.506 12.1188 117.542 12.5352 117.542 12.9237H112.425C112.469 11.8418 112.751 10.996 113.272 10.3882L113.274 10.3863ZM117.84 17.9706C117.358 18.2606 116.784 18.4056 116.117 18.4056C115.451 18.4056 114.907 18.2885 114.434 18.0542C113.962 17.8219 113.582 17.5021 113.29 17.0969C112.989 16.6787 112.771 16.1935 112.633 15.6414C112.495 15.0893 112.425 14.4759 112.425 13.7992H119.753V13.1096C119.753 12.4906 119.669 11.9162 119.501 11.3864C119.333 10.8566 119.077 10.3975 118.733 10.0071C118.374 9.5963 117.906 9.27285 117.33 9.03492C116.754 8.79884 116.061 8.67987 115.255 8.67987C114.448 8.67987 113.76 8.83044 113.128 9.13344C112.495 9.43644 111.967 9.83424 111.539 10.3287C111.096 10.8436 110.762 11.4236 110.534 12.0686C110.306 12.7137 110.192 13.3698 110.192 14.0372C110.192 14.7826 110.298 15.489 110.512 16.1582C110.724 16.8255 111.048 17.4129 111.483 17.913C111.917 18.413 112.467 18.8108 113.138 19.1045C113.806 19.3963 114.586 19.5432 115.477 19.5432C116.487 19.5432 117.38 19.2997 118.158 18.8108C118.937 18.3238 119.557 17.6694 120.021 16.8478L119.235 16.398C118.787 17.1545 118.32 17.6769 117.838 17.9687L117.84 17.9706ZM108.951 18.3758C108.735 18.2922 108.581 18.1713 108.491 18.0152C108.401 17.859 108.357 17.6583 108.357 17.4148V12.182C108.357 10.9979 108.085 10.1205 107.538 9.54983C106.992 8.97915 106.254 8.69288 105.321 8.69288C104.851 8.69288 104.423 8.74865 104.039 8.86018C103.654 8.97171 103.32 9.11857 103.036 9.29888C102.7 9.50893 102.43 9.70597 102.224 9.89C102.017 10.074 101.781 10.2878 101.513 10.5332C101.289 10.0238 100.919 9.59072 100.403 9.23196C99.8863 8.87319 99.2699 8.69474 98.5515 8.69474C98.0953 8.69474 97.6711 8.75051 97.2768 8.86204C96.8846 8.97357 96.5564 9.11299 96.2963 9.28029C96.0642 9.42714 95.814 9.61861 95.5439 9.85468C95.2737 10.0908 95.0456 10.2971 94.8595 10.47H94.7815V8.99774L94.6234 8.85089L90.9193 9.08139V9.77103C91.1435 9.78591 91.3616 9.81751 91.5697 9.86956C91.7798 9.9216 91.9559 9.98852 92.098 10.0722C92.2921 10.1967 92.4442 10.3491 92.5522 10.5257C92.6603 10.7023 92.7143 10.9031 92.7143 11.1262V17.5207C92.7143 17.7717 92.6643 17.9743 92.5622 18.1304C92.4622 18.2866 92.3061 18.3963 92.096 18.4595C91.9619 18.5004 91.8018 18.5282 91.6197 18.5431C91.4356 18.5561 91.2575 18.5691 91.0854 18.584V19.2737H96.4604V18.584C96.2583 18.5691 96.0762 18.545 95.9101 18.5115C95.746 18.4762 95.5839 18.4241 95.4278 18.3554C95.2177 18.2717 95.0616 18.1509 94.9556 17.9892C94.8515 17.8293 94.7975 17.6304 94.7975 17.3943V11.4924C94.8735 11.3957 94.9856 11.2507 95.1357 11.0592C95.2857 10.8678 95.4698 10.6949 95.686 10.5425C95.9561 10.3547 96.2523 10.206 96.5744 10.0982C96.8966 9.99038 97.2428 9.93648 97.609 9.93648C98.1413 9.93648 98.5856 10.1335 98.9437 10.5257C99.2999 10.9198 99.478 11.4775 99.478 12.2025V17.5189C99.478 17.7698 99.428 17.9724 99.326 18.1304C99.2259 18.2866 99.0698 18.3963 98.8597 18.4595C98.7256 18.5022 98.5776 18.5301 98.4175 18.5431C98.2554 18.5561 98.0893 18.5691 97.9172 18.584V19.2737H103.192V18.584C102.968 18.5691 102.786 18.5468 102.648 18.5171C102.51 18.4855 102.354 18.439 102.184 18.3758C101.965 18.2922 101.813 18.1713 101.723 18.0152C101.633 17.859 101.589 17.6583 101.589 17.4148V11.4719C101.663 11.3529 101.773 11.2061 101.919 11.0276C102.065 10.8492 102.246 10.6856 102.464 10.5313C102.732 10.3436 103.028 10.1967 103.35 10.0926C103.672 9.98852 104.017 9.93648 104.383 9.93648C104.913 9.93648 105.357 10.1335 105.711 10.5257C106.068 10.9198 106.244 11.4775 106.244 12.2025V17.5189C106.244 17.7698 106.194 17.9724 106.092 18.1304C105.992 18.2866 105.836 18.3963 105.625 18.4595C105.491 18.5022 105.335 18.5301 105.161 18.5431C104.985 18.5561 104.811 18.5691 104.639 18.584V19.2737H110.026V18.584C109.816 18.5691 109.628 18.5468 109.46 18.5171C109.291 18.4855 109.121 18.439 108.949 18.3758H108.951ZM87.0492 17.53C86.5029 18.3721 85.7605 18.7941 84.824 18.7941C84.2537 18.7941 83.7774 18.6677 83.3912 18.413C83.005 18.1583 82.6848 17.8089 82.4287 17.3627C82.1745 16.9166 81.9884 16.411 81.8724 15.844C81.7563 15.2752 81.6963 14.658 81.6963 13.9888C81.6963 13.4814 81.7463 12.9553 81.8424 12.4107C81.9404 11.8679 82.1085 11.3845 82.3486 10.9589C82.6028 10.4997 82.935 10.1372 83.3432 9.87141C83.7514 9.60745 84.2437 9.47361 84.822 9.47361C85.4003 9.47361 85.8606 9.60373 86.2488 9.86584C86.639 10.1279 86.9532 10.4737 87.1933 10.905C87.4174 11.3102 87.5855 11.8009 87.6976 12.3828C87.8096 12.9646 87.8657 13.5167 87.8657 14.039C87.8657 15.5224 87.5915 16.6861 87.0452 17.5282L87.0492 17.53ZM84.846 8.68173C83.2131 8.68173 81.8944 9.19292 80.8858 10.2172C79.8793 11.2414 79.375 12.5575 79.375 14.1654C79.375 15.0001 79.5191 15.7548 79.8072 16.4258C80.0954 17.0988 80.4836 17.6676 80.9699 18.1342C81.4641 18.6082 82.0305 18.9688 82.6668 19.2142C83.3032 19.4614 83.9735 19.5841 84.6779 19.5841C85.5244 19.5841 86.2888 19.4484 86.9692 19.177C87.6515 18.9056 88.2499 18.4911 88.7662 17.9334C89.2224 17.4464 89.5746 16.8515 89.8207 16.1526C90.0689 15.4518 90.1909 14.7398 90.1909 14.0167C90.1909 12.4014 89.6867 11.1076 88.6801 10.1354C87.6736 9.16318 86.3949 8.67801 84.844 8.67801L84.846 8.68173ZM78.0663 18.2401C77.8121 18.1156 77.6421 17.9687 77.556 17.8014C77.47 17.6341 77.4259 17.4296 77.4259 17.1861V6.49754C77.4259 6.26703 77.47 6.05512 77.556 5.85994C77.6421 5.66476 77.8121 5.52534 78.0663 5.44169C78.2164 5.39336 78.4425 5.33945 78.7447 5.28554C79.0488 5.22978 79.305 5.19818 79.5131 5.19074V4.44904H72.9035V5.19074C73.1116 5.20561 73.3617 5.24651 73.6499 5.31714C73.936 5.38778 74.1822 5.46585 74.3843 5.55694C74.6244 5.66104 74.7905 5.80603 74.8885 5.99006C74.9866 6.17595 75.0346 6.37857 75.0346 6.60163V11.0927H67.5505V6.49754C67.5505 6.26703 67.5925 6.05512 67.6786 5.85994C67.7646 5.66476 67.9347 5.52534 68.1889 5.44169C68.3389 5.39336 68.5651 5.33945 68.8672 5.28554C69.1694 5.22978 69.4255 5.19818 69.6357 5.19074V4.44904H63.026V5.19074C63.2361 5.20561 63.4843 5.24651 63.7724 5.31714C64.0606 5.38778 64.3047 5.46585 64.5068 5.55694C64.747 5.66104 64.9151 5.80603 65.0111 5.99006C65.1072 6.17595 65.1572 6.37857 65.1572 6.60163V17.2977C65.1572 17.5691 65.1052 17.7903 64.9991 17.9613C64.8951 18.1323 64.731 18.2587 64.5048 18.3424C64.3768 18.3981 64.1446 18.439 63.8025 18.4688C63.4623 18.4966 63.2021 18.5171 63.022 18.532V19.2737H69.6317V18.532C69.4455 18.5245 69.1894 18.4892 68.8632 18.4279C68.5371 18.3647 68.3109 18.3033 68.1849 18.2401C67.9307 18.1156 67.7606 17.9687 67.6746 17.8014C67.5885 17.6341 67.5465 17.4296 67.5465 17.1861V12.0259H75.0306V17.3014C75.0306 17.5728 74.9786 17.794 74.8725 17.965C74.7665 18.136 74.6024 18.2624 74.3783 18.3461C74.2502 18.4018 74.0161 18.4427 73.6759 18.4725C73.3357 18.5004 73.0755 18.5208 72.8974 18.5357V19.2774H79.5071V18.5357C79.321 18.5282 79.0648 18.4929 78.7387 18.4316C78.4145 18.3684 78.1863 18.307 78.0603 18.2438L78.0663 18.2401ZM28.5271 17.2791C28.2589 17.5709 27.9288 17.8386 27.5365 18.084C27.1443 18.3275 26.6501 18.4502 26.0517 18.4502C25.4914 18.4502 25.0072 18.3312 24.6009 18.0951C24.1947 17.859 23.8605 17.5449 23.5984 17.1545C23.3142 16.7437 23.1121 16.2994 22.994 15.8236C22.874 15.3477 22.8139 14.8161 22.8139 14.2305C22.8139 13.5 22.894 12.8326 23.0541 12.2303C23.2142 11.6281 23.4343 11.1317 23.7104 10.7414C24.0026 10.338 24.3348 10.0276 24.713 9.81193C25.0892 9.5963 25.5034 9.48848 25.9517 9.48848C26.3399 9.48848 26.6781 9.54611 26.9702 9.6595C27.2624 9.77475 27.5145 9.91975 27.7326 10.0926C27.9328 10.2674 28.1028 10.4588 28.2369 10.667C28.371 10.8771 28.4691 11.0723 28.5291 11.2526V17.2809L28.5271 17.2791ZM31.2326 18.1974C31.0385 18.0784 30.8904 17.9353 30.7903 17.7642C30.6883 17.5932 30.6382 17.3869 30.6382 17.1434V3.25936L30.4701 3.10321L25.9357 3.33371V3.9806C26.3479 4.00849 26.7301 4.0531 27.0863 4.11259C27.4425 4.17207 27.7226 4.26873 27.9328 4.40071C28.1189 4.52712 28.2649 4.70929 28.371 4.95094C28.4751 5.19074 28.5271 5.45842 28.5271 5.75212V9.34163C28.1689 9.15388 27.7406 8.99774 27.2444 8.87691C26.7481 8.75422 26.2418 8.69288 25.7255 8.69288C25.0392 8.69288 24.3648 8.8323 23.7024 9.11113C23.0421 9.38996 22.4838 9.76174 22.0275 10.2283C21.5412 10.7302 21.161 11.3139 20.8849 11.9831C20.6087 12.6523 20.4707 13.3587 20.4707 14.1041C20.4707 14.9183 20.5987 15.6637 20.8569 16.3385C21.115 17.0133 21.4632 17.5914 21.9034 18.0728C22.3357 18.5468 22.846 18.913 23.4323 19.1751C24.0186 19.4372 24.6269 19.5674 25.2533 19.5674C25.8796 19.5674 26.4459 19.4372 27.0183 19.1807C27.5886 18.9242 28.0708 18.5933 28.459 18.1881L28.5491 18.2085V19.1696L28.7172 19.3164L32.5873 19.0859V18.3963C32.3632 18.3888 32.1151 18.3758 31.8469 18.3535C31.5788 18.3331 31.3726 18.281 31.2306 18.1974H31.2326ZM18.7877 18.3535C18.5716 18.2773 18.4135 18.1583 18.3135 17.9985C18.2134 17.8386 18.1634 17.636 18.1634 17.3925V8.99402L18.0073 8.84717L14.1012 9.07767V9.76732C14.3253 9.78219 14.5734 9.81751 14.8416 9.87699C15.1117 9.93648 15.3158 10.0071 15.4599 10.0908C15.654 10.2153 15.8061 10.3696 15.9142 10.5536C16.0222 10.7377 16.0762 10.9421 16.0762 11.1652V17.5189C16.0762 17.7698 16.0262 17.9724 15.9242 18.1286C15.8241 18.2847 15.668 18.3944 15.4599 18.4576C15.3238 18.4985 15.1657 18.5264 14.9836 18.5413C14.7995 18.5543 14.6214 18.5673 14.4494 18.5822V19.2718H19.7903V18.5822C19.5982 18.5673 19.4221 18.5431 19.266 18.5041C19.1099 18.4669 18.9498 18.4167 18.7857 18.3535H18.7877ZM16.9287 6.26889C17.3409 6.26889 17.6871 6.12018 17.9673 5.82462C18.2474 5.52906 18.3875 5.18145 18.3875 4.7855C18.3875 4.43046 18.2514 4.11816 17.9773 3.85048C17.7051 3.5828 17.3549 3.44896 16.9287 3.44896C16.5465 3.44896 16.2163 3.5921 15.9362 3.87651C15.656 4.16278 15.5159 4.49738 15.5159 4.87845C15.5159 5.24093 15.656 5.56252 15.9362 5.84507C16.2183 6.12762 16.5485 6.26889 16.9287 6.26889ZM9.6287 17.5393C9.03638 18.1453 8.18391 18.4483 7.0693 18.4483C6.38893 18.4483 5.85863 18.3368 5.47642 18.1137C5.09421 17.8906 4.90411 17.5598 4.90411 17.1211V11.8976C5.0682 11.8902 5.31434 11.8827 5.64452 11.8716C5.9747 11.8604 6.37692 11.8567 6.85718 11.8567C8.03183 11.8567 8.93432 12.1374 9.56667 12.7025C10.199 13.2657 10.5152 13.987 10.5152 14.8644C10.5152 16.0411 10.219 16.9333 9.6287 17.5393ZM4.90611 5.30599C5.15225 5.30041 5.45641 5.29112 5.81861 5.27997C6.18081 5.26881 6.48098 5.26509 6.71911 5.26509C7.74967 5.26509 8.50209 5.49746 8.98035 5.96032C9.45861 6.42318 9.69674 7.0645 9.69674 7.88055C9.69674 8.36943 9.64271 8.7914 9.53465 9.14645C9.42659 9.5015 9.23449 9.82866 8.95834 10.1298C8.69019 10.4235 8.338 10.6429 7.89976 10.7897C7.46352 10.9366 6.93923 11.0091 6.32689 11.0091H4.90611V5.30599ZM11.6718 12.3679C11.2316 12.0742 10.7273 11.8474 10.163 11.6838C9.59869 11.5202 9.08641 11.4143 8.63216 11.366V11.2712C9.14844 11.1671 9.62871 11.0183 10.0729 10.8269C10.5172 10.6354 10.9134 10.4012 11.2576 10.1224C11.6238 9.82866 11.908 9.47919 12.1101 9.07209C12.3122 8.665 12.4142 8.20028 12.4142 7.67793C12.4142 7.07937 12.2722 6.57003 11.988 6.15364C11.7038 5.73539 11.3396 5.40451 10.8994 5.161C10.4271 4.89704 9.93287 4.71115 9.41259 4.60705C8.8923 4.50295 8.348 4.4509 7.77969 4.4509H0.427652V5.1926C0.615756 5.20747 0.847883 5.24093 1.12403 5.2967C1.40019 5.35246 1.65232 5.43239 1.87645 5.53649C2.13059 5.64803 2.30068 5.79302 2.38673 5.97519C2.47278 6.1555 2.5148 6.36556 2.5148 6.60163V17.2568C2.5148 17.5152 2.46677 17.7252 2.36872 17.8888C2.27267 18.0524 2.10657 18.1825 1.87445 18.281C1.72436 18.3442 1.47823 18.3981 1.13404 18.4427C0.789851 18.4874 0.527707 18.5171 0.349609 18.532V19.2737H7.88975C8.56212 19.2737 9.21448 19.19 9.84682 19.0227C10.4792 18.8554 11.0455 18.6119 11.5478 18.2922C12.064 17.965 12.4823 17.5468 12.8044 17.0393C13.1266 16.5318 13.2867 15.9314 13.2867 15.2417C13.2867 14.5521 13.1326 13.9926 12.8265 13.5185C12.5183 13.0445 12.1341 12.6616 11.6698 12.3698L11.6718 12.3679Z" fill="#979796"/>
</svg>
