<svg width="109" height="24" viewBox="0 0 109 24" fill="none" xmlns="http://www.w3.org/2000/svg">
<g clip-path="url(#clip0_384_116)">
<path d="M40.5886 11.9105H43.6725L48.5885 22.6589H45.1585L44.3341 20.7374H39.8634L39.039 22.6589H35.6904L40.5886 11.9105ZM43.3926 18.4348L42.1051 15.4173L40.8023 18.4348H43.3926Z" fill="#979796"/>
<path d="M50.0215 11.9105H53.1524V20.0482H58.6202V22.6589H50.0215V11.9105Z" fill="#979796"/>
<path d="M59.3379 18.2284V11.9105H62.5751V18.1639C62.5751 19.7887 63.4182 20.5601 64.7045 20.5601C65.9907 20.5601 66.8516 19.8209 66.8516 18.2458V11.9105H70.0863V18.149C70.0863 21.7656 67.957 23.3755 64.6713 23.3755C61.3857 23.3755 59.3379 21.7507 59.3379 18.2309V18.2284Z" fill="#979796"/>
<path d="M71.521 17.6746V17.643C71.521 14.4305 74.0231 11.9105 77.4236 11.9105C79.7178 11.9105 81.1929 12.8558 82.1878 14.1948L79.8465 15.9736C79.2055 15.2008 78.468 14.6808 77.3914 14.6808C75.8199 14.6808 74.7112 16.0052 74.7112 17.6114V17.643C74.7112 19.2979 75.8174 20.5882 77.3914 20.5882C78.5621 20.5882 79.2525 20.0536 79.9257 19.2493L82.267 20.8871C81.2077 22.3208 79.7797 23.3755 77.3098 23.3755C74.1023 23.3755 71.5186 20.9649 71.5186 17.6746H71.521Z" fill="#979796"/>
<path d="M83.7002 17.6746V17.643C83.7002 14.4767 86.3175 11.9106 89.8072 11.9106C93.2969 11.9106 95.8817 14.4475 95.8817 17.6114V17.643C95.8817 20.8094 93.2644 23.3755 89.7748 23.3755C86.2851 23.3755 83.7002 20.8385 83.7002 17.6746ZM92.6662 17.6746V17.643C92.6662 16.0368 91.5022 14.6662 89.7748 14.6662C88.0474 14.6662 86.8983 16.0198 86.8983 17.6114V17.643C86.8983 19.2347 88.0773 20.6198 89.8072 20.6198C91.5371 20.6198 92.6662 19.2639 92.6662 17.6746Z" fill="#979796"/>
<path d="M98.0312 11.9106H103.187C104.854 11.9106 106.004 12.3416 106.737 13.0617C107.376 13.6917 107.703 14.5041 107.703 15.5652V15.596C107.703 17.254 106.816 18.3435 105.461 18.9119L108.063 22.659H104.589L102.394 19.4046H101.056V22.659H98.0336V11.9129L98.0312 11.9106ZM103.062 17.0692C104.073 17.0692 104.681 16.5789 104.681 15.7949V15.7642C104.681 14.9044 104.042 14.4733 103.045 14.4733H101.051V17.0668H103.059L103.062 17.0692Z" fill="#979796"/>
<path d="M25.4134 13.5139C24.4939 13.543 23.5794 13.7983 22.7146 14.1946C21.8473 14.5885 21.0198 15.0918 20.2121 15.6316C18.5968 16.7184 17.0634 17.956 15.4481 19.1206C14.6404 19.7041 13.8204 20.2779 12.9605 20.8055C12.0982 21.3307 11.206 21.817 10.2641 22.2303C9.32477 22.6388 8.33818 22.9792 7.30685 23.1712C6.79243 23.2685 6.27056 23.3317 5.7462 23.3585L5.35106 23.3706L5.15474 23.3755C5.08764 23.3755 5.01309 23.3682 4.9435 23.3658C4.6602 23.356 4.37938 23.3123 4.10353 23.2515C2.99517 23.001 2.00361 22.33 1.37239 21.4158C0.73371 20.504 0.457862 19.3637 0.62685 18.272C0.795838 17.2484 1.0866 16.3124 1.38978 15.369C1.70291 14.4329 2.05082 13.509 2.42359 12.5972C3.16913 10.7737 4.00661 8.98908 4.97084 7.26524C5.45295 6.4021 5.96986 5.55842 6.5315 4.73905C7.09562 3.92211 7.70696 3.13191 8.40776 2.4098C8.75817 2.04996 9.1359 1.70956 9.54843 1.40321C9.95848 1.09929 10.4083 0.829408 10.9078 0.651919C11.3998 0.469566 11.9615 0.399056 12.4858 0.47686C13.0152 0.549801 13.5221 0.756467 13.9496 1.05796C14.7995 1.67796 15.3487 2.55325 15.7911 3.4334C16.2309 4.32328 16.554 5.25207 16.8472 6.18814C17.4188 8.06273 17.8587 9.96406 18.3234 11.8557C18.7856 13.7473 19.2777 15.6364 19.971 17.4551C20.3239 18.3596 20.7364 19.2446 21.2558 20.064C21.7777 20.876 22.4412 21.6152 23.2738 22.0942C24.1013 22.5804 25.0953 22.7336 26.0422 22.5926C26.989 22.4613 27.8911 22.0407 28.5795 21.4012C28.7584 21.248 28.9075 21.0681 29.0641 20.8955C29.2033 20.7083 29.3474 20.5235 29.4567 20.3193C29.6879 19.9181 29.8717 19.4877 29.9637 19.0379C30.0606 18.5905 30.1054 18.1286 30.0556 17.6739C30.0159 17.2193 29.9215 16.767 29.74 16.3488C29.3996 15.5027 28.7808 14.7757 28.0203 14.27C27.6351 14.0244 27.2152 13.8324 26.7778 13.6986C26.3354 13.5771 25.8782 13.5211 25.4209 13.5187L25.4134 13.5139ZM25.4134 12.7139C25.9527 12.731 26.487 12.8112 26.999 12.9668C27.5084 13.1346 27.9905 13.3728 28.4304 13.6695C29.3002 14.2773 29.9836 15.1331 30.3464 16.1106C30.5378 16.5944 30.6347 17.1123 30.6645 17.6253C30.6993 18.1407 30.6322 18.6586 30.5079 19.1571C30.3862 19.6579 30.1675 20.132 29.8941 20.5672C29.7624 20.7885 29.5984 20.9879 29.4369 21.1897C29.2579 21.3769 29.0865 21.569 28.8852 21.7294C28.1048 22.4054 27.1108 22.826 26.0869 22.9451C25.575 22.9986 25.0531 22.9962 24.5461 22.8941C24.0392 22.7944 23.5521 22.6023 23.1147 22.3373C22.235 21.8048 21.5814 21.0098 21.0545 20.1758C20.5327 19.3345 20.1251 18.4325 19.7797 17.5159C18.4029 13.8397 17.7667 9.96649 16.5714 6.26352C16.2657 5.34203 15.9277 4.43026 15.4829 3.57199C15.0406 2.72344 14.4913 1.89921 13.7135 1.36917C12.9431 0.846428 11.9292 0.72486 11.0743 1.07984C10.6419 1.2476 10.2368 1.50047 9.86404 1.79466C9.48879 2.08643 9.14087 2.41952 8.81532 2.77207C8.16422 3.4796 7.59016 4.2625 7.06331 5.07214C6.53647 5.88422 6.05435 6.72547 5.60703 7.58618C4.7099 9.30516 3.93703 11.0873 3.25362 12.8987C2.91316 13.8056 2.60004 14.7198 2.31922 15.6413C2.04088 16.5579 1.77249 17.4964 1.64078 18.4009C1.52398 19.2373 1.75261 20.1174 2.25212 20.8031C2.74666 21.496 3.51456 21.992 4.35205 22.1671C4.5608 22.2084 4.77452 22.24 4.98824 22.2425C5.04291 22.2425 5.09261 22.2473 5.14977 22.2473L5.32621 22.24L5.67662 22.223C6.14382 22.1914 6.61102 22.1282 7.07325 22.0334C7.99523 21.8389 8.9023 21.5422 9.77706 21.1581C10.6543 20.7763 11.5017 20.3144 12.3318 19.8111C13.1618 19.3102 13.9769 18.7729 14.7821 18.2137C16.3925 17.0953 17.973 15.9015 19.6678 14.8244C20.5178 14.2895 21.4 13.7837 22.3518 13.3826C23.2986 12.9814 24.3399 12.7091 25.4159 12.7066L25.4134 12.7139Z" fill="#979796"/>
<path d="M24.2352 12.9333C23.4081 12.953 22.581 13.1448 21.7813 13.4251C20.9816 13.7079 20.2043 14.0768 19.447 14.485C17.9348 15.3162 16.5023 16.3072 15.0723 17.3081C13.6373 18.3064 12.2223 19.3516 10.7201 20.3032C9.97019 20.7828 9.20039 21.2377 8.39073 21.6484C7.58107 22.0566 6.72905 22.4156 5.79981 22.6345C5.34142 22.7525 4.85064 22.8017 4.35488 22.814C3.86908 22.8066 3.36834 22.7476 2.87756 22.5877C2.38927 22.4304 1.91344 22.1648 1.53228 21.7885C1.14613 21.4172 0.887042 20.9352 0.737566 20.4459C0.660337 20.2 0.617985 19.9516 0.595564 19.7032C0.578125 19.5778 0.583108 19.4548 0.578125 19.3319C0.578125 19.2065 0.590581 19.0737 0.598055 18.9458C0.660337 18.4491 0.794865 18.0089 0.941849 17.5761C1.2408 16.7129 1.62944 15.9088 2.05295 15.1268C2.90995 13.5653 3.9214 12.0997 5.0898 10.7545C5.67525 10.0832 6.30305 9.4463 6.99064 8.86595C7.67573 8.2856 8.4256 7.76427 9.26516 7.38557C10.0923 6.99949 11.0589 6.79785 11.9931 6.94047C12.9373 7.07081 13.7768 7.59951 14.3997 8.25118C15.0299 8.91022 15.4933 9.67746 15.8969 10.4595C16.3005 11.2439 16.6443 12.0505 16.9681 12.862C17.6134 14.485 18.1889 16.1277 18.9188 17.7064C19.285 18.4933 19.6836 19.268 20.1595 19.9909C20.6353 20.7139 21.1933 21.3926 21.8685 21.9361C22.5386 22.482 23.3333 22.8804 24.1853 23.0574C25.0324 23.2369 25.9267 23.2468 26.7538 23.0058C27.5884 22.7845 28.3383 22.3123 28.9337 21.7123C29.2252 21.4025 29.4793 21.0631 29.6836 20.6942C29.8779 20.3229 30.0448 19.9319 30.127 19.5212C30.3263 18.7048 30.2765 17.8466 29.9974 17.0695C29.7209 16.2875 29.2401 15.5818 28.6572 14.9793C28.0717 14.3768 27.3717 13.8801 26.6168 13.5186C25.862 13.1595 25.0398 12.9308 24.2352 12.9333ZM24.2352 12.1956C25.1968 12.2251 26.1011 12.5153 26.9158 12.9333C27.7304 13.3563 28.4678 13.9145 29.0807 14.5883C29.6935 15.2572 30.1868 16.049 30.4583 16.922C30.7324 17.795 30.7448 18.7442 30.4957 19.6098C30.3886 20.05 30.1918 20.4606 29.9725 20.8541C29.7433 21.2426 29.4593 21.5967 29.1429 21.9164C28.4927 22.5386 27.688 23.0083 26.8111 23.2148C25.0598 23.6476 23.1415 23.1878 21.7688 22.0566C21.0762 21.4984 20.5107 20.8074 20.0175 20.0844C19.5242 19.3565 19.1131 18.5794 18.7344 17.79C17.9871 16.2088 17.3767 14.5711 16.6966 12.9727C16.3553 12.1734 16.0015 11.3816 15.5855 10.6242C15.167 9.87172 14.6911 9.14629 14.0882 8.5561C13.4879 7.96838 12.7405 7.54049 11.9233 7.45197C11.1062 7.35606 10.2791 7.55033 9.52923 7.92903C8.77438 8.2979 8.0843 8.80693 7.45152 9.3799C6.81874 9.95287 6.23578 10.5849 5.69269 11.2488C4.61148 12.5817 3.67477 14.0374 2.90496 15.5621C2.52629 16.3244 2.17004 17.1039 1.91842 17.8958C1.79137 18.2892 1.68674 18.6901 1.64937 19.0589C1.64937 19.1475 1.63691 19.2311 1.64189 19.3221C1.64937 19.4155 1.64688 19.5114 1.66182 19.6024C1.68425 19.7868 1.71663 19.9663 1.77642 20.136C1.99067 20.8246 2.52131 21.3188 3.22385 21.5279C3.57262 21.6361 3.95877 21.6803 4.3499 21.6803C4.73604 21.6607 5.12717 21.6238 5.5183 21.5131C6.30305 21.3164 7.07783 20.9795 7.83517 20.5959C8.59252 20.2098 9.32993 19.7647 10.0673 19.3073C11.5322 18.3827 12.9796 17.3941 14.4445 16.4203C15.9143 15.449 17.4166 14.5022 19.0135 13.6932C19.8132 13.2923 20.6403 12.9284 21.5097 12.6505C22.3767 12.3751 23.291 12.1882 24.2302 12.1956H24.2352Z" fill="#979796"/>
<path d="M21.8438 12.1138C21.0725 12.1281 20.3163 12.2827 19.5675 12.5085C18.8212 12.7344 18.0924 13.0292 17.381 13.3573C15.9558 14.023 14.5955 14.8314 13.2552 15.6707C11.9123 16.5076 10.6019 17.4063 9.2666 18.2789C8.60267 18.7211 7.92627 19.1515 7.24237 19.577C6.55598 20.0026 5.85711 20.4139 5.11081 20.7872C4.73891 20.975 4.34954 21.1462 3.93271 21.2936L3.61073 21.3959C3.49841 21.4268 3.37861 21.4482 3.26129 21.4743C3.15147 21.5052 3.00421 21.5052 2.87691 21.5171C2.74463 21.5314 2.61484 21.5171 2.48505 21.5052C2.22796 21.4743 1.95341 21.403 1.70131 21.2675C1.44922 21.132 1.22708 20.937 1.07482 20.7183C0.765323 20.2808 0.660492 19.8172 0.608077 19.3892L0.583117 19.0682L0.578125 18.7544C0.578125 18.6474 0.590605 18.5262 0.598093 18.4144C0.615565 18.305 0.63054 18.1909 0.653004 18.0839C0.747851 17.6512 0.905097 17.2518 1.09479 16.8785C1.47917 16.1319 1.98086 15.4686 2.54495 14.8718C3.67563 13.6783 5.04342 12.713 6.56596 12.0401C7.32723 11.7049 8.13343 11.4529 8.96459 11.315C9.79325 11.17 10.6494 11.1462 11.498 11.2936C12.3441 11.4434 13.1404 11.8095 13.8018 12.3064C14.4682 12.8033 15.0123 13.4096 15.5015 14.0373C15.9883 14.6674 16.4201 15.3259 16.8419 15.9869C17.2662 16.6455 17.6805 17.3065 18.1223 17.946C18.9984 19.2252 20.0018 20.4591 21.3321 21.3127C21.9911 21.7382 22.7249 22.0616 23.4961 22.2589C24.2649 22.4682 25.0786 22.5205 25.8723 22.4919C26.072 22.4919 26.2667 22.4468 26.4638 22.423C26.6585 22.3873 26.8507 22.3374 27.0404 22.2851C27.2251 22.2161 27.4173 22.1638 27.592 22.0735L27.8591 21.9499L28.1137 21.8024C28.7901 21.4054 29.3517 20.8395 29.7386 20.1833C30.1354 19.5319 30.3376 18.7829 30.3576 18.0364C30.375 17.2898 30.1803 16.5504 29.8209 15.8894C29.1021 14.5604 27.8391 13.5451 26.4214 12.9317C26.072 12.7653 25.6976 12.6488 25.3307 12.5252C25.1435 12.4705 24.9513 12.4301 24.7641 12.3825L24.4795 12.3136L24.19 12.2684C23.4238 12.1186 22.635 12.1138 21.8463 12.1234L21.8438 12.1138ZM21.8313 11.3911C22.66 11.4053 23.5011 11.441 24.3173 11.6264L24.6243 11.6859L24.9263 11.7691C25.126 11.8262 25.3282 11.8761 25.5254 11.9427C25.9147 12.0877 26.3091 12.2232 26.6785 12.4134C28.1711 13.1196 29.4665 14.2655 30.1754 15.7159C30.5248 16.4386 30.712 17.2423 30.6671 18.0388C30.6196 18.8305 30.38 19.6151 29.9407 20.2856C29.0946 21.6455 27.5296 22.5609 25.8798 22.6512C25.0611 22.6821 24.2399 22.6227 23.4437 22.423C22.65 22.2304 21.8887 21.9071 21.2048 21.4767C20.5184 21.0488 19.9094 20.5162 19.3603 19.9384C18.8112 19.3631 18.3195 18.7378 17.8577 18.1006C16.9367 16.8238 16.128 15.4805 15.1371 14.2869C14.6429 13.6926 14.1013 13.1362 13.4723 12.7011C12.8458 12.266 12.132 11.9712 11.3807 11.8618C10.6344 11.7548 9.84567 11.8 9.08689 11.9593C8.32812 12.1115 7.59181 12.3706 6.89543 12.7059C5.50268 13.3763 4.2522 14.3274 3.2563 15.4591C2.7596 16.0249 2.32531 16.6384 2.01331 17.2851C1.85856 17.6084 1.74125 17.9389 1.68134 18.2646L1.6489 18.5048C1.6489 18.5832 1.64141 18.6569 1.6439 18.7425L1.65638 19.0064L1.68384 19.2608C1.72877 19.5937 1.8336 19.9004 1.98336 20.1025C2.13312 20.3022 2.32281 20.3949 2.61234 20.4282C2.68223 20.4353 2.75711 20.4425 2.8245 20.4282C2.89688 20.4163 2.95429 20.4258 3.04165 20.3997C3.12152 20.3783 3.20139 20.3664 3.28376 20.3426L3.53585 20.2594C3.8753 20.1358 4.21975 19.9765 4.5592 19.7982C5.9245 19.0777 7.24986 18.1933 8.5852 17.3326C9.92055 16.4648 11.2759 15.6065 12.6611 14.7862C14.0489 13.9684 15.4816 13.2028 16.9916 12.5608C17.7479 12.2422 18.5217 11.9569 19.3279 11.7406C20.1291 11.5242 20.9802 11.3792 21.8288 11.3911H21.8313Z" fill="#979796"/>
</g>
<defs>
<clipPath id="clip0_384_116">
<rect width="107.484" height="22.9299" fill="white" transform="translate(0.578125 0.445557)"/>
</clipPath>
</defs>
</svg>
