<svg width="76" height="24" viewBox="0 0 76 24" fill="none" xmlns="http://www.w3.org/2000/svg">
<path opacity="0.3" d="M22.2231 22.2995C20.1845 22.3315 18.2243 21.5009 16.8105 20.0061C15.3251 18.4684 14.5174 16.3827 14.5727 14.2274C14.6279 12.072 15.5414 10.032 17.1036 8.5751C18.4384 7.29837 20.1919 6.57177 22.0237 6.53635H7.74938C5.71071 6.53573 3.75531 7.35912 2.31337 8.82536C0.871421 10.2916 0.0610534 12.2806 0.0605469 14.3548V14.4807C0.0622344 18.7999 3.50408 22.3005 7.74938 22.3007H22.2739L22.2231 22.2995Z" fill="#979796"/>
<path fill-rule="evenodd" clip-rule="evenodd" d="M43.3815 7.59756C44.5996 8.27538 45.6099 9.27123 46.3038 10.4783C46.9976 11.6707 47.3599 13.0263 47.3531 14.405C47.3583 15.7974 46.9931 17.1662 46.2948 18.3718C45.6161 19.5779 44.6208 20.5767 43.4158 21.2607C42.1915 21.9564 40.8039 22.315 39.3951 22.2997C37.3161 22.3324 35.3171 21.5017 33.8762 20.0064C32.3786 18.5414 31.5517 16.5259 31.5901 14.4338C31.5693 10.1116 35.0506 6.58357 39.383 6.53638C40.7863 6.53211 42.1658 6.89822 43.3815 7.59756ZM39.0951 18.7163C40.1634 18.7441 41.1929 18.3052 41.9263 17.5091H41.9256C43.4229 15.7289 43.4308 13.097 41.9443 11.3074C40.38 9.71772 37.8547 9.72389 36.2979 11.3212C35.538 12.1526 35.134 13.2605 35.1756 14.3985C35.1279 15.549 35.5268 16.6722 36.2852 17.5225C37.0122 18.3133 38.0349 18.7478 39.0951 18.7163Z" fill="#979796"/>
<path d="M48.7866 1.52042V21.5841H53.086V1.52042H48.7866Z" fill="#979796"/>
<path d="M54.519 6.53635V21.5841H58.8184V6.53635H54.519Z" fill="#979796"/>
<path d="M71.5182 6.53635L67.8023 15.4172L64.0506 6.53635H60.2515L66.5882 21.5841H69.0053L75.2992 6.53635H71.5182Z" fill="#979796"/>
<circle cx="56.6687" cy="2.95354" r="2.14968" fill="#979796"/>
<path fill-rule="evenodd" clip-rule="evenodd" d="M26.9012 7.59912C28.119 8.27685 29.1292 9.27189 29.824 10.4779C30.5171 11.6698 30.8791 13.0245 30.8726 14.4023C30.8787 15.796 30.514 17.1663 29.8158 18.3734C29.4335 19.0485 28.9518 19.6625 28.3867 20.1949C28.3361 20.2427 28.287 20.289 28.2351 20.3337C28.2061 20.3566 28.1803 20.3804 28.1524 20.406C28.1477 20.4104 28.143 20.4148 28.1381 20.4192C28.0298 20.5133 27.9179 20.6031 27.801 20.6913C27.7362 20.7413 27.6715 20.7875 27.607 20.8336L27.5945 20.8425C27.3813 20.9922 27.1635 21.1325 26.9347 21.2611C25.8076 21.9009 24.5405 22.2557 23.2443 22.2943C23.1527 22.2971 23.0603 22.2998 22.9676 22.2998H22.9158C20.8363 22.3317 18.8369 21.5012 17.3949 20.0064C15.8976 18.5398 15.0712 16.5235 15.1097 14.4307C15.0926 10.1839 18.4575 6.68993 22.7123 6.53638H22.9017C24.3055 6.53236 25.6854 6.89902 26.9012 7.59912ZM22.628 18.7179C23.6866 18.7156 24.7007 18.281 25.4453 17.5104L25.4438 17.51C26.9416 15.7306 26.9508 13.0994 25.4655 11.3091C23.9017 9.71777 21.3749 9.72325 19.8176 11.3213C19.0582 12.1523 18.6541 13.2592 18.695 14.3965C18.6471 15.5479 19.0464 16.6719 19.8057 17.5227C20.5535 18.29 21.5693 18.7202 22.628 18.7179Z" fill="#979796"/>
</svg>
