<svg xmlns="http://www.w3.org/2000/svg" width="215" height="59" fill="none"><g opacity=".5"><mask id="a" width="215" height="59" x="0" y="0" fill="#000" maskUnits="userSpaceOnUse"><path fill="#fff" d="M0 0h215v59H0z"/><path d="M54.76 33.448c.256-.107.47-.075.64.096a.62.62 0 0 1 .256.576c0 .235-.117.405-.352.512a135.34 135.34 0 0 0-12.512 5.632c2.197 1.088 3.307 2.464 3.328 4.128 0 .747-.213 1.525-.64 2.336a9.306 9.306 0 0 1-1.536 2.208 18.073 18.073 0 0 1-2.144 2.048c-.81.704-1.547 1.28-2.208 1.728-.64.448-1.301.885-1.984 1.312-4.757 2.923-8.608 4.032-11.552 3.328-.79-.17-1.387-.47-1.792-.896a2.24 2.24 0 0 1-.64-1.504 5.503 5.503 0 0 1 .224-1.728c.192-.576.47-1.184.832-1.824.341-.619.736-1.216 1.184-1.792a14.156 14.156 0 0 1 1.6-1.6c.597-.512 1.152-.97 1.664-1.376a26.57 26.57 0 0 1 1.92-1.312c.768-.47 1.397-.853 1.888-1.152.512-.277 1.184-.65 2.016-1.12.853-.448 1.483-.79 1.888-1.024.79-.47 1.717-.992 2.784-1.568a39.479 39.479 0 0 0-1.696-.544c-.576-.17-1.195-.33-1.856-.48-.661-.15-1.237-.277-1.728-.384-.49-.107-1.13-.213-1.92-.32l-1.728-.288a31.352 31.352 0 0 0-1.92-.224 54.596 54.596 0 0 0-1.76-.192 55.94 55.94 0 0 0-1.92-.224c-.981-.107-1.557-.16-1.728-.16-2.197-.235-3.712-.395-4.544-.48-.832-.107-2.133-.288-3.904-.544a55.808 55.808 0 0 1-4.704-.864 46.71 46.71 0 0 1-3.936-1.184C2.312 33.181.627 31.112 1.224 28.36a3.74 3.74 0 0 1 .384-1.056c.192-.363.363-.661.512-.896.15-.235.405-.533.768-.896.384-.384.64-.63.768-.736a23.059 23.059 0 0 1 1.728-1.472A53.494 53.494 0 0 1 12.2 18.28a58.048 58.048 0 0 1 15.072-6.784c.15-.064.459-.16.928-.288a39.895 39.895 0 0 1 2.4-.672 8.28 8.28 0 0 1 1.312-.288c.384-.043.821-.075 1.312-.096.49-.043.917-.021 1.28.064.363.064.725.17 1.088.32a2.5 2.5 0 0 1 .992.608c.299.277.544.608.736.992.15.405.224.8.224 1.184 0 .363-.117.757-.352 1.184-.235.427-.49.81-.768 1.152a8.444 8.444 0 0 1-.96 1.056c-.384.363-.725.672-1.024.928-.299.235-.608.459-.928.672a.64.64 0 0 1-.672.064c-.235-.107-.373-.267-.416-.48-.021-.213.064-.405.256-.576 1.6-1.11 2.592-2.08 2.976-2.912.277-.64.341-1.173.192-1.6a1.346 1.346 0 0 0-.896-.896 7.487 7.487 0 0 0-1.536-.32 5.023 5.023 0 0 0-1.696.096c-2.624.405-5.93 1.43-9.92 3.072-6.912 2.837-12.768 6.603-17.568 11.296-3.307 3.221-2.048 5.781 3.776 7.68 2.624.853 6.304 1.568 11.04 2.144.981.107 2.432.256 4.352.448 1.92.192 3.467.363 4.64.512 1.173.128 2.581.33 4.224.608 1.643.256 3.136.555 4.48.896 2.197.533 3.701.95 4.512 1.248 4.31-2.24 8.81-4.288 13.504-6.144Zm-13.152 7.808a166.966 166.966 0 0 1-.384-.192 145.239 145.239 0 0 0-5.888 3.328c-.277.17-.885.512-1.824 1.024-.917.533-1.61.95-2.08 1.248-.47.299-1.067.693-1.792 1.184a14.215 14.215 0 0 0-1.856 1.536c-.512.512-.97 1.056-1.376 1.632a9.69 9.69 0 0 0-.832 1.504 6.4 6.4 0 0 0-.448 1.504c-.064.512.053.96.352 1.344.32.384.821.661 1.504.832.15.043.32.064.512.064h.576c.17 0 .384-.032.64-.096l.576-.096c.15-.021.363-.075.64-.16.299-.085.49-.15.576-.192.085-.021.277-.085.576-.192.299-.085.459-.128.48-.128 1.643-.533 3.723-1.643 6.24-3.328 3.712-2.496 5.856-4.736 6.432-6.72.512-1.75-.363-3.115-2.624-4.096Zm28.162-9.248c.128-.235.31-.33.544-.288.256.043.427.17.512.384.107.192.107.405 0 .64-.875 1.408-2.08 2.73-3.616 3.968-1.536 1.216-3.019 1.856-4.448 1.92-.448 0-.832-.053-1.152-.16a2.604 2.604 0 0 1-.768-.448c-.17-.17-.33-.427-.48-.768a10.14 10.14 0 0 1-.288-.864 62.377 62.377 0 0 0-.192-.992c-1.643 3.115-3.147 4.576-4.512 4.384-.555-.085-.95-.416-1.184-.992-.256-.597-.363-1.301-.32-2.112.043-.832.128-1.568.256-2.208a16.61 16.61 0 0 1 .352-1.696c.085-.235.235-.363.448-.384.235-.043.437.032.608.224.17.17.224.384.16.64-.49 1.664-.64 2.955-.448 3.872.15.725.565.939 1.248.64.853-.384 1.845-1.888 2.976-4.512.107-.235.299-.363.576-.384.299-.021.501.096.608.352.085.213.15.459.192.736.064.277.117.533.16.768.043.213.085.459.128.736.064.256.128.47.192.64a5.1 5.1 0 0 0 .32.544c.15.192.31.32.48.384.17.064.395.117.672.16.277.021.597-.032.96-.16 1.067-.256 2.165-.885 3.296-1.888 1.152-1.024 2.059-2.07 2.72-3.136Zm12.474.448a.601.601 0 0 1 .383-.16c.15 0 .278.043.385.128a.676.676 0 0 1 .224.32.503.503 0 0 1 .063.352.588.588 0 0 1-.224.352c-1.535 1.216-3.264 1.792-5.184 1.728-1.898-.064-3.562-.747-4.992-2.048-.767.917-1.418 2.016-1.951 3.296a22.974 22.974 0 0 0-1.184 3.968c-.043.256-.171.427-.385.512a.621.621 0 0 1-.608-.064c-.192-.128-.287-.33-.287-.608.085-2.901.65-6.24 1.696-10.016.063-.256.213-.395.447-.416.235-.021.438.064.609.256.17.17.224.373.16.608a57.853 57.853 0 0 0-.928 3.808c.597-1.088 1.258-2.005 1.983-2.752a.516.516 0 0 1 .449-.16.65.65 0 0 1 .447.224c1.174 1.28 2.614 1.984 4.32 2.112 1.707.128 3.233-.352 4.576-1.44Zm.434-.864c.107-.235.277-.363.512-.384a.646.646 0 0 1 .576.224c.17.17.213.384.128.64-1.088 2.73-1.61 5.504-1.568 8.32 0 .363-.181.544-.544.544-.384 0-.619-.17-.704-.512a.605.605 0 0 1-.032-.192c-.043-2.88.501-5.76 1.632-8.64Zm2.144-3.68c.15.363.043.65-.32.864L82.23 30.12a.541.541 0 0 1-.48.032.706.706 0 0 1-.352-.352c-.15-.341-.043-.63.32-.864l2.272-1.344a.482.482 0 0 1 .48 0c.17.064.288.17.352.32Zm22.149 4.416c.171-.192.374-.267.608-.224.256.043.427.17.512.384.107.192.086.395-.064.608a22.434 22.434 0 0 1-4.448 4.16 16.57 16.57 0 0 1-2.88 1.632 6.107 6.107 0 0 1-2.88.448c-.981-.107-1.824-.533-2.528-1.28a43.033 43.033 0 0 1-1.568-1.888 40.726 40.726 0 0 0-1.408-1.76 3.16 3.16 0 0 0-.544-.448 1.666 1.666 0 0 0-.448-.256.572.572 0 0 0-.416.032 3.2 3.2 0 0 0-.384.192c-.085.043-.202.15-.352.32-.15.17-.256.31-.32.416a15.93 15.93 0 0 1-.352.544c-.17.235-.288.395-.352.48-.106.17-.394.715-.864 1.632-.448.896-.917 1.664-1.408 2.304-.47.619-.917.96-1.344 1.024-.256.043-.458-.032-.608-.224a2.157 2.157 0 0 1-.32-.672 2.365 2.365 0 0 1-.096-.896c.022-.363.043-.64.064-.832.022-.192.075-.501.16-.928.086-.427.139-.672.16-.736.128-.81.374-1.963.736-3.456.363-1.515.576-2.421.64-2.72a.676.676 0 0 1 .448-.48.677.677 0 0 1 .64.064c.192.128.256.32.192.576-.106.47-.288 1.248-.544 2.336a161.196 161.196 0 0 0-.576 2.464c-.256 1.259-.416 2.133-.48 2.624v.288c.17-.32.384-.661.64-1.024.278-.363.566-.747.864-1.152.299-.405.512-.715.64-.928.064-.085.15-.213.256-.384.128-.17.235-.32.32-.448.086-.128.182-.267.288-.416.128-.17.246-.32.352-.448a5.734 5.734 0 0 1 .736-.736c.15-.107.288-.192.416-.256.342-.085.64-.128.896-.128s.534.096.832.288c.299.192.555.395.768.608.235.213.48.48.736.8.278.32.502.619.672.896.192.256.384.533.576.832.214.299.395.533.544.704.747.917 1.419 1.461 2.016 1.632.598.15 1.45.021 2.56-.384 2.603-.96 4.907-2.688 6.912-5.184Zm8.126-11.616a304.257 304.257 0 0 0-.576 5.024 103.04 103.04 0 0 0-.352 4.8c-.107 1.963-.128 3.659-.064 5.088.085 1.408.256 2.965.512 4.672a29.21 29.21 0 0 0 1.184 4.8c.085.256.043.47-.128.64a.62.62 0 0 1-.576.256c-.235 0-.395-.128-.48-.384-1.408-4.075-1.984-9.024-1.728-14.848-1.216 3.563-2.869 6.443-4.96 8.64a4.668 4.668 0 0 1-1.248.992 4.388 4.388 0 0 1-1.312.512 1.105 1.105 0 0 1-1.088-.352c-.299-.32-.459-.832-.48-1.536-.021-1.387.459-2.816 1.44-4.288.96-1.493 2.08-2.475 3.36-2.944.384-.128.661-.01.832.352.171.384.075.661-.288.832-1.429.512-2.56 1.75-3.392 3.712-.704 1.621-.811 2.507-.32 2.656.299.064.821-.213 1.568-.832 1.579-1.323 2.976-3.733 4.192-7.232 1.536-4.48 2.667-10.304 3.392-17.472.021-.256.139-.427.352-.512a.677.677 0 0 1 .64.064c.213.128.309.32.288.576l-.224 2.24c-.192 1.75-.373 3.264-.544 4.544Zm14.332 11.52c.192-.192.394-.235.608-.128a.6.6 0 0 1 .384.48c.064.213.01.427-.16.64-4.395 4.501-8.192 6.368-11.392 5.6-1.131-.256-1.984-.747-2.56-1.472-.576-.747-.8-1.568-.672-2.464.106-.917.522-1.792 1.248-2.624.576-.619 1.322-1.12 2.24-1.504 1.365-.555 2.037-.213 2.016 1.024v.064c-.022.832-.523 1.621-1.504 2.368-.982.747-1.867.992-2.656.736-.086.96.32 1.675 1.216 2.144.896.47 1.877.608 2.944.416a10.817 10.817 0 0 0 4.224-1.76c1.322-.917 2.677-2.09 4.064-3.52Zm-10.144-.192c-.299.021-.63.203-.992.544a6.42 6.42 0 0 0-.896 1.12c.448.213.992-.043 1.632-.768.426-.49.544-.79.352-.896h-.096Zm22.99.416a.601.601 0 0 1 .384-.16c.149 0 .277.043.384.128a.683.683 0 0 1 .224.32.504.504 0 0 1 .064.352.592.592 0 0 1-.224.352c-1.536 1.216-3.264 1.792-5.184 1.728-1.899-.064-3.563-.747-4.992-2.048-.768.917-1.419 2.016-1.952 3.296a22.948 22.948 0 0 0-1.184 3.968c-.043.256-.171.427-.384.512a.621.621 0 0 1-.608-.064c-.192-.128-.288-.33-.288-.608.085-2.901.65-6.24 1.696-10.016.064-.256.213-.395.448-.416.234-.021.437.064.608.256.17.17.224.373.16.608a57.663 57.663 0 0 0-.928 3.808c.597-1.088 1.258-2.005 1.984-2.752a.515.515 0 0 1 .448-.16.65.65 0 0 1 .448.224c1.173 1.28 2.613 1.984 4.32 2.112 1.706.128 3.232-.352 4.576-1.44Zm2.918 7.808c.064.15.064.32 0 .512a.575.575 0 0 1-.352.352c-.192.064-.49.16-.896.288-.405.15-.682.043-.832-.32a.542.542 0 0 1-.032-.48.58.58 0 0 1 .352-.384c.192-.064.491-.16.896-.288.406-.15.694-.043.864.32Zm67.711-37.92c.256-.043.448.032.576.224a.632.632 0 0 1 .096.64c-.064.235-.224.373-.48.416-3.691.704-9.216 1.77-16.576 3.2l-16.512 3.168c-1.046 12.95-1.334 28.01-.864 45.184a.63.63 0 0 1-.32.576c-.192.15-.395.192-.608.128-.214-.064-.331-.235-.352-.512-.214-2.176-.406-4-.576-5.472-.171-1.45-.438-3.221-.8-5.312-.342-2.07-.736-3.893-1.184-5.472a41.95 41.95 0 0 0-1.728-5.056 32.018 32.018 0 0 0-2.496-4.896 24.208 24.208 0 0 0-2.24-2.976 22.917 22.917 0 0 0-2.528-2.464 18.635 18.635 0 0 0-2.784-1.952 25.122 25.122 0 0 0-3.008-1.536 26.093 26.093 0 0 0-3.232-1.184 31.17 31.17 0 0 0-3.36-.864 38.373 38.373 0 0 0-3.488-.576 58.026 58.026 0 0 0-3.552-.384 83.071 83.071 0 0 0-3.584-.192c-.363-.021-.544-.224-.544-.608s.181-.608.544-.672l35.488-6.848c.213-2.581.458-5.045.736-7.392.021-.256.138-.427.352-.512a.63.63 0 0 1 .64.096c.213.128.309.32.288.576a294.5 294.5 0 0 0-.704 6.976c2.432-.448 5.162-.96 8.192-1.536 3.05-.597 5.781-1.13 8.192-1.6 2.432-.47 5.162-.992 8.192-1.568 3.05-.597 5.792-1.13 8.224-1.6ZM177.64 43.592c-.107-12.203.245-23.317 1.056-33.344-2.795.533-6.016 1.152-9.664 1.856l-10.944 2.112c-3.627.704-6.838 1.323-9.632 1.856 2.389.235 4.597.587 6.624 1.056a37.099 37.099 0 0 1 6.08 1.92 22.791 22.791 0 0 1 5.632 3.328 23.082 23.082 0 0 1 4.608 4.928c2.901 4.181 4.981 9.61 6.24 16.288Z"/></mask><path fill="#212529" d="M54.76 33.448c.256-.107.47-.075.64.096a.62.62 0 0 1 .256.576c0 .235-.117.405-.352.512a135.34 135.34 0 0 0-12.512 5.632c2.197 1.088 3.307 2.464 3.328 4.128 0 .747-.213 1.525-.64 2.336a9.306 9.306 0 0 1-1.536 2.208 18.073 18.073 0 0 1-2.144 2.048c-.81.704-1.547 1.28-2.208 1.728-.64.448-1.301.885-1.984 1.312-4.757 2.923-8.608 4.032-11.552 3.328-.79-.17-1.387-.47-1.792-.896a2.24 2.24 0 0 1-.64-1.504 5.503 5.503 0 0 1 .224-1.728c.192-.576.47-1.184.832-1.824.341-.619.736-1.216 1.184-1.792a14.156 14.156 0 0 1 1.6-1.6c.597-.512 1.152-.97 1.664-1.376a26.57 26.57 0 0 1 1.92-1.312c.768-.47 1.397-.853 1.888-1.152.512-.277 1.184-.65 2.016-1.12.853-.448 1.483-.79 1.888-1.024.79-.47 1.717-.992 2.784-1.568a39.479 39.479 0 0 0-1.696-.544c-.576-.17-1.195-.33-1.856-.48-.661-.15-1.237-.277-1.728-.384-.49-.107-1.13-.213-1.92-.32l-1.728-.288a31.352 31.352 0 0 0-1.92-.224 54.596 54.596 0 0 0-1.76-.192 55.94 55.94 0 0 0-1.92-.224c-.981-.107-1.557-.16-1.728-.16-2.197-.235-3.712-.395-4.544-.48-.832-.107-2.133-.288-3.904-.544a55.808 55.808 0 0 1-4.704-.864 46.71 46.71 0 0 1-3.936-1.184C2.312 33.181.627 31.112 1.224 28.36a3.74 3.74 0 0 1 .384-1.056c.192-.363.363-.661.512-.896.15-.235.405-.533.768-.896.384-.384.64-.63.768-.736a23.059 23.059 0 0 1 1.728-1.472A53.494 53.494 0 0 1 12.2 18.28a58.048 58.048 0 0 1 15.072-6.784c.15-.064.459-.16.928-.288a39.895 39.895 0 0 1 2.4-.672 8.28 8.28 0 0 1 1.312-.288c.384-.043.821-.075 1.312-.096.49-.043.917-.021 1.28.064.363.064.725.17 1.088.32a2.5 2.5 0 0 1 .992.608c.299.277.544.608.736.992.15.405.224.8.224 1.184 0 .363-.117.757-.352 1.184-.235.427-.49.81-.768 1.152a8.444 8.444 0 0 1-.96 1.056c-.384.363-.725.672-1.024.928-.299.235-.608.459-.928.672a.64.64 0 0 1-.672.064c-.235-.107-.373-.267-.416-.48-.021-.213.064-.405.256-.576 1.6-1.11 2.592-2.08 2.976-2.912.277-.64.341-1.173.192-1.6a1.346 1.346 0 0 0-.896-.896 7.487 7.487 0 0 0-1.536-.32 5.023 5.023 0 0 0-1.696.096c-2.624.405-5.93 1.43-9.92 3.072-6.912 2.837-12.768 6.603-17.568 11.296-3.307 3.221-2.048 5.781 3.776 7.68 2.624.853 6.304 1.568 11.04 2.144.981.107 2.432.256 4.352.448 1.92.192 3.467.363 4.64.512 1.173.128 2.581.33 4.224.608 1.643.256 3.136.555 4.48.896 2.197.533 3.701.95 4.512 1.248 4.31-2.24 8.81-4.288 13.504-6.144Zm-13.152 7.808a166.966 166.966 0 0 1-.384-.192 145.239 145.239 0 0 0-5.888 3.328c-.277.17-.885.512-1.824 1.024-.917.533-1.61.95-2.08 1.248-.47.299-1.067.693-1.792 1.184a14.215 14.215 0 0 0-1.856 1.536c-.512.512-.97 1.056-1.376 1.632a9.69 9.69 0 0 0-.832 1.504 6.4 6.4 0 0 0-.448 1.504c-.064.512.053.96.352 1.344.32.384.821.661 1.504.832.15.043.32.064.512.064h.576c.17 0 .384-.032.64-.096l.576-.096c.15-.021.363-.075.64-.16.299-.085.49-.15.576-.192.085-.021.277-.085.576-.192.299-.085.459-.128.48-.128 1.643-.533 3.723-1.643 6.24-3.328 3.712-2.496 5.856-4.736 6.432-6.72.512-1.75-.363-3.115-2.624-4.096Zm28.162-9.248c.128-.235.31-.33.544-.288.256.043.427.17.512.384.107.192.107.405 0 .64-.875 1.408-2.08 2.73-3.616 3.968-1.536 1.216-3.019 1.856-4.448 1.92-.448 0-.832-.053-1.152-.16a2.604 2.604 0 0 1-.768-.448c-.17-.17-.33-.427-.48-.768a10.14 10.14 0 0 1-.288-.864 62.377 62.377 0 0 0-.192-.992c-1.643 3.115-3.147 4.576-4.512 4.384-.555-.085-.95-.416-1.184-.992-.256-.597-.363-1.301-.32-2.112.043-.832.128-1.568.256-2.208a16.61 16.61 0 0 1 .352-1.696c.085-.235.235-.363.448-.384.235-.043.437.032.608.224.17.17.224.384.16.64-.49 1.664-.64 2.955-.448 3.872.15.725.565.939 1.248.64.853-.384 1.845-1.888 2.976-4.512.107-.235.299-.363.576-.384.299-.021.501.096.608.352.085.213.15.459.192.736.064.277.117.533.16.768.043.213.085.459.128.736.064.256.128.47.192.64a5.1 5.1 0 0 0 .32.544c.15.192.31.32.48.384.17.064.395.117.672.16.277.021.597-.032.96-.16 1.067-.256 2.165-.885 3.296-1.888 1.152-1.024 2.059-2.07 2.72-3.136Zm12.474.448a.601.601 0 0 1 .383-.16c.15 0 .278.043.385.128a.676.676 0 0 1 .224.32.503.503 0 0 1 .063.352.588.588 0 0 1-.224.352c-1.535 1.216-3.264 1.792-5.184 1.728-1.898-.064-3.562-.747-4.992-2.048-.767.917-1.418 2.016-1.951 3.296a22.974 22.974 0 0 0-1.184 3.968c-.043.256-.171.427-.385.512a.621.621 0 0 1-.608-.064c-.192-.128-.287-.33-.287-.608.085-2.901.65-6.24 1.696-10.016.063-.256.213-.395.447-.416.235-.021.438.064.609.256.17.17.224.373.16.608a57.853 57.853 0 0 0-.928 3.808c.597-1.088 1.258-2.005 1.983-2.752a.516.516 0 0 1 .449-.16.65.65 0 0 1 .447.224c1.174 1.28 2.614 1.984 4.32 2.112 1.707.128 3.233-.352 4.576-1.44Zm.434-.864c.107-.235.277-.363.512-.384a.646.646 0 0 1 .576.224c.17.17.213.384.128.64-1.088 2.73-1.61 5.504-1.568 8.32 0 .363-.181.544-.544.544-.384 0-.619-.17-.704-.512a.605.605 0 0 1-.032-.192c-.043-2.88.501-5.76 1.632-8.64Zm2.144-3.68c.15.363.043.65-.32.864L82.23 30.12a.541.541 0 0 1-.48.032.706.706 0 0 1-.352-.352c-.15-.341-.043-.63.32-.864l2.272-1.344a.482.482 0 0 1 .48 0c.17.064.288.17.352.32Zm22.149 4.416c.171-.192.374-.267.608-.224.256.043.427.17.512.384.107.192.086.395-.064.608a22.434 22.434 0 0 1-4.448 4.16 16.57 16.57 0 0 1-2.88 1.632 6.107 6.107 0 0 1-2.88.448c-.981-.107-1.824-.533-2.528-1.28a43.033 43.033 0 0 1-1.568-1.888 40.726 40.726 0 0 0-1.408-1.76 3.16 3.16 0 0 0-.544-.448 1.666 1.666 0 0 0-.448-.256.572.572 0 0 0-.416.032 3.2 3.2 0 0 0-.384.192c-.085.043-.202.15-.352.32-.15.17-.256.31-.32.416a15.93 15.93 0 0 1-.352.544c-.17.235-.288.395-.352.48-.106.17-.394.715-.864 1.632-.448.896-.917 1.664-1.408 2.304-.47.619-.917.96-1.344 1.024-.256.043-.458-.032-.608-.224a2.157 2.157 0 0 1-.32-.672 2.365 2.365 0 0 1-.096-.896c.022-.363.043-.64.064-.832.022-.192.075-.501.16-.928.086-.427.139-.672.16-.736.128-.81.374-1.963.736-3.456.363-1.515.576-2.421.64-2.72a.676.676 0 0 1 .448-.48.677.677 0 0 1 .64.064c.192.128.256.32.192.576-.106.47-.288 1.248-.544 2.336a161.196 161.196 0 0 0-.576 2.464c-.256 1.259-.416 2.133-.48 2.624v.288c.17-.32.384-.661.64-1.024.278-.363.566-.747.864-1.152.299-.405.512-.715.64-.928.064-.085.15-.213.256-.384.128-.17.235-.32.32-.448.086-.128.182-.267.288-.416.128-.17.246-.32.352-.448a5.734 5.734 0 0 1 .736-.736c.15-.107.288-.192.416-.256.342-.085.64-.128.896-.128s.534.096.832.288c.299.192.555.395.768.608.235.213.48.48.736.8.278.32.502.619.672.896.192.256.384.533.576.832.214.299.395.533.544.704.747.917 1.419 1.461 2.016 1.632.598.15 1.45.021 2.56-.384 2.603-.96 4.907-2.688 6.912-5.184Zm8.126-11.616a304.257 304.257 0 0 0-.576 5.024 103.04 103.04 0 0 0-.352 4.8c-.107 1.963-.128 3.659-.064 5.088.085 1.408.256 2.965.512 4.672a29.21 29.21 0 0 0 1.184 4.8c.085.256.043.47-.128.64a.62.62 0 0 1-.576.256c-.235 0-.395-.128-.48-.384-1.408-4.075-1.984-9.024-1.728-14.848-1.216 3.563-2.869 6.443-4.96 8.64a4.668 4.668 0 0 1-1.248.992 4.388 4.388 0 0 1-1.312.512 1.105 1.105 0 0 1-1.088-.352c-.299-.32-.459-.832-.48-1.536-.021-1.387.459-2.816 1.44-4.288.96-1.493 2.08-2.475 3.36-2.944.384-.128.661-.01.832.352.171.384.075.661-.288.832-1.429.512-2.56 1.75-3.392 3.712-.704 1.621-.811 2.507-.32 2.656.299.064.821-.213 1.568-.832 1.579-1.323 2.976-3.733 4.192-7.232 1.536-4.48 2.667-10.304 3.392-17.472.021-.256.139-.427.352-.512a.677.677 0 0 1 .64.064c.213.128.309.32.288.576l-.224 2.24c-.192 1.75-.373 3.264-.544 4.544Zm14.332 11.52c.192-.192.394-.235.608-.128a.6.6 0 0 1 .384.48c.064.213.01.427-.16.64-4.395 4.501-8.192 6.368-11.392 5.6-1.131-.256-1.984-.747-2.56-1.472-.576-.747-.8-1.568-.672-2.464.106-.917.522-1.792 1.248-2.624.576-.619 1.322-1.12 2.24-1.504 1.365-.555 2.037-.213 2.016 1.024v.064c-.022.832-.523 1.621-1.504 2.368-.982.747-1.867.992-2.656.736-.086.96.32 1.675 1.216 2.144.896.47 1.877.608 2.944.416a10.817 10.817 0 0 0 4.224-1.76c1.322-.917 2.677-2.09 4.064-3.52Zm-10.144-.192c-.299.021-.63.203-.992.544a6.42 6.42 0 0 0-.896 1.12c.448.213.992-.043 1.632-.768.426-.49.544-.79.352-.896h-.096Zm22.99.416a.601.601 0 0 1 .384-.16c.149 0 .277.043.384.128a.683.683 0 0 1 .224.32.504.504 0 0 1 .064.352.592.592 0 0 1-.224.352c-1.536 1.216-3.264 1.792-5.184 1.728-1.899-.064-3.563-.747-4.992-2.048-.768.917-1.419 2.016-1.952 3.296a22.948 22.948 0 0 0-1.184 3.968c-.043.256-.171.427-.384.512a.621.621 0 0 1-.608-.064c-.192-.128-.288-.33-.288-.608.085-2.901.65-6.24 1.696-10.016.064-.256.213-.395.448-.416.234-.021.437.064.608.256.17.17.224.373.16.608a57.663 57.663 0 0 0-.928 3.808c.597-1.088 1.258-2.005 1.984-2.752a.515.515 0 0 1 .448-.16.65.65 0 0 1 .448.224c1.173 1.28 2.613 1.984 4.32 2.112 1.706.128 3.232-.352 4.576-1.44Zm2.918 7.808c.064.15.064.32 0 .512a.575.575 0 0 1-.352.352c-.192.064-.49.16-.896.288-.405.15-.682.043-.832-.32a.542.542 0 0 1-.032-.48.58.58 0 0 1 .352-.384c.192-.064.491-.16.896-.288.406-.15.694-.043.864.32Zm67.711-37.92c.256-.043.448.032.576.224a.632.632 0 0 1 .096.64c-.064.235-.224.373-.48.416-3.691.704-9.216 1.77-16.576 3.2l-16.512 3.168c-1.046 12.95-1.334 28.01-.864 45.184a.63.63 0 0 1-.32.576c-.192.15-.395.192-.608.128-.214-.064-.331-.235-.352-.512-.214-2.176-.406-4-.576-5.472-.171-1.45-.438-3.221-.8-5.312-.342-2.07-.736-3.893-1.184-5.472a41.95 41.95 0 0 0-1.728-5.056 32.018 32.018 0 0 0-2.496-4.896 24.208 24.208 0 0 0-2.24-2.976 22.917 22.917 0 0 0-2.528-2.464 18.635 18.635 0 0 0-2.784-1.952 25.122 25.122 0 0 0-3.008-1.536 26.093 26.093 0 0 0-3.232-1.184 31.17 31.17 0 0 0-3.36-.864 38.373 38.373 0 0 0-3.488-.576 58.026 58.026 0 0 0-3.552-.384 83.071 83.071 0 0 0-3.584-.192c-.363-.021-.544-.224-.544-.608s.181-.608.544-.672l35.488-6.848c.213-2.581.458-5.045.736-7.392.021-.256.138-.427.352-.512a.63.63 0 0 1 .64.096c.213.128.309.32.288.576a294.5 294.5 0 0 0-.704 6.976c2.432-.448 5.162-.96 8.192-1.536 3.05-.597 5.781-1.13 8.192-1.6 2.432-.47 5.162-.992 8.192-1.568 3.05-.597 5.792-1.13 8.224-1.6ZM177.64 43.592c-.107-12.203.245-23.317 1.056-33.344-2.795.533-6.016 1.152-9.664 1.856l-10.944 2.112c-3.627.704-6.838 1.323-9.632 1.856 2.389.235 4.597.587 6.624 1.056a37.099 37.099 0 0 1 6.08 1.92 22.791 22.791 0 0 1 5.632 3.328 23.082 23.082 0 0 1 4.608 4.928c2.901 4.181 4.981 9.61 6.24 16.288Z"/><path fill="#979796" d="m54.76 33.448.184.465.008-.003-.192-.462Zm.64.096-.354.354.023.022.024.019.307-.395Zm.256.576-.498-.045-.002.022v.023h.5Zm-.352.512.182.466.013-.005.012-.006-.207-.455Zm-12.512 5.632-.228-.445-.883.453.89.44.221-.448Zm3.328 4.128h.5v-.006l-.5.006Zm-.64 2.336-.443-.233-.004.01.447.223Zm-1.536 2.208-.365-.342-.006.006-.005.007.376.329ZM41.8 50.984l-.317-.387-.01.01.327.377Zm-2.208 1.728-.28-.414-.007.004.287.41Zm-1.984 1.312.262.426.003-.002-.265-.424Zm-11.552 3.328.116-.486-.01-.003-.106.489Zm-1.792-.896.363-.344-.363.344Zm-.64-1.504.5-.018v-.001l-.5.019Zm.224-1.728-.474-.158-.004.01-.003.01.481.138Zm.832-1.824.435.247.003-.005-.438-.242Zm1.184-1.792-.382-.323-.006.008-.007.008.395.307Zm3.264-2.976-.303-.398-.007.006.31.392Zm1.92-1.312-.26-.427-.006.004.266.423Zm1.888-1.152-.238-.44-.011.006-.011.007.26.427Zm2.016-1.12-.232-.443-.007.004-.007.003.246.436Zm1.888-1.024.25.433.005-.003-.255-.43Zm2.784-1.568.238.44 1-.54-1.074-.373-.164.473Zm-1.696-.544-.142.48.142-.48Zm-3.584-.864.106-.489-.106.489Zm-1.92-.32-.082.493.007.002h.008l.067-.495Zm-3.648-.512-.06.497h.013l.047-.497Zm-1.76-.192-.076.494.019.003.019.002.038-.499Zm-1.92-.224-.054.497h.001l.053-.497Zm-1.728-.16-.053.497.026.003h.027v-.5Zm-4.544-.48-.064.496.013.001.051-.497Zm-3.904-.544.072-.495-.072.495Zm-4.704-.864-.123.485.009.002.114-.487ZM6.28 34.568l.165-.472-.165.472ZM1.224 28.36l.489.106.001-.007.001-.007-.491-.092Zm.384-1.056-.442-.234.442.234Zm.512-.896-.422-.268.422.268Zm.768-.896-.354-.354.354.354Zm.768-.736.32.384.018-.014.016-.016-.354-.354Zm.896-.8-.319-.386-.008.008.327.378Zm.832-.672.277.416.027-.018.024-.02-.328-.378ZM12.2 18.28l.264.424.004-.002-.268-.422Zm15.072-6.784.138.48.03-.008.029-.012-.197-.46Zm.928-.288.132.482.007-.002.007-.002-.146-.478Zm2.4-.672.121.485.01-.002.009-.003-.14-.48Zm1.312-.288-.055-.497h-.003l.058.497Zm1.312-.096.022.5h.01l.011-.002-.043-.498Zm1.28.064-.114.487.013.003.014.002.087-.492Zm1.088.32-.19.462.016.007.016.005.158-.474Zm.992.608-.354.354.007.006.007.006.34-.366Zm.736.992.47-.173-.01-.026-.013-.025-.447.224Zm-.128 2.368-.438-.241.438.241Zm-.768 1.152-.388-.315-.006.007-.006.008.4.3Zm-.96 1.056-.343-.363.343.363Zm-1.024.928.309.393.008-.006.008-.007-.325-.38Zm-.928.672-.277-.416-.01.006.287.41Zm-.672.064.207-.455-.207.455Zm-.416-.48-.497.05.002.024.005.024.49-.098Zm.256-.576-.285-.41-.025.016-.022.02.332.374Zm2.976-2.912.454.21.005-.011-.459-.199Zm.192-1.6-.474.158.002.007.472-.165Zm-.896-.896-.158.474.158-.474Zm-1.536-.32-.055.497.055-.497Zm-1.696.096.076.494.018-.003.018-.004-.112-.487ZM21.8 14.76l.19.463-.19-.463ZM4.232 26.056l.349.358-.349-.358Zm3.776 7.68-.155.475.155-.475Zm11.04 2.144-.06.496.006.001.054-.497Zm4.352.448.05-.498-.05.498Zm4.64.512-.063.496.009.001.054-.497Zm4.224.608-.083.493.006.001.077-.494Zm4.48.896-.123.485h.005l.118-.485Zm4.512 1.248-.173.47.208.076.196-.102-.231-.444Zm.352 1.664-.224.447.013.006.012.006.199-.459Zm-.192-.096-.224.447.224-.447Zm-.192-.096.224-.447-.232-.116-.228.122.236.441Zm-5.888 3.328-.256-.43-.006.004.262.426Zm-1.824 1.024-.24-.44-.011.008.251.432Zm-2.08 1.248-.268-.422.268.422Zm-1.792 1.184-.28-.414-.008.006.288.408Zm-1.856 1.536-.354-.354.354.354Zm-1.376 1.632-.409-.288-.007.01.416.278Zm-.832 1.504-.459-.2.459.2Zm-.448 1.504-.493-.082-.002.01-.001.01.496.062Zm.352 1.344-.395.307.005.007.006.006.384-.32Zm1.504.832.137-.48-.008-.003-.008-.002-.121.485Zm1.728-.032-.082-.493-.02.003-.02.005.122.485Zm.576-.096-.07-.495-.012.002.082.493Zm.64-.16-.137-.48-.01.002.147.478Zm.576-.192-.121-.485-.053.013-.05.025.224.447Zm.576-.192-.137-.48-.016.004-.015.005.168.471Zm.48-.128v.5h.08l.074-.024-.154-.476Zm6.24-3.328.278.415h.001l-.279-.415Zm6.432-6.72-.48-.14.48.14Zm10.72-11.442c.068-.029.092-.023.086-.023a.03.03 0 0 1-.007-.003c-.001 0 .004.002.015.014l.708-.708a1.01 1.01 0 0 0-.568-.292c-.219-.033-.43.01-.618.088l.384.924Zm.141.029a.178.178 0 0 1 .058.064c.004.009.011.029.007.072l.996.09a1.118 1.118 0 0 0-.447-1.016l-.614.79Zm.063.181c0 .017-.002.024-.002.025l.002-.004c.004-.006-.004.01-.059.036l.414.91a1.12 1.12 0 0 0 .469-.38c.123-.18.176-.383.176-.587h-1Zm-.034.046a135.837 135.837 0 0 0-12.558 5.653l.456.89a134.857 134.857 0 0 1 12.466-5.611l-.364-.932ZM42.57 40.712c2.118 1.049 3.032 2.292 3.05 3.686l1-.012c-.025-1.934-1.33-3.443-3.606-4.57l-.444.896Zm3.05 3.68c0 .65-.185 1.348-.582 2.103l.885.466c.456-.867.697-1.725.697-2.569h-1Zm-.587 2.112a8.81 8.81 0 0 1-1.454 2.09l.73.684a9.807 9.807 0 0 0 1.618-2.326l-.894-.448Zm-1.465 2.103a17.573 17.573 0 0 1-2.085 1.99l.634.773a18.58 18.58 0 0 0 2.203-2.105l-.752-.658Zm-2.096 2a23.32 23.32 0 0 1-2.16 1.691l.56.828a24.286 24.286 0 0 0 2.256-1.764l-.656-.756Zm-2.167 1.695c-.632.443-1.286.876-1.962 1.298l.53.848c.69-.431 1.358-.873 2.006-1.326l-.574-.82Zm-1.959 1.296c-4.73 2.906-8.432 3.923-11.174 3.268l-.232.972c3.146.753 7.146-.449 11.93-3.388l-.524-.852Zm-11.184 3.265c-.727-.157-1.22-.42-1.535-.751l-.726.688c.496.522 1.197.857 2.05 1.04l.21-.977Zm-1.535-.751a1.74 1.74 0 0 1-.503-1.178l-1 .037c.026.7.29 1.317.777 1.83l.726-.69Zm-.503-1.18a5.005 5.005 0 0 1 .205-1.57l-.962-.275a6.004 6.004 0 0 0-.243 1.884l1-.038Zm.198-1.55c.18-.54.443-1.118.793-1.735l-.87-.493c-.375.662-.667 1.3-.871 1.912l.948.316Zm.796-1.74c.328-.596.708-1.171 1.14-1.727l-.789-.614a14.195 14.195 0 0 0-1.227 1.857l.876.483Zm1.128-1.711c.45-.533.965-1.047 1.543-1.543l-.65-.76a14.658 14.658 0 0 0-1.657 1.657l.764.646Zm1.543-1.543a55.311 55.311 0 0 1 1.65-1.364l-.621-.784c-.518.41-1.078.873-1.68 1.388l.651.76Zm1.641-1.358a26.118 26.118 0 0 1 1.884-1.287l-.532-.846a27.1 27.1 0 0 0-1.956 1.337l.604.796Zm1.879-1.283 1.887-1.152-.52-.854-1.889 1.152.522.854Zm1.865-1.14a140.1 140.1 0 0 0 2.024-1.123l-.492-.872c-.83.47-1.5.841-2.008 1.116l.476.88Zm2.01-1.116a57.618 57.618 0 0 0 1.907-1.034l-.502-.866c-.395.23-1.017.567-1.87 1.014l.465.886Zm1.912-1.037a77.871 77.871 0 0 1 2.766-1.558l-.476-.88a79.174 79.174 0 0 0-2.802 1.578l.511.86Zm2.692-2.47a40.013 40.013 0 0 0-1.718-.551l-.284.958a38.9 38.9 0 0 1 1.674.538l.328-.946Zm-1.718-.551a29.542 29.542 0 0 0-1.888-.489l-.22.976c.652.147 1.26.304 1.824.471l.284-.958Zm-1.888-.489c-.662-.15-1.24-.278-1.732-.385l-.212.978c.489.106 1.063.234 1.724.383l.22-.976Zm-1.732-.385a25.87 25.87 0 0 0-1.959-.326l-.134.99c.783.106 1.408.21 1.88.314l.213-.978Zm-1.944-.324-1.728-.288-.164.986 1.728.288.164-.986Zm-1.728-.288a31.751 31.751 0 0 0-1.955-.229l-.094.996c.895.085 1.52.158 1.885.22l.164-.987Zm-1.943-.228a54.969 54.969 0 0 0-1.78-.194l-.077.998c.265.02.84.082 1.739.19l.118-.994Zm-1.743-.19c-.291-.044-.944-.12-1.943-.226l-.106.994c1.006.107 1.634.18 1.897.221l.152-.988Zm-1.942-.226c-.965-.105-1.577-.163-1.782-.163v1c.136 0 .676.049 1.674.157l.108-.994Zm-1.729-.16c-2.197-.235-3.713-.395-4.546-.48l-.102.994c.83.086 2.345.246 4.542.48l.106-.994Zm-4.533-.479c-.828-.106-2.126-.287-3.897-.543l-.143.99c1.771.256 3.076.438 3.912.545l.128-.992Zm-3.897-.543a55.32 55.32 0 0 1-4.66-.856l-.23.974a56.31 56.31 0 0 0 4.747.872l.143-.99Zm-4.652-.854a46.236 46.236 0 0 1-3.894-1.17l-.33.943c1.294.453 2.62.852 3.978 1.197l.246-.97Zm-3.894-1.171c-1.943-.679-3.258-1.503-4.017-2.436-.741-.91-.984-1.957-.715-3.194l-.978-.212c-.328 1.515-.027 2.878.917 4.038.926 1.136 2.438 2.04 4.463 2.748l.33-.944Zm-4.73-5.644c.054-.284.162-.588.335-.914l-.884-.468c-.211.4-.359.799-.433 1.198l.982.184Zm.335-.914c.188-.356.352-.642.492-.862l-.844-.536c-.159.25-.336.56-.532.93l.884.468Zm.492-.862c.12-.188.345-.456.7-.81l-.708-.708c-.37.371-.657.7-.836.982l.844.536Zm.7-.81c.387-.388.627-.616.734-.706l-.64-.768c-.149.124-.421.386-.802.766l.708.708Zm.768-.736c.112-.113.396-.367.869-.776l-.654-.756c-.465.402-.78.681-.923.824l.708.708Zm.86-.768a70.671 70.671 0 0 1 .734-.598c.044-.035.06-.045.057-.044l-.554-.832c-.092.061-.398.31-.873.702l.636.771Zm.842-.68a52.997 52.997 0 0 1 6.752-4.978l-.528-.848a54.002 54.002 0 0 0-6.88 5.07l.656.756Zm6.756-4.98a57.548 57.548 0 0 1 14.942-6.726l-.276-.96a58.55 58.55 0 0 0-15.202 6.842l.536.844Zm15.001-6.746c.112-.048.388-.136.863-.266l-.264-.964c-.463.126-.806.23-.993.31l.394.92Zm.877-.27c.489-.149.88-.265 1.175-.35l-.274-.96c-.303.086-.7.204-1.193.354l.292.956Zm1.175-.35c.291-.082.69-.188 1.2-.315l-.242-.97a40.6 40.6 0 0 0-1.232.324l.274.962Zm1.219-.32a7.784 7.784 0 0 1 1.23-.271l-.116-.994c-.4.047-.866.151-1.394.305l.28.96Zm1.227-.271c.37-.041.796-.072 1.279-.093l-.044-1c-.499.022-.948.055-1.345.1l.11.993Zm1.3-.095c.454-.04.825-.017 1.122.053l.23-.974c-.428-.1-.91-.121-1.438-.075l.086.996Zm1.15.058c.325.058.653.154.985.29l.38-.924a5.75 5.75 0 0 0-1.191-.35l-.174.984Zm1.017.302c.313.105.576.267.796.488l.708-.708a3 3 0 0 0-1.188-.728l-.316.948Zm.81.5c.252.235.462.516.629.85l.894-.448a3.935 3.935 0 0 0-.843-1.134l-.68.732Zm.607.799c.131.357.193.693.193 1.011h1c0-.45-.088-.903-.255-1.357l-.938.346Zm.193 1.011c0 .255-.083.566-.29.943l.876.482c.262-.476.414-.954.414-1.425h-1Zm-.29.943a7.228 7.228 0 0 1-.718 1.078l.776.63c.298-.367.57-.776.818-1.226l-.876-.482Zm-.73 1.093a7.946 7.946 0 0 1-.903.993l.686.727c.4-.378.74-.751 1.017-1.12l-.8-.6Zm-.903.993c-.38.358-.715.662-1.006.911l.65.76c.307-.263.654-.578 1.042-.944l-.686-.727Zm-.99.898c-.288.226-.587.443-.896.649l.554.832c.331-.22.65-.452.96-.695l-.618-.786Zm-.906.655a.19.19 0 0 1-.088.04.177.177 0 0 1-.09-.021l-.414.91c.398.181.81.14 1.166-.11l-.574-.819Zm-.178.019c-.12-.054-.128-.098-.133-.123l-.98.196c.08.401.349.678.7.837l.413-.91Zm-.125-.075c-.003-.02-.009-.064.09-.152l-.664-.748c-.285.254-.462.594-.421 1l.995-.1Zm.043-.115c1.608-1.115 2.7-2.15 3.145-3.114l-.908-.419c-.323.701-1.215 1.607-2.807 2.711l.57.822Zm3.15-3.124c.3-.695.413-1.369.205-1.964l-.944.33c.09.258.075.651-.179 1.236l.918.398Zm.207-1.957a1.845 1.845 0 0 0-1.212-1.212l-.316.948c.299.1.48.281.58.58l.948-.316Zm-1.212-1.212a7.974 7.974 0 0 0-1.639-.343l-.11.994a6.994 6.994 0 0 1 1.433.297l.316-.948Zm-1.639-.343a5.52 5.52 0 0 0-1.863.106l.224.974a4.525 4.525 0 0 1 1.529-.086l.11-.994Zm-1.827.099c-2.68.414-6.028 1.454-10.034 3.104l.38.924c3.973-1.635 7.238-2.643 9.806-3.04l-.152-.988ZM21.61 14.297c-6.965 2.86-12.877 6.658-17.728 11.401l.7.715C9.33 21.77 15.13 18.038 21.99 15.223l-.38-.926Zm-17.727 11.4c-1.697 1.654-2.415 3.331-1.636 4.916.37.753 1.053 1.413 1.983 1.998.932.587 2.144 1.118 3.623 1.6l.31-.95c-1.433-.468-2.562-.968-3.4-1.496-.842-.53-1.36-1.067-1.618-1.594-.48-.975-.174-2.189 1.436-3.757l-.698-.716Zm3.97 8.515c2.67.867 6.386 1.587 11.135 2.164l.12-.992c-4.723-.575-8.366-1.285-10.945-2.123l-.31.95Zm11.141 2.165c.983.107 2.436.256 4.356.448l.1-.995c-1.92-.191-3.369-.34-4.348-.447l-.108.994Zm4.356.448c1.918.192 3.46.362 4.627.511l.126-.992c-1.18-.15-2.731-.321-4.653-.514l-.1.995Zm4.636.512a73.97 73.97 0 0 1 4.195.604l.166-.986a74.925 74.925 0 0 0-4.253-.612l-.108.994Zm4.201.605c1.63.254 3.108.55 4.434.887l.246-.97a49.31 49.31 0 0 0-4.526-.905l-.154.988Zm4.44.888c2.198.534 3.676.944 4.456 1.231l.346-.938c-.841-.31-2.372-.732-4.567-1.265l-.236.972Zm4.86 1.206a143.85 143.85 0 0 1 13.457-6.123l-.368-.93a144.869 144.869 0 0 0-13.55 6.165l.46.888Zm.345.773-.192-.096-.448.894.192.096.448-.894Zm-.192-.096-.192-.096-.448.894.192.096.448-.894Zm-.652-.09a145.77 145.77 0 0 0-5.908 3.34l.513.858a144.708 144.708 0 0 1 5.867-3.316l-.472-.882Zm-5.914 3.343c-.264.163-.86.498-1.801 1.011l.478.878a51.96 51.96 0 0 0 1.847-1.037l-.524-.852Zm-1.813 1.018c-.92.534-1.62.954-2.097 1.258l.536.844c.461-.293 1.148-.705 2.063-1.238l-.502-.864Zm-2.097 1.258a79.7 79.7 0 0 0-1.804 1.192l.56.828c.723-.49 1.317-.881 1.78-1.176l-.536-.844Zm-1.812 1.198a14.717 14.717 0 0 0-1.922 1.59l.708.708a13.712 13.712 0 0 1 1.79-1.481l-.576-.817Zm-1.922 1.59A12.893 12.893 0 0 0 26 50.728l.817.576c.388-.552.828-1.074 1.32-1.566l-.707-.708Zm-1.438 1.709c-.355.533-.648 1.06-.875 1.582l.918.398c.2-.46.462-.935.789-1.426l-.832-.554Zm-.875 1.582a6.897 6.897 0 0 0-.482 1.62l.986.165c.079-.47.216-.932.414-1.387l-.918-.398Zm-.485 1.641c-.08.635.068 1.217.453 1.713l.79-.614c-.212-.273-.3-.586-.25-.975l-.993-.124Zm.464 1.726c.41.493 1.022.81 1.767.997l.242-.97c-.62-.155-1.012-.392-1.24-.667l-.77.64Zm1.75.993c.204.058.422.083.65.083v-1a1.37 1.37 0 0 1-.375-.045l-.274.962Zm.65.083H28.072v-1H27.496v1Zm.576 0c.227 0 .485-.042.761-.11l-.242-.971a2.258 2.258 0 0 1-.519.081v1Zm.722-.103.576-.096-.164-.986-.576.096.164.986Zm.565-.094c.189-.027.432-.09.716-.177l-.294-.956a4.12 4.12 0 0 1-.564.143l.142.99Zm.706-.174c.289-.083.528-.159.663-.226l-.448-.894-.01.004a8.718 8.718 0 0 1-.48.154l.275.962Zm.56-.188c.114-.028.331-.102.623-.206l-.336-.942c-.306.11-.473.164-.53.178l.243.97Zm.592-.196a21.117 21.117 0 0 1 .416-.114l.006-.002-.016.003c-.005 0-.03.004-.063.004v-1c-.056 0-.105.01-.108.01a22.105 22.105 0 0 0-.51.136l.275.963Zm.497-.133c1.708-.555 3.833-1.694 6.364-3.389l-.556-.83c-2.503 1.675-4.539 2.755-6.116 3.267l.308.952Zm6.365-3.39c1.874-1.26 3.37-2.466 4.474-3.62 1.102-1.152 1.84-2.276 2.16-3.375l-.961-.278c-.257.885-.88 1.873-1.921 2.961-1.04 1.086-2.472 2.247-4.31 3.483l.558.83Zm6.633-6.993c.29-.995.195-1.926-.331-2.747-.512-.8-1.396-1.438-2.574-1.949l-.398.918c1.084.47 1.767 1.005 2.13 1.57.35.546.434 1.171.213 1.927l.96.28ZM69.77 32.008l.425.264.007-.012.007-.013-.439-.239Zm.544-.288-.09.492.008.001.082-.493Zm.512.384-.464.186.012.03.015.027.437-.243Zm0 .64.425.264.017-.028.013-.03-.455-.206Zm-3.616 3.968.31.392.004-.003-.314-.389Zm-4.448 1.92v.5h.022l-.022-.5Zm-1.152-.16-.186.464.014.006.014.004.158-.474Zm-.768-.448-.354.354.01.01.012.01.332-.374Zm-.48-.768-.468.176.005.012.005.012.458-.2Zm-.288-.864-.492.09.004.02.006.022.482-.132Zm-.192-.992.49-.098-.276-1.38-.656 1.245.442.233Zm-4.512 4.384-.076.494.006.001.07-.495Zm-1.184-.992.463-.189-.003-.008-.46.197Zm-.32-2.112.5.026-.5-.026Zm.256-2.208.49.098.002-.01.002-.008-.494-.08Zm.352-1.696-.47-.17-.007.018-.005.02.482.132Zm.448-.384.05.497.02-.002.02-.003-.09-.492Zm.608.224-.374.332.01.011.01.01.354-.353Zm.16.64.48.141.002-.01.003-.01-.485-.121Zm-.448 3.872.49-.1v-.002l-.49.102Zm1.248.64.2.458.005-.002-.205-.456Zm2.976-4.512-.455-.207-.004.01.459.197Zm.576-.384-.036-.499h-.002l.038.499Zm.608.352.464-.186-.002-.006-.462.192Zm.192.736-.494.076.003.018.004.018.487-.112Zm.16.768-.492.09.002.008.49-.098Zm.128.736-.494.076.003.023.006.022.485-.121Zm.192.64-.468.176.01.024.01.024.448-.224Zm.32.544-.416.277.01.016.011.014.395-.307Zm.48.384.176-.468-.176.468Zm.672.16-.076.494.019.003.019.002.038-.499Zm.96-.16-.117-.486-.025.006-.024.008.166.472Zm3.296-1.888.332.374-.332-.374Zm3.159-2.897a.243.243 0 0 1 .032-.047c.005-.005.003-.003-.005.002a.076.076 0 0 1-.024.008l.013.002.178-.984a.969.969 0 0 0-.635.09c-.2.106-.34.273-.437.45l.878.48Zm.023-.034a.236.236 0 0 1 .102.035c.006.005.016.013.028.042l.928-.372c-.16-.399-.492-.624-.894-.691l-.164.986Zm.157.134c.016.028.036.071-.018.19l.91.414c.16-.35.18-.734-.018-1.09l-.874.486Zm.012.133c-.84 1.352-2.004 2.634-3.505 3.843l.628.778c1.571-1.266 2.817-2.63 3.727-4.093l-.85-.528ZM66.9 36.32c-1.484 1.174-2.868 1.755-4.16 1.813l.044.998c1.567-.07 3.148-.77 4.736-2.027l-.62-.784Zm-4.138 1.812c-.41 0-.739-.05-.994-.134l-.316.948c.385.129.825.186 1.31.186v-1Zm-.966-.124a2.115 2.115 0 0 1-.622-.358l-.664.748c.247.22.558.396.914.538l.372-.928Zm-.6-.338c-.11-.109-.24-.303-.376-.614l-.916.4c.162.371.352.69.584.922l.708-.708Zm-.366-.59a9.65 9.65 0 0 1-.274-.82l-.964.264c.07.255.17.558.302.908l.936-.352Zm-.264-.777a61.787 61.787 0 0 0-.194-1.001l-.98.196c.085.426.148.753.19.983l.984-.178Zm-1.126-1.136c-.811 1.538-1.57 2.629-2.266 3.306-.7.68-1.271.881-1.734.816l-.14.99c.902.127 1.767-.308 2.57-1.088.807-.784 1.623-1.981 2.454-3.558l-.884-.466Zm-3.994 4.123c-.36-.056-.62-.252-.797-.687l-.926.378c.292.717.821 1.182 1.571 1.297l.152-.988Zm-.8-.695c-.22-.512-.32-1.136-.28-1.889l-1-.052c-.045.868.068 1.652.36 2.335l.92-.394Zm-.28-1.89a14.89 14.89 0 0 1 .246-2.135l-.98-.196a15.85 15.85 0 0 0-.265 2.28l.998.052Zm.25-2.153c.104-.65.218-1.197.34-1.644l-.964-.264a17.1 17.1 0 0 0-.364 1.748l.988.16Zm.328-1.605c.02-.058.037-.069.031-.063a.043.043 0 0 1-.01.006c-.004.002-.003 0 .007 0l-.1-.995a.98.98 0 0 0-.547.23 1.132 1.132 0 0 0-.32.48l.939.342Zm.067-.063c.04-.007.057-.002.066.001a.21.21 0 0 1 .08.063l.747-.664c-.276-.31-.65-.46-1.071-.384l.178.984Zm.165.086c.028.027.034.045.037.055a.229.229 0 0 1-.008.11l.97.242c.102-.407.017-.806-.291-1.115l-.708.708Zm.034.145c-.497 1.686-.675 3.074-.457 4.115l.978-.204c-.166-.794-.046-1.987.439-3.629l-.96-.282Zm-.458 4.114c.088.424.28.84.686 1.048.404.207.855.123 1.252-.05l-.4-.917c-.285.125-.384.083-.396.077-.01-.005-.1-.059-.162-.36l-.98.202Zm1.943.995c.562-.253 1.089-.827 1.596-1.597.52-.786 1.063-1.848 1.634-3.173l-.918-.396c-.56 1.299-1.077 2.301-1.55 3.019-.485.734-.88 1.104-1.172 1.235l.41.912Zm3.226-4.761c.02-.043.037-.057.046-.063a.235.235 0 0 1 .113-.03l-.076-.996c-.207.015-.41.074-.591.194a1.13 1.13 0 0 0-.402.481l.91.414Zm.157-.092c.077-.006.096.01.09.006-.003-.002-.003-.003-.001 0a.159.159 0 0 1 .021.04l.923-.385a1.055 1.055 0 0 0-.442-.52 1.142 1.142 0 0 0-.663-.139l.072.998Zm.108.039c.068.171.124.378.162.626l.988-.152a3.852 3.852 0 0 0-.222-.846l-.928.372Zm.169.662c.062.271.114.52.155.745l.984-.178c-.044-.244-.1-.508-.165-.791l-.974.224Zm.157.754c.04.204.082.442.124.714l.988-.152a17.378 17.378 0 0 0-.132-.758l-.98.196Zm.133.76c.067.266.136.5.209.694l.936-.352a5.5 5.5 0 0 1-.175-.585l-.97.242Zm.23.742c.096.192.214.391.351.597l.832-.554a4.6 4.6 0 0 1-.289-.49l-.894.447Zm.372.627c.188.241.418.44.7.545l.35-.936c-.06-.023-.15-.08-.26-.223l-.79.614Zm.7.545c.215.08.476.14.771.186l.152-.988a2.99 2.99 0 0 1-.572-.134l-.352.936Zm.809.19c.367.029.76-.044 1.164-.186l-.332-.944c-.321.114-.569.148-.756.133l-.076.998Zm1.115-.172c1.17-.28 2.34-.962 3.51-2l-.663-.748c-1.091.968-2.118 1.545-3.08 1.776l.233.972Zm3.511-2c1.18-1.05 2.121-2.13 2.813-3.246l-.85-.527c-.63 1.017-1.503 2.026-2.627 3.025l.664.748Zm14.861-3.062.315.389.006-.005-.32-.384Zm.993.288-.475.158.017.052.029.047.428-.257Zm.063.352-.493-.082.493.082Zm-.224.352.31.392.01-.008-.32-.384Zm-5.184 1.728-.016.5.016-.5ZM72.9 33.128l.337-.37-.385-.35-.335.399.383.321Zm-1.951 3.296-.462-.192-.003.006.465.186Zm-1.184 3.968-.49-.1-.002.01-.002.008.493.082Zm-.385.512-.185-.464.185.464Zm-.608-.064.278-.416-.278.416Zm-.287-.608-.5-.015v.015h.5Zm1.696-10.016.481.133.004-.012-.486-.121Zm.447-.416-.045-.498.046.498Zm.609.256-.374.332.01.011.01.01.353-.353Zm.16.608.481.134v-.002l-.481-.132Zm-.928 3.808-.49-.101.928.342-.439-.241Zm1.983-2.752-.353-.354-.005.006.358.348Zm.449-.16-.063.496h.007l.056-.496Zm.447.224-.384.32.008.01.008.008.368-.338Zm4.32 2.112.038-.499-.037.499Zm4.897-1.056a.272.272 0 0 1 .064-.043c.008-.003.007-.001 0-.001v-1c-.277 0-.514.117-.705.276l.64.768Zm.064-.044c.047 0 .062.01.071.018l.625-.78a1.095 1.095 0 0 0-.697-.238v1Zm.071.018c.033.026.05.053.062.088l.949-.316a1.175 1.175 0 0 0-.386-.552l-.625.78Zm.108.187.001.003v-.003.001a.07.07 0 0 1-.002.012l.987.164c.04-.24 0-.478-.129-.691l-.857.514Zm0 .013c0-.007.003-.009-.001-.002a.251.251 0 0 1-.05.052l.64.768c.193-.16.35-.377.397-.654l-.987-.164Zm-.042.042c-1.445 1.144-3.058 1.68-4.857 1.62l-.033 1c2.04.068 3.884-.548 5.51-1.836l-.62-.784Zm-4.857 1.62c-1.777-.06-3.329-.695-4.672-1.918l-.673.74c1.515 1.38 3.292 2.11 5.312 2.178l.033-1Zm-5.392-1.869c-.805.962-1.48 2.105-2.03 3.425l.923.384c.517-1.24 1.143-2.294 1.874-3.167l-.767-.642Zm-2.033 3.431a23.478 23.478 0 0 0-1.21 4.054l.98.2c.272-1.337.658-2.63 1.159-3.882l-.929-.372ZM69.27 40.31a.236.236 0 0 1-.034.102c-.005.006-.014.016-.042.028l.371.928c.4-.16.625-.492.692-.894l-.987-.164Zm-.076.13c-.06.024-.09.021-.145-.016l-.555.832a1.12 1.12 0 0 0 1.071.112l-.371-.928Zm-.145-.016c-.024-.016-.066-.043-.066-.192h-1c0 .406.15.784.511 1.024l.555-.832Zm-.066-.177c.084-2.85.64-6.148 1.678-9.898l-.963-.266c-1.053 3.802-1.627 7.182-1.714 10.134l1 .03Zm1.682-9.91a.24.24 0 0 1 .018-.053c.004-.006.003-.004-.003.002a.069.069 0 0 1-.02.013c-.005.003-.002 0 .013-.001l-.09-.996a.97.97 0 0 0-.584.252 1.083 1.083 0 0 0-.305.54l.97.243Zm.008-.04c.06-.005.112.005.189.091l.747-.664c-.265-.298-.618-.46-1.027-.422l.09.996Zm.209.113c.032.032.037.05.038.053 0 .004.006.023-.007.07l.965.263c.11-.406.01-.795-.289-1.094l-.707.708Zm.032.12a58.336 58.336 0 0 0-.936 3.84l.98.203c.253-1.225.56-2.484.92-3.775l-.964-.268Zm-.008 4.183c.58-1.056 1.215-1.936 1.904-2.645l-.717-.696c-.762.784-1.449 1.74-2.064 2.86l.877.48Zm1.9-2.64a.13.13 0 0 1 .02-.017l.002-.001h-.003l.013.001.124-.992a1.015 1.015 0 0 0-.864.302l.707.708Zm.038-.016c.086.01.109.034.12.047l.768-.64a1.148 1.148 0 0 0-.777-.4l-.11.993Zm.135.065c1.258 1.372 2.816 2.135 4.651 2.273l.075-.998c-1.578-.118-2.9-.763-3.989-1.95l-.737.675Zm4.651 2.273c1.835.137 3.486-.383 4.928-1.55l-.63-.778c-1.245 1.01-2.645 1.449-4.223 1.33l-.075.998Zm5.048-2.803-.455-.207-.006.012-.004.012.465.183Zm.512-.384-.045-.498.045.498Zm.576.224-.376.33.01.012.012.012.354-.354Zm.128.64.465.185.005-.013.004-.014-.474-.158Zm-1.568 8.32h.5v-.008l-.5.008Zm-1.248.032.485-.121-.005-.019-.006-.018-.474.158Zm-.032-.192h.5v-.007l-.5.007Zm3.776-12.32.462-.19-.002-.007-.46.197Zm-.32.864-.253-.431h-.002l.255.431ZM82.23 30.12l.248.434.007-.004-.255-.43Zm-.48.032-.224.447.024.012.024.01.176-.469Zm-.352-.352.46-.197-.002-.003-.458.2Zm.32-.864-.255-.43-.008.005-.009.005.272.42Zm2.272-1.344-.248-.434-.007.004.255.43Zm.48 0-.224.447.024.012.024.01.176-.469Zm-1.337 4.207a.199.199 0 0 1 .053-.079c.003-.003.014-.01.05-.014l-.091-.996c-.433.04-.75.296-.922.675l.91.414Zm.102-.093c.083-.008.116.01.155.055l.752-.658a1.145 1.145 0 0 0-.997-.393l.09.996Zm.177.08a.118.118 0 0 1 .02.025.021.021 0 0 1 .004.007c0 .003.005.03-.016.096l.948.316c.064-.19.09-.398.048-.608a1.057 1.057 0 0 0-.296-.544l-.708.708Zm.017.1c-1.11 2.79-1.647 5.629-1.603 8.514l1-.016c-.042-2.747.468-5.455 1.533-8.127l-.93-.37Zm-1.603 8.506c0 .05-.006.074-.008.08-.001.003.003-.01.018-.026.016-.015.029-.02.026-.018a.279.279 0 0 1-.08.008v1c.258 0 .544-.065.762-.282.217-.218.282-.504.282-.762h-1Zm-.044.044c-.12 0-.162-.026-.17-.032-.003-.003-.028-.02-.049-.101l-.97.242c.065.26.2.5.43.667.228.165.495.224.759.224v-1Zm-.23-.17a.107.107 0 0 1-.006-.034h-1c0 .12.02.238.058.35l.948-.316Zm-.006-.041c-.042-2.81.489-5.626 1.597-8.45l-.93-.366c-1.153 2.936-1.71 5.88-1.667 8.83l1-.014Zm2.814-12.123c.02.05.026.083.027.1a.053.053 0 0 1-.002.024c0 .002-.018.05-.136.119l.507.862c.244-.144.46-.347.567-.633.108-.292.07-.588-.039-.852l-.924.38Zm-.113.244-2.272 1.344.51.86 2.272-1.344-.51-.86Zm-2.265 1.34a.073.073 0 0 1-.014.006.01.01 0 0 1-.003.001h-.01a.164.164 0 0 1-.03-.01l-.35.937c.3.113.616.098.903-.066l-.496-.868Zm-.008.019c-.085-.042-.107-.08-.116-.102l-.92.394c.119.276.331.474.588.602l.448-.894Zm-.118-.105a.246.246 0 0 1-.023-.08c0-.01 0-.014.002-.018.003-.01.028-.064.155-.146l-.544-.84c-.236.153-.445.36-.549.638-.107.29-.072.584.043.846l.916-.4Zm.117-.234 2.272-1.344-.51-.86-2.272 1.344.51.86Zm2.265-1.34c.004-.002.003-.001-.001 0a.061.061 0 0 1-.015.002h-.003c.004.001.013.004.027.011l.448-.894a.98.98 0 0 0-.952.013l.496.868Zm.056.034c.06.023.065.04.068.049l.92-.394a1.083 1.083 0 0 0-.636-.591l-.352.936Zm22.677 4.268-.373-.332-.009.01-.008.009.39.313Zm.608-.224-.089.492.007.001.082-.493Zm.512.384-.464.186.012.03.015.027.437-.243Zm-.064.608.389.314.011-.013.01-.014-.41-.287Zm-1.888 2.048.348.359-.348-.359Zm-2.56 2.112.286.41.006-.004-.292-.406Zm-2.88 1.632.19.463.008-.004-.198-.459Zm-2.88.448-.054.497.01.001.044-.498Zm-2.528-1.28-.371.335.007.008.364-.343Zm-1.568-1.888-.396.305.005.006.391-.311Zm-1.408-1.76.377-.33-.011-.012-.012-.012-.354.354Zm-.544-.448-.3.4.017.013.018.011.265-.424Zm-.448-.256.158-.474-.158.474Zm-.416.032-.197-.46.197.46Zm-.384.192.224.447.017-.008.017-.01-.258-.429Zm-.672.736-.428-.257.428.257Zm-.352.544.405.294.006-.008.005-.009-.416-.277Zm-.352.48-.4-.3-.013.017-.01.018.423.265Zm-.864 1.632-.445-.228-.002.004.447.224Zm-1.408 2.304-.397-.304-.001.002.398.302Zm-1.344 1.024-.074-.495-.008.002.082.493Zm-.608-.224-.41.287.008.01.008.01.394-.307Zm-.32-.672.483-.132-.004-.013-.004-.013-.475.158Zm-.096-.896.5.031v-.002l-.5-.029Zm.064-.832.497.055-.497-.055Zm.16-.928.49.098-.49-.098Zm.16-.736.475.158.013-.04.006-.04-.494-.078Zm.736-3.456.486.118v-.002l-.486-.116Zm.64-2.72-.482-.132-.004.014-.003.013.49.105Zm1.088-.416-.277.416.277-.416Zm.192.576-.485-.121-.002.01.487.111Zm-.544 2.336.486.117.001-.002-.487-.115Zm-.576 2.464-.488-.108-.002.008.49.1Zm-.48 2.624-.496-.065-.004.032v.033h.5Zm0 .288h-.5l.941.235-.44-.235Zm.64-1.024-.397-.304-.006.008-.005.008.408.288Zm.864-1.152-.402-.297.402.297Zm.64-.928-.4-.3-.015.02-.014.023.43.257Zm.256-.384-.4-.3-.013.017-.01.018.423.265Zm.32-.448.416.277-.416-.277Zm.288-.416-.4-.3-.007.01.407.29Zm.352-.448.384.32-.384-.32Zm.352-.384.354.354-.354-.354Zm.384-.352-.29-.407-.016.011-.014.012.32.384Zm.416-.256-.121-.485-.053.013-.05.025.224.447Zm1.728.16-.27.42.27-.42Zm.768.608-.353.354.008.008.009.008.336-.37Zm.736.8-.39.312.006.008.006.008.378-.328Zm.672.896-.426.262.013.02.013.018.4-.3Zm.576.832-.42.27.006.01.007.01.407-.29Zm.544.704.388-.316-.006-.007-.005-.006-.377.329Zm2.016 1.632-.137.48.008.003.008.002.121-.485Zm2.56-.384.172.47h.001l-.173-.47Zm7.286-4.852a.21.21 0 0 1 .079-.063c.009-.003.027-.008.066-.001l.179-.984c-.422-.077-.796.074-1.071.384l.747.664Zm.152-.063a.235.235 0 0 1 .102.035c.007.005.017.013.028.042l.928-.372c-.159-.399-.492-.624-.894-.691l-.164.986Zm.157.134.005.009-.001-.008c0-.004-.001.021-.04.077l.819.574c.11-.158.194-.34.216-.547a.995.995 0 0 0-.125-.59l-.874.485Zm-.016.051a22.509 22.509 0 0 1-1.847 2.003l.696.718a23.387 23.387 0 0 0 1.929-2.093l-.778-.628Zm-1.847 2.003a22.045 22.045 0 0 1-2.503 2.065l.583.812a23.071 23.071 0 0 0 2.616-2.16l-.696-.717Zm-2.497 2.06c-.959.667-1.89 1.194-2.793 1.584l.396.918c.974-.42 1.964-.982 2.968-1.68l-.571-.822Zm-2.784 1.58a5.61 5.61 0 0 1-2.647.413l-.087.996a6.61 6.61 0 0 0 3.113-.483l-.379-.926Zm-2.637.414c-.858-.093-1.592-.462-2.218-1.126l-.728.686c.783.83 1.734 1.314 2.838 1.434l.108-.994Zm-2.21-1.117a42.537 42.537 0 0 1-1.548-1.865l-.783.622a43.543 43.543 0 0 0 1.588 1.912l.743-.67Zm-1.543-1.859a41.157 41.157 0 0 0-1.428-1.784l-.753.658c.287.329.748.904 1.388 1.736l.793-.61Zm-1.451-1.809c-.21-.21-.421-.386-.633-.518l-.53.848c.13.081.282.204.456.378l.707-.708Zm-.598-.494a2.148 2.148 0 0 0-.59-.33l-.316.948c.056.02.157.07.306.182l.6-.8Zm-.59-.33a1.07 1.07 0 0 0-.77.046l.393.92a.192.192 0 0 1 .058-.017h.004s-.001 0 0 0l.315-.95Zm-.77.046c-.165.07-.314.145-.445.223l.514.858c.083-.05.19-.104.324-.161l-.394-.92Zm-.411.205c-.182.09-.356.267-.505.438l.752.658c.068-.076.12-.13.16-.167.045-.04.056-.043.04-.035l-.447-.894Zm-.505.438a3.612 3.612 0 0 0-.373.488l.858.514c.041-.068.125-.18.267-.344l-.752-.658Zm-.373.488c-.057.095-.168.268-.339.524l.832.554c.17-.255.294-.446.365-.564l-.858-.514Zm-.327.507c-.171.235-.286.392-.348.474l.8.6c.067-.089.186-.252.357-.486l-.81-.588Zm-.372.509c-.12.194-.42.762-.885 1.67l.89.455c.475-.928.75-1.447.843-1.595l-.848-.53Zm-.887 1.673c-.437.875-.89 1.614-1.358 2.224l.794.608c.514-.67 1-1.466 1.459-2.384l-.895-.448Zm-1.36 2.226c-.447.59-.792.797-1.019.831l.148.99c.627-.095 1.178-.57 1.669-1.217l-.797-.604Zm-1.027.833c-.06.01-.084.002-.089 0-.003-.001-.017-.006-.042-.038l-.79.614c.125.16.287.289.486.362.198.073.403.08.6.048l-.165-.986Zm-.116-.018a1.66 1.66 0 0 1-.247-.517l-.965.264c.08.294.213.57.393.827l.819-.574Zm-.255-.543a1.87 1.87 0 0 1-.072-.707l-.998-.062c-.024.389.01.754.12 1.085l.95-.316Zm-.072-.709c.022-.36.042-.627.062-.806l-.994-.11c-.022.205-.044.492-.066.858l.998.058Zm.062-.806c.019-.169.068-.46.154-.885l-.981-.196c-.086.428-.143.756-.167.97l.994.111Zm.154-.885a32.785 32.785 0 0 1 .133-.635c.01-.038.013-.047.01-.04l-.948-.317c-.034.102-.095.39-.176.796l.98.196Zm.163-.756c.125-.79.366-1.927.728-3.416l-.972-.236c-.363 1.497-.612 2.665-.744 3.496l.988.156Zm.728-3.418c.362-1.511.578-2.425.643-2.731l-.978-.21c-.062.291-.274 1.19-.637 2.709l.972.232Zm.637-2.704c.02-.073.05-.11.136-.142l-.342-.94c-.382.14-.651.422-.76.818l.966.264Zm.136-.142c.1-.036.144-.022.192.01l.555-.832a1.176 1.176 0 0 0-1.089-.118l.342.94Zm.192.01c.01.007.01.01.007.004a.074.074 0 0 1-.012-.022c-.006-.018.005-.007-.01.057l.97.242c.047-.192.058-.405-.011-.615a.962.962 0 0 0-.39-.498l-.554.832Zm-.018.05c-.106.466-.288 1.243-.544 2.331l.974.23c.256-1.089.438-1.869.545-2.34l-.975-.222Zm-.543 2.33a161.436 161.436 0 0 0-.578 2.471l.976.218c.127-.572.319-1.39.574-2.456l-.972-.234Zm-.58 2.48c-.255 1.258-.419 2.149-.486 2.66l.992.129c.061-.471.218-1.33.474-2.59l-.98-.199Zm-.49 2.724V38.057h1V37.767h-1Zm.941.523c.16-.298.361-.621.608-.97l-.817-.577c-.266.376-.49.735-.673 1.077l.882.47Zm.596-.955c.28-.365.57-.752.87-1.16l-.805-.593c-.297.404-.584.785-.859 1.145l.794.608Zm.87-1.16c.3-.407.525-.732.666-.967l-.858-.514c-.115.192-.317.486-.613.888l.805.594Zm.637-.924c.077-.102.171-.245.28-.419l-.848-.53a5.42 5.42 0 0 1-.232.349l.8.6Zm.256-.384c.132-.175.244-.333.336-.47l-.832-.555c-.078.118-.18.26-.304.425l.8.6Zm.336-.47c.082-.123.175-.258.28-.403l-.815-.582c-.109.153-.208.296-.297.43l.832.554Zm.272-.394c.124-.166.236-.308.336-.428l-.768-.64c-.113.136-.236.292-.368.468l.8.6Zm.336-.428c.097-.115.204-.232.322-.35l-.707-.708a6.285 6.285 0 0 0-.383.418l.768.64Zm.322-.35c.118-.119.235-.226.35-.322l-.64-.768c-.14.117-.28.245-.417.382l.707.708Zm.32-.3c.135-.095.25-.165.35-.215l-.447-.894a3.654 3.654 0 0 0-.483.296l.58.814Zm.248-.177a3.27 3.27 0 0 1 .774-.113v-1c-.309 0-.65.051-1.017.143l.243.97Zm.774-.113c.13 0 .314.05.562.209l.54-.842c-.349-.224-.72-.367-1.102-.367v1Zm.562.209c.274.176.5.356.685.54l.707-.707a5.095 5.095 0 0 0-.851-.675l-.541.842Zm.702.557c.21.191.438.437.682.742l.78-.624a7.449 7.449 0 0 0-.79-.858l-.672.74Zm.694.758c.265.305.471.581.624.83l.852-.524a7.483 7.483 0 0 0-.72-.962l-.756.656Zm.65.868c.184.245.37.513.556.802l.84-.54a14.568 14.568 0 0 0-.596-.862l-.8.6Zm.57.823c.217.305.41.554.574.742l.752-.658a8.95 8.95 0 0 1-.513-.666l-.814.582Zm.563.729c.761.935 1.515 1.582 2.266 1.797l.275-.962c-.444-.127-1.034-.568-1.766-1.467l-.775.632Zm2.282 1.801c.75.187 1.722.014 2.853-.4l-.343-.939c-1.089.398-1.822.48-2.267.369l-.243.97Zm2.854-.4c2.7-.996 5.076-2.784 7.129-5.34l-.78-.626c-1.957 2.436-4.19 4.104-6.695 5.028l.346.938Zm14.865-17.269-.496-.066v.006l.496.06Zm-.576 5.024.497.051-.497-.051Zm-.416 9.888-.5.022.001.008.499-.03Zm.512 4.672-.495.074.001.006.494-.08Zm1.184 4.8.474-.158-.001-.004-.473.162Zm-.128.64-.354-.354-.022.023-.019.024.395.307Zm-.576.256.045-.498-.022-.002h-.023v.5Zm-.48-.384.474-.158-.001-.005-.473.163Zm-1.728-14.848.5.022-.973-.183.473.161Zm-4.96 8.64-.362-.345-.006.006-.005.006.373.333Zm-1.248.992-.239-.439-.009.005.248.434Zm-1.312.512.098.49-.098-.49Zm-1.088-.352-.366.341.366-.341Zm-.48-1.536-.5.008v.007l.5-.015Zm1.44-4.288.416.277.005-.007-.421-.27Zm3.36-2.944-.158-.474-.007.002-.007.003.172.469Zm.832.352.457-.203-.005-.01-.452.213Zm-.288.832.169.47.022-.007.022-.01-.213-.453Zm-3.392 3.712.459.2.001-.005-.46-.195Zm-.32 2.656-.146.478.021.007.02.004.105-.489Zm1.568-.832.319.385.002-.002-.321-.383Zm4.192-7.232.472.164.001-.002-.473-.162Zm3.392-17.472.498.05v-.008l-.498-.042Zm.352-.512-.171-.47-.007.003-.008.003.186.464Zm.64.064-.277.416.01.007.01.006.257-.429Zm.288.576.498.05v-.008l-.498-.042Zm-.224 2.24.497.055.001-.005-.498-.05Zm-1.04 4.484a291.247 291.247 0 0 0-.577 5.032l.994.103c.128-1.233.32-2.904.575-5.015l-.992-.12Zm-.577 5.032c-.13 1.25-.247 2.858-.354 4.825l.998.054c.107-1.958.224-3.55.35-4.776l-.994-.102Zm-.354 4.825c-.108 1.973-.129 3.687-.065 5.137l.999-.044c-.063-1.408-.042-3.087.064-5.039l-.998-.054Zm-.064 5.145c.086 1.426.259 2.998.517 4.716l.988-.148a53.089 53.089 0 0 1-.507-4.628l-.998.06Zm.517 4.722a29.8 29.8 0 0 0 1.205 4.882l.946-.324a28.726 28.726 0 0 1-1.163-4.718l-.988.16Zm1.204 4.878c.021.065.016.093.016.096l-.003.007a.132.132 0 0 1-.021.025l.708.708c.147-.148.254-.33.296-.544.042-.21.016-.417-.048-.608l-.948.316Zm-.049.175a.175.175 0 0 1-.064.058.14.14 0 0 1-.072.007l-.09.996c.411.037.766-.126 1.016-.447l-.79-.614Zm-.181.063c-.013 0-.014-.002-.008 0a.066.066 0 0 1 .024.014c.016.012 0 .009-.022-.056l-.948.316c.063.191.17.38.346.52a.955.955 0 0 0 .608.206v-1Zm-.007-.047c-1.382-3.998-1.956-8.881-1.701-14.663l-1-.044c-.257 5.866.321 10.882 1.755 15.033l.946-.326Zm-2.674-14.846c-1.198 3.51-2.819 6.322-4.849 8.456l.724.69c2.151-2.261 3.837-5.209 5.071-8.823l-.946-.323Zm-4.86 8.468a4.154 4.154 0 0 1-1.114.886l.478.878c.521-.284.982-.65 1.382-1.098l-.746-.666Zm-1.123.89a3.9 3.9 0 0 1-1.162.457l.196.98c.488-.097.976-.29 1.462-.568l-.496-.868Zm-1.162.457a.607.607 0 0 1-.624-.203l-.732.682c.417.446.954.62 1.552.501l-.196-.98Zm-.624-.203c-.179-.191-.326-.558-.346-1.21l-1 .03c.023.756.195 1.413.614 1.862l.732-.682Zm-.346-1.203c-.019-1.26.415-2.592 1.356-4.003l-.832-.554c-1.022 1.533-1.547 3.06-1.524 4.573l1-.016Zm1.361-4.01c.919-1.43 1.961-2.323 3.111-2.745l-.344-.938c-1.41.516-2.608 1.585-3.609 3.143l.842.54Zm3.097-2.74a.408.408 0 0 1 .138-.023c.004 0 .005.001.005.002l.004.002a.39.39 0 0 1 .075.11l.904-.426c-.12-.255-.308-.487-.593-.607s-.582-.095-.849-.006l.316.948Zm.217.081c.056.126.032.154.041.13.003-.011.008-.014.001-.007a.334.334 0 0 1-.086.054l.426.904c.257-.12.497-.317.603-.624.105-.302.044-.605-.071-.863l-.914.406Zm0 .158c-1.607.576-2.819 1.95-3.683 3.988l.92.39c.8-1.887 1.849-2.988 3.101-3.436l-.338-.942Zm-3.682 3.984c-.356.82-.583 1.502-.645 2.02-.031.256-.028.523.059.759a.885.885 0 0 0 .579.554l.292-.956a.129.129 0 0 1 .047.03c.018.017.022.03.02.024-.009-.022-.027-.106-.005-.292.045-.368.223-.94.571-1.74l-.918-.4Zm.034 3.344c.332.071.674-.058.955-.207.305-.162.652-.41 1.037-.729l-.638-.77c-.361.3-.649.5-.867.615-.242.128-.31.106-.277.113l-.21.978Zm1.994-.938c1.684-1.41 3.118-3.925 4.343-7.45l-.944-.33c-1.207 3.473-2.567 5.779-4.041 7.014l.642.766Zm4.344-7.453c1.553-4.53 2.689-10.395 3.416-17.584l-.994-.1c-.724 7.147-1.849 12.93-3.368 17.36l.946.324Zm3.417-17.593a.288.288 0 0 1 .012-.063l.004-.011.002-.004c-.001.001-.001 0 0 0a.082.082 0 0 1 .022-.01l-.372-.93a1.03 1.03 0 0 0-.474.374 1.141 1.141 0 0 0-.19.562l.996.082Zm.025-.083c.099-.036.144-.022.192.01l.554-.832a1.175 1.175 0 0 0-1.088-.118l.342.94Zm.212.023c.02.012.031.021.036.026l.006.009.004.014c.002.01.003.028.001.056l.996.084a1.114 1.114 0 0 0-.107-.602 1.086 1.086 0 0 0-.422-.445l-.514.858Zm.047.097-.224 2.24.996.1.224-2.24-.996-.1Zm-.223 2.235a201.509 201.509 0 0 1-.543 4.533l.992.132c.171-1.285.353-2.803.545-4.555l-.994-.11Zm14.285 16.119-.354-.354-.005.006.359.348Zm.608-.128-.224.447.019.01.019.007.186-.464Zm.384.48-.492.09.005.027.008.027.479-.144Zm-.16.64.358.35.017-.018.015-.02-.39-.312Zm-11.392 5.6.116-.486-.006-.002-.11.488Zm-2.56-1.472-.396.305.004.006.392-.311Zm-.672-2.464.495.07.001-.012-.496-.058Zm1.248-2.624-.366-.34-.006.005-.005.006.377.329Zm2.24-1.504-.188-.463-.005.002.193.461Zm2.016 1.024-.5-.009v.009h.5Zm0 .064.5.013v-.013h-.5Zm-1.504 2.368-.303-.398.303.398Zm-2.656.736.154-.476-.597-.193-.055.625.498.044Zm1.216 2.144.232-.443-.232.443Zm2.944.416.088.492h.002l-.09-.492Zm4.224-1.76.283.412.002-.001-.285-.411Zm-6.08-3.712v-.5h-.018l-.018.001.036.499Zm-.992.544-.343-.364-.005.005-.006.005.354.354Zm-.896 1.12-.423-.267-.301.476.509.242.215-.451Zm1.632-.768.375.33.002-.002-.377-.328Zm.352-.896.243-.437-.114-.063h-.129v.5Zm10.401.546c.049-.049.065-.045.046-.04a.075.075 0 0 1-.025 0c-.006 0-.003-.001.01.005l.447-.894a.965.965 0 0 0-.638-.09 1.098 1.098 0 0 0-.547.311l.707.708Zm.069-.018c.036.015.048.028.051.032.005.006.018.024.027.073l.984-.178a1.097 1.097 0 0 0-.691-.855l-.371.928Zm.091.16c.006.02.023.066-.072.184l.781.624c.247-.308.371-.689.249-1.096l-.958.288Zm-.039.147c-4.38 4.486-7.999 6.163-10.918 5.463l-.233.972c3.482.836 7.457-1.22 11.867-5.737l-.716-.698Zm-10.924 5.461c-1.048-.237-1.79-.68-2.279-1.295l-.783.622c.663.835 1.628 1.374 2.841 1.649l.221-.976Zm-2.274-1.29c-.498-.644-.681-1.331-.573-2.087l-.99-.142c-.148 1.036.116 1.992.771 2.84l.792-.61Zm-.572-2.1c.093-.799.456-1.582 1.129-2.353l-.754-.658c-.779.893-1.247 1.86-1.368 2.895l.993.116Zm1.118-2.341c.519-.559 1.204-1.022 2.067-1.384l-.386-.922c-.972.406-1.781.945-2.413 1.624l.732.682Zm2.062-1.382c.663-.27.986-.242 1.113-.177.073.037.224.17.215.73l1 .017c.011-.678-.163-1.334-.762-1.639-.545-.277-1.24-.142-1.942.143l.376.926Zm1.328.561V31.849h1V31.783h-1Zm0 .051c-.016.619-.387 1.283-1.307 1.983l.606.796c1.042-.793 1.674-1.708 1.701-2.753l-1-.026Zm-1.307 1.983c-.918.698-1.631.843-2.199.658l-.309.952c1.011.328 2.069-.02 3.114-.814l-.606-.796Zm-2.851 1.09c-.05.563.042 1.087.303 1.547.26.458.665.815 1.179 1.084l.464-.886c-.383-.2-.628-.435-.773-.692-.145-.254-.212-.568-.177-.965l-.996-.088Zm1.482 2.63c1.001.526 2.097.676 3.264.466l-.177-.984c-.965.174-1.833.047-2.623-.367l-.464.886Zm3.266.466a11.306 11.306 0 0 0 4.417-1.84l-.567-.824a10.312 10.312 0 0 1-4.03 1.68l.18.984Zm4.419-1.841c1.354-.94 2.733-2.135 4.138-3.583l-.718-.696c-1.369 1.411-2.7 2.562-3.99 3.457l.57.822Zm-6.401-4.622c-.468.034-.904.307-1.299.679l.685.728c.33-.31.556-.4.685-.41l-.071-.997Zm-1.31.69c-.367.367-.689.77-.965 1.206l.845.534a6.01 6.01 0 0 1 .827-1.033l-.707-.708Zm-.757 1.924c.388.185.796.146 1.172-.03.36-.17.709-.472 1.05-.858l-.75-.662c-.299.34-.542.528-.726.615-.168.079-.256.061-.316.033l-.43.902Zm2.224-.89c.221-.254.405-.505.496-.738a.838.838 0 0 0 .056-.462.661.661 0 0 0-.334-.462l-.486.874a.311.311 0 0 1-.101-.09.33.33 0 0 1-.062-.14c-.015-.08.009-.118-.004-.086-.025.066-.113.21-.32.447l.755.656Zm-.025-1.725H119.285v1H119.381v-1Zm22.894.916.314.389.006-.005-.32-.384Zm.992.288-.475.158.018.052.028.047.429-.257Zm.064.352-.493-.082.493.082Zm-.224.352.31.392.01-.008-.32-.384Zm-5.184 1.728-.017.5.017-.5Zm-4.992-2.048.336-.37-.385-.35-.335.399.384.321Zm-1.952 3.296-.462-.192-.002.006.464.186Zm-1.184 3.968-.49-.1-.002.01-.001.008.493.082Zm-.384.512-.186-.464.186.464Zm-.608-.064.277-.416-.277.416Zm-.288-.608-.5-.015v.015h.5Zm1.696-10.016.482.133.003-.012-.485-.121Zm.448-.416-.046-.498.046.498Zm.608.256-.374.332.01.011.01.01.354-.353Zm.16.608.481.134.001-.002-.482-.132Zm-.928 3.808-.49-.101.928.342-.438-.241Zm1.984-2.752-.354-.354-.005.006.359.348Zm.448-.16-.062.496h.007l.055-.496Zm.448.224-.384.32.007.01.008.008.369-.338Zm4.32 2.112.037-.499-.037.499Zm4.896-1.056a.283.283 0 0 1 .064-.043c.008-.003.007-.001 0-.001v-1c-.277 0-.514.117-.704.276l.64.768Zm.064-.044c.047 0 .062.01.071.018l.625-.78a1.096 1.096 0 0 0-.696-.238v1Zm.071.018a.169.169 0 0 1 .062.088l.949-.316a1.171 1.171 0 0 0-.386-.552l-.625.78Zm.108.187.002.003-.001-.003v.001l-.001.012.986.164c.04-.24-.001-.478-.129-.691l-.857.514Zm0 .013c.001-.007.003-.009-.001-.002a.249.249 0 0 1-.05.052l.64.768c.193-.16.351-.377.397-.654l-.986-.164Zm-.042.042c-1.445 1.144-3.057 1.68-4.857 1.62l-.033 1c2.041.068 3.884-.548 5.511-1.836l-.621-.784Zm-4.856 1.62c-1.778-.06-3.329-.695-4.673-1.918l-.673.74c1.516 1.38 3.292 2.11 5.312 2.178l.034-1Zm-5.393-1.869c-.805.962-1.48 2.105-2.03 3.425l.923.384c.517-1.24 1.143-2.294 1.874-3.167l-.767-.642Zm-2.032 3.431a23.391 23.391 0 0 0-1.21 4.054l.98.2c.271-1.337.657-2.63 1.158-3.882l-.928-.372Zm-1.213 4.072a.244.244 0 0 1-.035.102c-.005.006-.014.016-.042.028l.371.928c.4-.16.625-.492.692-.894l-.986-.164Zm-.077.13c-.06.024-.089.021-.145-.016l-.555.832a1.12 1.12 0 0 0 1.071.112l-.371-.928Zm-.145-.016c-.023-.016-.065-.043-.065-.192h-1c0 .406.15.784.51 1.024l.555-.832Zm-.065-.177c.083-2.85.64-6.148 1.678-9.898l-.964-.266c-1.053 3.802-1.627 7.182-1.714 10.134l1 .03Zm1.681-9.91a.192.192 0 0 1 .019-.053c.003-.006.002-.004-.004.002a.078.078 0 0 1-.02.013c-.005.003-.002 0 .013-.001l-.091-.996a.97.97 0 0 0-.582.252 1.078 1.078 0 0 0-.305.54l.97.243Zm.008-.04c.061-.005.113.005.189.091l.747-.664c-.265-.298-.618-.46-1.027-.422l.091.996Zm.209.113c.033.032.037.05.038.053.001.004.006.023-.007.07l.965.263c.111-.406.01-.795-.289-1.094l-.707.708Zm.032.12a59.042 59.042 0 0 0-.936 3.84l.979.203c.254-1.225.561-2.484.92-3.775l-.963-.268Zm-.008 4.183c.58-1.056 1.216-1.936 1.904-2.645l-.717-.696c-.762.784-1.449 1.74-2.064 2.86l.877.48Zm1.899-2.64c.01-.01.017-.014.02-.017l.003-.001h-.002l.012.001.124-.992a1.016 1.016 0 0 0-.864.302l.707.708Zm.04-.016c.085.01.108.034.119.047l.768-.64a1.15 1.15 0 0 0-.777-.4l-.11.993Zm.134.065c1.258 1.372 2.816 2.135 4.651 2.273l.075-.998c-1.578-.118-2.9-.763-3.989-1.95l-.737.675Zm4.651 2.273c1.836.137 3.486-.383 4.928-1.55l-.629-.778c-1.246 1.01-2.646 1.449-4.224 1.33l-.075.998Zm7.532 5.869.46-.197-.004-.008-.003-.008-.453.213Zm0 .512.468.176.004-.01.003-.008-.475-.158Zm-.352.352.158.474.009-.003.009-.003-.176-.468Zm-.896.288-.15-.477-.012.004-.011.004.173.469Zm-.832-.32.463-.19-.013-.03-.016-.028-.434.248Zm-.032-.48.468.176.004-.01.003-.008-.475-.158Zm.352-.384-.158-.474-.009.003-.008.003.175.468Zm.896-.288.151.477.011-.004.011-.004-.173-.469Zm.405.517c.004.011.02.051-.015.157l.949.316c.092-.278.108-.58-.015-.867l-.919.394Zm-.009.14c-.009.025-.018.034-.021.037-.004.004-.013.012-.038.022l.351.936c.306-.114.53-.339.644-.644l-.936-.352Zm-.042.053c-.188.062-.483.157-.888.285l.301.954c.406-.128.707-.225.903-.29l-.316-.95Zm-.911.293c-.139.051-.176.028-.159.034.008.003.011.008.006.003a.283.283 0 0 1-.043-.078l-.925.38c.109.266.298.512.603.629.294.113.598.068.864-.03l-.346-.938Zm-.225-.1a.05.05 0 0 1-.006-.013l-.001-.003.001-.01a.183.183 0 0 1 .008-.03l-.936-.35c-.113.3-.098.616.066.903l.868-.496Zm.009-.073a.16.16 0 0 1 .03-.06c.003-.003.007-.008.023-.014l-.351-.936a1.078 1.078 0 0 0-.651.694l.949.316Zm.035-.068c.188-.062.484-.157.889-.285l-.301-.954c-.406.128-.708.225-.904.29l.316.95Zm.911-.293a.503.503 0 0 1 .167-.033h.007v.001l.01.008c.01.011.031.037.055.088l.905-.426c-.124-.262-.322-.496-.623-.608-.294-.109-.597-.067-.867.032l.346.938Zm68.402-38.069-.082-.493-.013.002.095.491Zm.576.224-.416.277.01.016.011.014.395-.307Zm.096.64-.47-.17-.007.019-.006.02.483.131Zm-.48.416-.082-.493-.012.002.094.491Zm-16.576 3.2.094.491h.001l-.095-.491Zm-16.512 3.168-.094-.491-.374.072-.031.379.499.04Zm-.864 45.184h.5v-.014l-.5.014Zm-.32.576-.258-.429-.025.016-.024.018.307.395Zm-.608.128-.144.479.144-.479Zm-.352-.512.498-.038-.001-.01-.497.048Zm-.576-5.472.496-.058-.496.058Zm-.8-5.312-.494.081.001.005.493-.086Zm-1.184-5.472-.483.129.002.008.481-.137Zm-1.728-5.056-.463.19.463-.19Zm-2.496-4.896.423-.266-.002-.003-.421.269Zm-2.24-2.976-.375.331.375-.331Zm-2.528-2.464-.324.381.005.004.319-.385Zm-2.784-1.952-.256.43.007.004.249-.434Zm-3.008-1.536-.204.457.008.003.196-.46Zm-3.232-1.184-.15.477.008.002.142-.479Zm-3.36-.864-.106.489.01.002.096-.491Zm-3.488-.576-.069.495.009.001.06-.496Zm-3.552-.384-.039.498h.001l.038-.498Zm-3.584-.192-.03.5h.013l.017-.5Zm0-1.28.087.492.007-.001-.094-.491Zm35.488-6.848.094.49.373-.07.031-.379-.498-.041Zm.736-7.392.496.059.001-.009.001-.008-.498-.042ZM179.88 1l-.171-.47-.008.003-.007.003.186.464Zm.64.096-.307.395.024.018.025.016.258-.429Zm.288.576.497.056v-.007l.001-.007-.498-.042Zm-.704 6.976-.498-.044-.059.655.647-.12-.09-.491Zm8.192-1.536.093.491h.003l-.096-.491Zm8.192-1.6-.095-.49h-.001l.096.49Zm8.192-1.568.093.491h.003l-.096-.491Zm-27.04 39.648-.492.093.992-.097-.5.004Zm1.056-33.344.498.04.053-.654-.645.123.094.491Zm-20.608 3.968-.095-.49h-.001l.096.49Zm-9.632 1.856-.094-.491.045.989.049-.498Zm6.624 1.056-.113.487.005.001.108-.488Zm6.08 1.92.19-.462-.19.462Zm5.632 3.328-.313.39.002.002.311-.392Zm4.608 4.928.411-.285h-.001l-.41.285Zm41.586-24.467c.062-.01.079 0 .073-.003a.028.028 0 0 1-.007-.004c-.001 0 .004.003.012.015l.832-.554a1.01 1.01 0 0 0-.475-.389 1.128 1.128 0 0 0-.599-.051l.164.986Zm.099.038c.029.037.035.06.036.071a.178.178 0 0 1-.015.091l.94.342a1.128 1.128 0 0 0-.172-1.118l-.789.614Zm.008.201a.119.119 0 0 1-.012.033l-.001.001c.004-.003-.009.011-.066.02l.164.987a1.12 1.12 0 0 0 .557-.251c.166-.144.269-.328.323-.526l-.965-.264Zm-.091.057c-3.691.704-9.217 1.77-16.578 3.2l.191.982c7.36-1.43 12.885-2.496 16.574-3.2l-.187-.982Zm-16.576 3.2L179.914 9.5l.188.982 16.512-3.168-.188-.982Zm-16.917 3.619c-1.047 12.972-1.335 28.052-.865 45.238l1-.028c-.469-17.16-.181-32.203.862-45.13l-.997-.08Zm-.865 45.224a.199.199 0 0 1-.017.093.161.161 0 0 1-.061.054l.515.858c.369-.222.563-.58.563-1.005h-1Zm-.127.181c-.078.061-.115.057-.158.044l-.287.958c.384.115.753.026 1.059-.212l-.614-.79Zm-.158.044c-.006-.002-.003-.002.004.003a.064.064 0 0 1 .017.017c.005.008-.012-.011-.018-.091l-.997.076c.015.198.068.403.191.581.128.187.309.31.516.372l.287-.958Zm.002-.082a306.859 306.859 0 0 0-.577-5.48l-.993.115c.17 1.468.362 3.288.575 5.463l.995-.098Zm-.577-5.481c-.172-1.463-.44-3.243-.804-5.34l-.985.172c.362 2.085.627 3.846.796 5.284l.993-.116Zm-.803-5.335c-.344-2.084-.742-3.926-1.196-5.528l-.962.273c.441 1.557.832 3.362 1.171 5.417l.987-.162Zm-1.194-5.52a42.204 42.204 0 0 0-1.749-5.116l-.925.379a41.357 41.357 0 0 1 1.708 4.995l.966-.258Zm-1.749-5.116a32.385 32.385 0 0 0-2.535-4.973l-.847.532a31.292 31.292 0 0 1 2.457 4.82l.925-.38Zm-2.537-4.976a24.54 24.54 0 0 0-2.287-3.038l-.749.662a23.696 23.696 0 0 1 2.194 2.915l.842-.54Zm-2.287-3.038a23.284 23.284 0 0 0-2.583-2.518l-.638.77a22.36 22.36 0 0 1 2.472 2.41l.749-.662Zm-2.578-2.514a19.124 19.124 0 0 0-2.859-2.005l-.498.868c.977.56 1.88 1.194 2.709 1.899l.648-.762Zm-2.852-2a25.63 25.63 0 0 0-3.068-1.567l-.392.92c.981.417 1.963.919 2.948 1.506l.512-.86Zm-3.06-1.563a26.61 26.61 0 0 0-3.294-1.207l-.284.958c1.133.336 2.189.723 3.17 1.162l.408-.913Zm-3.286-1.205a31.65 31.65 0 0 0-3.414-.878l-.192.982c1.068.21 2.17.492 3.306.85l.3-.954Zm-3.405-.876a38.967 38.967 0 0 0-3.533-.583l-.12.992c1.224.148 2.371.338 3.442.569l.211-.978Zm-3.525-.582a58.464 58.464 0 0 0-3.583-.388l-.075.998c1.12.084 2.293.21 3.521.38l.137-.99Zm-3.582-.387a83.13 83.13 0 0 0-3.606-.194l-.033 1c1.274.042 2.461.106 3.562.19l.077-.997Zm-3.593-.193a.254.254 0 0 1-.077-.013c-.004-.002.003 0 .012.01.02.023-.008.013-.008-.106h-1c0 .265.062.549.263.773.205.23.484.318.751.334l.059-.998Zm-.073-.109c0-.057.007-.094.013-.115.006-.02.011-.026.011-.026s.003-.005.016-.011a.317.317 0 0 1 .091-.028l-.174-.984a1.145 1.145 0 0 0-.71.393c-.183.227-.247.503-.247.771h1Zm.138-.181 35.488-6.848-.189-.982-35.488 6.848.189.982Zm35.892-7.298c.213-2.576.458-5.034.734-7.374l-.993-.118a212.736 212.736 0 0 0-.738 7.41l.997.082Zm.736-7.391a.304.304 0 0 1 .011-.063l.005-.012.002-.004h-.001.001a.086.086 0 0 1 .021-.01l-.371-.93a1.026 1.026 0 0 0-.474.374 1.152 1.152 0 0 0-.191.561l.997.084Zm.025-.084a.186.186 0 0 1 .091-.016.155.155 0 0 1 .071.037l.614-.79a1.13 1.13 0 0 0-1.118-.17l.342.939Zm.211.055a.158.158 0 0 1 .036.027c.005.004.006.007.007.008l.004.014c.001.01.003.028 0 .056l.997.084a1.123 1.123 0 0 0-.107-.602 1.087 1.087 0 0 0-.422-.445l-.515.858Zm.049.09a290.531 290.531 0 0 0-.705 6.989l.996.088c.213-2.385.447-4.707.703-6.964l-.994-.112Zm-.117 7.525c2.433-.448 5.165-.96 8.195-1.537l-.187-.982c-3.028.576-5.758 1.087-8.189 1.535l.181.984Zm8.198-1.537c3.05-.598 5.781-1.13 8.191-1.6l-.191-.982c-2.411.47-5.142 1.003-8.192 1.6l.192.982Zm8.19-1.6c2.432-.47 5.162-.992 8.191-1.568l-.187-.982c-3.029.576-5.76 1.099-8.193 1.568l.189.982Zm8.194-1.568c3.05-.598 5.791-1.13 8.223-1.6l-.19-.982c-2.433.47-5.174 1.003-8.225 1.6l.192.982ZM178.14 43.588c-.107-12.191.245-23.29 1.054-33.3l-.997-.08c-.812 10.044-1.164 21.174-1.057 33.388l1-.008Zm.462-33.831c-2.795.533-6.017 1.152-9.665 1.856l.189.982c3.648-.704 6.869-1.323 9.663-1.856l-.187-.982Zm-9.665 1.856-10.944 2.112.189.982 10.944-2.112-.189-.982Zm-10.945 2.112c-3.626.704-6.836 1.323-9.63 1.856l.187.982c2.796-.533 6.007-1.152 9.634-1.856l-.191-.982Zm-9.585 2.845c2.371.232 4.557.581 6.56 1.045l.226-.974c-2.051-.475-4.281-.83-6.688-1.067l-.098.996Zm6.565 1.046a36.588 36.588 0 0 1 5.998 1.895l.38-.925a37.579 37.579 0 0 0-6.162-1.946l-.216.976Zm5.998 1.895a22.278 22.278 0 0 1 5.509 3.255l.626-.78a23.29 23.29 0 0 0-5.755-3.4l-.38.925Zm5.511 3.257a22.538 22.538 0 0 1 4.508 4.822l.821-.572a23.575 23.575 0 0 0-4.708-5.034l-.621.784Zm4.508 4.821c2.85 4.108 4.91 9.465 6.159 16.096l.983-.186c-1.267-6.724-3.368-12.225-6.32-16.48l-.822.57Z" mask="url(#a)"/></g></svg>