<svg xmlns="http://www.w3.org/2000/svg" fill="none" viewBox="0 0 364 142"><path stroke="url(#a)" stroke-width="1.597" d="M1 0v142"/><path stroke="url(#b)" stroke-width="1.597" d="M13.215 0v142"/><path stroke="url(#c)" stroke-width="1.597" d="M25.43 0v142"/><path stroke="url(#d)" stroke-width="1.597" d="M37.645 0v142"/><path stroke="url(#e)" stroke-width="1.597" d="M49.86 0v142"/><path stroke="url(#f)" stroke-width="1.597" d="M62.075 0v142"/><path stroke="url(#g)" stroke-width="1.597" d="M74.29 0v142"/><path stroke="url(#h)" stroke-width="1.597" d="M86.504 0v142"/><path stroke="url(#i)" stroke-width="1.597" d="M98.72 0v142"/><path stroke="url(#j)" stroke-width="1.597" d="M110.934 0v142"/><path stroke="url(#k)" stroke-width="1.597" d="M123.149 0v142"/><path stroke="url(#l)" stroke-width="1.597" d="M135.364 0v142"/><path stroke="url(#m)" stroke-width="1.597" d="M147.579 0v142"/><path stroke="#B55331" stroke-width="1.597" d="M204.304 2.419 159.793 139.58"/><path stroke="url(#n)" stroke-width="1.597" d="M216.519 0v142"/><path stroke="url(#o)" stroke-width="1.597" d="M228.734 0v142"/><path stroke="url(#p)" stroke-width="1.597" d="M240.949 0v142"/><path stroke="url(#q)" stroke-width="1.597" d="M253.164 0v142"/><path stroke="url(#r)" stroke-width="1.597" d="M265.379 0v142"/><path stroke="url(#s)" stroke-width="1.597" d="M277.594 0v142"/><path stroke="url(#t)" stroke-width="1.597" d="M289.809 0v142"/><path stroke="url(#u)" stroke-width="1.597" d="M302.023 0v142"/><path stroke="url(#v)" stroke-width="1.597" d="M314.239 0v142"/><path stroke="url(#w)" stroke-width="1.597" d="M326.454 0v142"/><path stroke="url(#x)" stroke-width="1.597" d="M338.668 0v142"/><path stroke="url(#y)" stroke-width="1.597" d="M350.884 0v142"/><path stroke="url(#z)" stroke-width="1.597" d="M363.098 0v142"/><defs><linearGradient id="a" x1="1.5" x2="1.5" y1="0" y2="142" gradientUnits="userSpaceOnUse"><stop offset=".216" stop-color="#545454"/><stop offset="1" stop-color="#0E0E0E"/></linearGradient><linearGradient id="b" x1="13.715" x2="13.715" y1="0" y2="142" gradientUnits="userSpaceOnUse"><stop offset=".216" stop-color="#545454"/><stop offset="1" stop-color="#0E0E0E"/></linearGradient><linearGradient id="c" x1="25.93" x2="25.93" y1="0" y2="142" gradientUnits="userSpaceOnUse"><stop offset=".216" stop-color="#545454"/><stop offset="1" stop-color="#0E0E0E"/></linearGradient><linearGradient id="d" x1="38.145" x2="38.145" y1="0" y2="142" gradientUnits="userSpaceOnUse"><stop offset=".216" stop-color="#545454"/><stop offset="1" stop-color="#0E0E0E"/></linearGradient><linearGradient id="e" x1="50.359" x2="50.359" y1="0" y2="142" gradientUnits="userSpaceOnUse"><stop offset=".216" stop-color="#545454"/><stop offset="1" stop-color="#0E0E0E"/></linearGradient><linearGradient id="f" x1="62.575" x2="62.575" y1="0" y2="142" gradientUnits="userSpaceOnUse"><stop offset=".216" stop-color="#545454"/><stop offset="1" stop-color="#0E0E0E"/></linearGradient><linearGradient id="g" x1="74.789" x2="74.789" y1="0" y2="142" gradientUnits="userSpaceOnUse"><stop offset=".216" stop-color="#545454"/><stop offset="1" stop-color="#0E0E0E"/></linearGradient><linearGradient id="h" x1="87.004" x2="87.004" y1="0" y2="142" gradientUnits="userSpaceOnUse"><stop offset=".216" stop-color="#545454"/><stop offset="1" stop-color="#0E0E0E"/></linearGradient><linearGradient id="i" x1="99.22" x2="99.22" y1="0" y2="142" gradientUnits="userSpaceOnUse"><stop offset=".216" stop-color="#545454"/><stop offset="1" stop-color="#0E0E0E"/></linearGradient><linearGradient id="j" x1="111.434" x2="111.434" y1="0" y2="142" gradientUnits="userSpaceOnUse"><stop offset=".216" stop-color="#545454"/><stop offset="1" stop-color="#0E0E0E"/></linearGradient><linearGradient id="k" x1="123.649" x2="123.649" y1="0" y2="142" gradientUnits="userSpaceOnUse"><stop offset=".216" stop-color="#545454"/><stop offset="1" stop-color="#0E0E0E"/></linearGradient><linearGradient id="l" x1="135.864" x2="135.864" y1="0" y2="142" gradientUnits="userSpaceOnUse"><stop offset=".216" stop-color="#545454"/><stop offset="1" stop-color="#0E0E0E"/></linearGradient><linearGradient id="m" x1="148.079" x2="148.079" y1="0" y2="142" gradientUnits="userSpaceOnUse"><stop offset=".216" stop-color="#545454"/><stop offset="1" stop-color="#0E0E0E"/></linearGradient><linearGradient id="n" x1="217.019" x2="217.019" y1="0" y2="142" gradientUnits="userSpaceOnUse"><stop offset=".216" stop-color="#545454"/><stop offset="1" stop-color="#0E0E0E"/></linearGradient><linearGradient id="o" x1="229.234" x2="229.234" y1="0" y2="142" gradientUnits="userSpaceOnUse"><stop offset=".216" stop-color="#545454"/><stop offset="1" stop-color="#0E0E0E"/></linearGradient><linearGradient id="p" x1="241.449" x2="241.449" y1="0" y2="142" gradientUnits="userSpaceOnUse"><stop offset=".216" stop-color="#545454"/><stop offset="1" stop-color="#0E0E0E"/></linearGradient><linearGradient id="q" x1="253.664" x2="253.664" y1="0" y2="142" gradientUnits="userSpaceOnUse"><stop offset=".216" stop-color="#545454"/><stop offset="1" stop-color="#0E0E0E"/></linearGradient><linearGradient id="r" x1="265.879" x2="265.879" y1="0" y2="142" gradientUnits="userSpaceOnUse"><stop offset=".216" stop-color="#545454"/><stop offset="1" stop-color="#0E0E0E"/></linearGradient><linearGradient id="s" x1="278.094" x2="278.094" y1="0" y2="142" gradientUnits="userSpaceOnUse"><stop offset=".216" stop-color="#545454"/><stop offset="1" stop-color="#0E0E0E"/></linearGradient><linearGradient id="t" x1="290.309" x2="290.309" y1="0" y2="142" gradientUnits="userSpaceOnUse"><stop offset=".216" stop-color="#545454"/><stop offset="1" stop-color="#0E0E0E"/></linearGradient><linearGradient id="u" x1="302.523" x2="302.523" y1="0" y2="142" gradientUnits="userSpaceOnUse"><stop offset=".216" stop-color="#545454"/><stop offset="1" stop-color="#0E0E0E"/></linearGradient><linearGradient id="v" x1="314.739" x2="314.739" y1="0" y2="142" gradientUnits="userSpaceOnUse"><stop offset=".216" stop-color="#545454"/><stop offset="1" stop-color="#0E0E0E"/></linearGradient><linearGradient id="w" x1="326.954" x2="326.954" y1="0" y2="142" gradientUnits="userSpaceOnUse"><stop offset=".216" stop-color="#545454"/><stop offset="1" stop-color="#0E0E0E"/></linearGradient><linearGradient id="x" x1="339.168" x2="339.168" y1="0" y2="142" gradientUnits="userSpaceOnUse"><stop offset=".216" stop-color="#545454"/><stop offset="1" stop-color="#0E0E0E"/></linearGradient><linearGradient id="y" x1="351.384" x2="351.384" y1="0" y2="142" gradientUnits="userSpaceOnUse"><stop offset=".216" stop-color="#545454"/><stop offset="1" stop-color="#0E0E0E"/></linearGradient><linearGradient id="z" x1="363.598" x2="363.598" y1="0" y2="142" gradientUnits="userSpaceOnUse"><stop offset=".216" stop-color="#545454"/><stop offset="1" stop-color="#0E0E0E"/></linearGradient></defs></svg>