<svg xmlns="http://www.w3.org/2000/svg" fill="none" viewBox="0 0 1024 495"><g filter="url(#a)" opacity=".5"><circle cx="512" cy="247.5" r="241.5" stroke="#D5C79B"/></g><g filter="url(#b)"><circle cx="241.5" cy="241.5" r="241.5" stroke="url(#c)" stroke-opacity=".3" transform="matrix(-1 0 0 1 487 6)"/></g><g filter="url(#d)"><circle cx="778.5" cy="247.5" r="241.5" stroke="url(#e)" stroke-opacity=".3"/></g><circle cx="251.3" cy="247.3" r="152.3" fill="#D5C79B"/><circle cx="511.9" cy="247.3" r="152.3" fill="#D5C79B"/><circle cx="772.4" cy="247.3" r="152.3" fill="#D5C79B"/><path stroke="#fff" stroke-width="1.2" d="m425.6 153.7-132 51.7m135.6-42.6-132 51.7m135.5-42.6-132 51.7M436.3 181l-132 51.7m135.6-42.6-132 51.7m135.5-42.6-132 51.7M447 208.3 315 260m135.6-42.6-132.1 51.8m135.6-42.7-132 51.8m135.6-42.6-132 51.7m135.6-42.6-132.1 51.7m135.6-42.6-132 51.7M468.4 263l-132 51.7M472 272l-132.1 51.8m135.6-42.6-132 51.7m135.6-42.6-132 51.7m347.5-188.3-132 51.7m135.5-42.6-132 51.7m135.6-42.6-132 51.7M705.3 181l-132 51.7m135.5-42.6-132 51.7m135.6-42.6-132 51.7M716 208.3 584 260m135.5-42.6-132 51.8m135.6-42.7-132 51.8m135.6-42.6-132 51.7m135.5-42.6-132 51.7m135.6-42.6-132 51.7M737.4 263l-132 51.7M741 272l-132.1 51.8m135.6-42.6-132 51.7M748 290.3 616 342" opacity=".4"/><path fill="#F2F0E9" d="M251.3 95c55.2 0 103.6 29.4 130.3 73.4a151.6 151.6 0 0 0 0 157.8A152.2 152.2 0 0 1 99 247.3C99 163.2 167.2 95 251.3 95Zm260.6 0a152 152 0 0 1 130.2 73.4c-14 23-22 50-22 79 0 28.8 8 55.8 22 78.8a152.2 152.2 0 0 1-260.5 0c14-23 22-50 22-78.9 0-28.9-8-55.9-22-78.9 26.7-44 75-73.4 130.3-73.4Zm260.5 0a152.3 152.3 0 1 1-130.3 231.2 151.6 151.6 0 0 0 0-157.8c26.7-44 75.1-73.4 130.3-73.4Z"/><circle cx="251.7" cy="247.6" r="152.3" stroke="#D5C79B" stroke-width="2.4"/><path fill="#9A7500" d="M244 231v-15.7h3.6V231H244Zm8.6.2a2 2 0 1 1 0-3.9 2 2 0 0 1 2 2 2 2 0 0 1-2 1.9Z"/><path fill="#212529" d="m189.8 255 4.7-14.3h4.2l4.6 14.3H200l-1-3.2h-5.1l-1 3.2h-3Zm6.6-11.7-2 6.2h3.9l-2-6.2Zm9 11.7v-14.3h3.2V255h-3.2Zm6-4.5v-2.3h5v2.3h-5Zm7.7 4.5v-14.3h9.3v2.5h-6.1v3.4h4.9v2.3h-5v3.6h6.5v2.5h-9.6Zm11.6 0v-10.5h2.9v1.7c.5-1 1.7-1.9 3.4-1.9 2 0 3.5 1.2 3.5 4v6.7h-2.9v-6.2c0-1.5-.5-2.1-1.8-2.1s-2.2.7-2.2 2.3v6h-2.9Zm12.3 0v-15.2h3v6.4c.4-1 1.6-1.9 3.3-1.9 2 0 3.5 1.2 3.5 4v6.7H250v-6.2c0-1.5-.5-2.1-1.8-2.1s-2.2.7-2.2 2.3v6h-3Zm15.1.2c-1.9 0-3.5-.9-3.5-3.1 0-2.4 2.3-3.4 5.5-3.4h1.1v-.4c0-1.2-.3-1.9-1.6-1.9-1.2 0-1.7.6-1.8 1.5H255c.2-2.5 2.2-3.6 4.7-3.6 2.6 0 4.4 1 4.4 3.9v6.8h-2.8v-1.3c-.6.9-1.5 1.5-3.2 1.5Zm.9-2c1.3 0 2.3-.7 2.3-1.9v-.8H260c-1.7 0-2.6.3-2.6 1.4 0 .8.4 1.3 1.5 1.3Zm7.6 1.8v-10.5h2.9v1.7c.5-1 1.7-1.9 3.4-1.9 2 0 3.5 1.2 3.5 4v6.7h-2.9v-6.2c0-1.5-.5-2.1-1.8-2.1s-2.2.7-2.2 2.3v6h-2.9Zm17 .2c-3 0-5.3-1.9-5.3-5.3v-.2c0-3.3 2.4-5.4 5.4-5.4 2.4 0 4.6 1 4.9 4h-2.8c-.2-1.2-.9-1.7-2-1.7-1.6 0-2.6 1.1-2.6 3.1v.2c0 2 1 3.1 2.6 3.1 1.1 0 2-.6 2.2-2h2.6c-.1 2.5-2 4.2-5 4.2Zm11.7 0c-3.2 0-5.5-2-5.5-5.3v-.2c0-3.3 2.4-5.4 5.4-5.4 2.7 0 5.1 1.6 5.1 5.3v.8h-7.5c0 1.8 1 2.8 2.6 2.8 1.3 0 2-.6 2.1-1.5h2.8c-.4 2.3-2.2 3.5-5 3.5Zm-2.5-6.6h4.7c-.1-1.5-1-2.3-2.3-2.3-1.3 0-2.2.9-2.4 2.3Zm13.3 6.6c-2.5 0-4.5-1.8-4.5-5.3v-.1c0-3.5 2-5.5 4.6-5.5 1.7 0 2.7.7 3.3 1.8v-6.3h2.9V255h-3v-1.7c-.5 1-1.7 2-3.3 2Zm.9-2.2c1.5 0 2.6-1 2.6-3.2v-.1c0-2.1-1-3.2-2.5-3.2-1.7 0-2.6 1.1-2.6 3.2v.2c0 2 1 3 2.5 3Zm-90.4 26.2c-4 0-5.7-1.8-6-4.7h3.2c.1 1.3.7 2.4 2.8 2.4 1.4 0 2.3-.8 2.3-2 0-1-.6-1.5-2.7-1.8-3.6-.5-5.1-1.6-5.1-4.3 0-2.5 2-4.3 5.2-4.3s5 1.4 5.3 4.3h-3c-.1-1.3-.9-2-2.3-2s-2.2.7-2.2 1.7.5 1.5 2.7 1.8c3.5.5 5.2 1.4 5.2 4.4 0 2.5-2 4.5-5.4 4.5Zm11.3 0c-2.2 0-3.4-1.1-3.4-3.3v-5.3h-1.3v-2h1.3v-2.3h3v2.2h2.1v2.1h-2.2v5c0 .9.4 1.3 1.2 1.3.4 0 .7 0 1-.2v2.2c-.3.2-.9.3-1.7.3Zm3.7-.2v-10.5h3v2a3.4 3.4 0 0 1 3.3-2.1v2.7c-2.1 0-3.4.7-3.4 2.7v5.2h-2.9Zm10.9.2c-2 0-3.5-.9-3.5-3.1 0-2.4 2.2-3.4 5.4-3.4h1.2v-.4c0-1.2-.4-1.9-1.7-1.9-1.1 0-1.7.6-1.8 1.5h-2.7c.2-2.5 2.1-3.6 4.7-3.6 2.5 0 4.4 1 4.4 3.9v6.8h-2.9v-1.3c-.6.9-1.5 1.5-3.1 1.5Zm.8-2c1.3 0 2.3-.7 2.3-1.9v-.8h-1.1c-1.7 0-2.7.3-2.7 1.4 0 .8.5 1.3 1.5 1.3Zm11.4 2c-2.2 0-3.4-1.1-3.4-3.3v-5.3H250v-2h1.3v-2.3h3v2.2h2.1v2.1h-2.2v5c0 .9.4 1.3 1.2 1.3.4 0 .7 0 1-.2v2.2c-.3.2-.9.3-1.7.3Zm8.6 0c-3.2 0-5.5-2-5.5-5.3v-.2c0-3.3 2.3-5.4 5.4-5.4 2.7 0 5 1.6 5 5.3v.8h-7.5c.1 1.8 1 2.8 2.6 2.8 1.4 0 2-.6 2.2-1.5h2.8c-.4 2.3-2.2 3.5-5 3.5Zm-2.5-6.6h4.7c-.1-1.5-1-2.3-2.3-2.3-1.3 0-2.2.9-2.4 2.3Zm14 10.3c-3.4 0-4.9-1.5-5.2-3.7h2.9c.2 1 .8 1.5 2.3 1.5 1.8 0 2.7-.9 2.7-2.5v-1.6a4 4 0 0 1-3.4 2c-2.5 0-4.6-2-4.6-5v-.2c0-3 2-5.1 4.6-5.1 1.7 0 2.8.7 3.4 1.8v-1.6h2.8v9.7c0 3-2 4.7-5.5 4.7Zm.2-6.5c1.5 0 2.5-1.1 2.5-2.9v-.1c0-1.8-.9-2.9-2.5-2.9s-2.5 1.2-2.5 2.9v.1c0 1.8 1 2.9 2.5 2.9Zm9.2 6.2 1.9-4.7-4.2-9.4h3.1l2.6 6.3 2.3-6.3h2.8l-5.7 14h-2.8Z"/><circle cx="512.2" cy="247.6" r="152.3" stroke="#D5C79B" stroke-width="2.4"/><path fill="#9A7500" d="M503.9 233v-14h3.1v14h-3Zm6.3 0v-14h3.2v14h-3.2Zm7.7.2c-1 0-1.8-.8-1.8-1.7 0-1 .8-1.7 1.8-1.7s1.7.7 1.7 1.7-.7 1.7-1.7 1.7Z"/><path fill="#212529" d="M430.9 257v-14.3h4.7c5 0 7.5 2.7 7.5 7v.2c0 4.2-2.5 7.1-7.6 7.1H431Zm3.2-2.5h1.3c3 0 4.3-1.6 4.3-4.6v-.2c0-2.9-1.3-4.5-4.3-4.5h-1.3v9.3Zm13.8 2.7c-1.9 0-3.5-.9-3.5-3.1 0-2.4 2.3-3.4 5.5-3.4h1.1v-.4c0-1.2-.3-1.9-1.7-1.9-1.1 0-1.6.6-1.7 1.5h-2.8c.2-2.5 2.2-3.6 4.7-3.6 2.6 0 4.4 1 4.4 3.9v6.8H451v-1.3c-.6.9-1.5 1.5-3.2 1.5Zm.9-2c1.3 0 2.2-.7 2.2-1.9v-.8h-1c-1.8 0-2.7.3-2.7 1.4 0 .8.4 1.3 1.5 1.3Zm11.4 2c-2.2 0-3.4-1.1-3.4-3.3v-5.3h-1.4v-2h1.4v-2.3h2.9v2.2h2.2v2.1h-2.2v5c0 .9.4 1.3 1.1 1.3.5 0 .8 0 1.1-.2v2.2a4 4 0 0 1-1.7.3Zm6.6 0c-2 0-3.5-.9-3.5-3.1 0-2.4 2.2-3.4 5.4-3.4h1.2v-.4c0-1.2-.4-1.9-1.7-1.9-1.2 0-1.7.6-1.8 1.5h-2.7c.1-2.5 2.1-3.6 4.7-3.6 2.5 0 4.3 1 4.3 3.9v6.8H470v-1.3c-.6.9-1.5 1.5-3.1 1.5Zm.8-2c1.3 0 2.3-.7 2.3-1.9v-.8h-1.1c-1.7 0-2.7.3-2.7 1.4 0 .8.5 1.3 1.5 1.3Zm7.4-2.7v-2.3h5.2v2.3H475Zm7.8 4.5v-14.3h4.7c5 0 7.5 2.7 7.5 7v.2c0 4.2-2.5 7.1-7.6 7.1h-4.6Zm3.2-2.5h1.3c3 0 4.3-1.6 4.3-4.6v-.2c0-2.9-1.3-4.5-4.3-4.5H486v9.3Zm11 2.5v-10.5h3v2a3.4 3.4 0 0 1 3.3-2.1v2.7c-2.1 0-3.4.7-3.4 2.7v5.2H497Zm9.7-11.9c-1 0-1.6-.7-1.6-1.6 0-.9.7-1.5 1.6-1.5 1 0 1.7.6 1.7 1.5 0 1-.7 1.6-1.7 1.6Zm-1.4 11.9v-10.5h2.9V257h-3Zm8.4 0-3.9-10.5h3.1l2.5 7.5 2.5-7.5h2.8L517 257h-3.2Zm13 .2c-3.2 0-5.5-2-5.5-5.3v-.2c0-3.3 2.3-5.4 5.4-5.4 2.7 0 5 1.6 5 5.3v.8h-7.5c0 1.8 1 2.8 2.6 2.8 1.4 0 2-.6 2.2-1.5h2.7c-.3 2.3-2.1 3.5-5 3.5Zm-2.5-6.6h4.6c0-1.5-.9-2.3-2.2-2.3-1.3 0-2.2.9-2.4 2.3Zm9.4 6.4v-10.5h2.9v1.7c.5-1 1.6-1.9 3.4-1.9 2 0 3.5 1.2 3.5 4v6.7h-3v-6.2c0-1.5-.5-2.1-1.8-2.1-1.2 0-2.1.7-2.1 2.3v6h-3Zm22.7.2c-3.7 0-5.9-2-5.9-5.8v-8.7h3.3v8.5c0 2.4.7 3.4 2.6 3.4 2 0 2.8-.9 2.8-3.5v-8.4h3.3v8.6c0 3.9-2.2 6-6 6Zm12.4 0c-2.8 0-4.4-1.2-4.5-3.5h2.7c.1 1 .6 1.5 1.8 1.5 1.1 0 1.7-.4 1.7-1.1 0-.8-.7-1-2.2-1.3-2.7-.4-3.8-1.2-3.8-3.2 0-2.2 2-3.3 4.1-3.3 2.3 0 4 .8 4.3 3.2h-2.6c-.2-.8-.7-1.2-1.7-1.2-.9 0-1.4.4-1.4 1 0 .7.5 1 2 1.2 2.6.4 4 1 4 3.3 0 2.2-1.6 3.4-4.4 3.4Zm11.1 0c-3.1 0-5.4-2-5.4-5.3v-.2c0-3.3 2.3-5.4 5.4-5.4 2.7 0 5 1.6 5 5.3v.8h-7.5c.1 1.8 1 2.8 2.6 2.8 1.4 0 2-.6 2.2-1.5h2.7c-.3 2.3-2.1 3.5-5 3.5Zm-2.4-6.6h4.6c0-1.5-.9-2.3-2.2-2.3-1.3 0-2.2.9-2.4 2.3Zm9.4 6.4v-10.5h2.9v2a3.4 3.4 0 0 1 3.3-2.1v2.7c-2.1 0-3.3.7-3.3 2.7v5.2h-3Zm-140.1 24.2c-3.8 0-5.9-2-5.9-5.8v-8.7h3.3v8.5c0 2.4.7 3.4 2.6 3.4 2 0 2.8-.9 2.8-3.5v-8.4h3.2v8.6c0 3.9-2.1 6-6 6Zm8.6-.2v-10.5h3v1.7c.5-1 1.6-1.9 3.3-1.9 2.1 0 3.6 1.2 3.6 4v6.7h-3v-6.2c0-1.5-.5-2.1-1.8-2.1-1.2 0-2.2.7-2.2 2.3v6h-2.9Zm16.3.2c-2.6 0-4.6-1.8-4.6-5.3v-.1c0-3.5 2-5.5 4.6-5.5 1.7 0 2.8.7 3.3 1.8v-6.3h3V281h-3v-1.7c-.5 1-1.8 2-3.3 2Zm.8-2.2c1.6 0 2.6-1 2.6-3.2v-.1c0-2.1-1-3.2-2.5-3.2-1.6 0-2.5 1.1-2.5 3.2v.2c0 2 1 3 2.4 3Zm12.8 2.2c-3.2 0-5.5-2-5.5-5.3v-.2c0-3.3 2.4-5.4 5.4-5.4 2.7 0 5.1 1.6 5.1 5.3v.8h-7.5c0 1.8 1 2.8 2.6 2.8 1.3 0 2-.6 2.2-1.5h2.7c-.3 2.3-2.1 3.5-5 3.5Zm-2.5-6.6h4.7c0-1.5-.9-2.3-2.3-2.3-1.3 0-2.2.9-2.4 2.3Zm9.4 6.4v-10.5h3v2a3.4 3.4 0 0 1 3.3-2.1v2.7c-2.1 0-3.4.7-3.4 2.7v5.2h-2.9Zm12 .2c-2.8 0-4.5-1.2-4.6-3.5h2.7c.2 1 .6 1.5 1.9 1.5 1 0 1.6-.4 1.6-1.1 0-.8-.6-1-2.1-1.3-2.8-.4-3.9-1.2-3.9-3.2 0-2.2 2-3.3 4.2-3.3 2.3 0 4 .8 4.3 3.2h-2.7c-.1-.8-.6-1.2-1.6-1.2s-1.5.4-1.5 1c0 .7.5 1 2 1.2 2.7.4 4 1 4 3.3 0 2.2-1.5 3.4-4.3 3.4Zm10 0c-2.2 0-3.3-1.1-3.3-3.3v-5.3h-1.4v-2h1.4v-2.3h2.8v2.2h2.2v2.1h-2.2v5c0 .9.5 1.3 1.2 1.3.4 0 .8 0 1.1-.2v2.2c-.4.2-1 .3-1.8.3Zm6.6 0c-1.9 0-3.5-.9-3.5-3.1 0-2.4 2.3-3.4 5.5-3.4h1.2v-.4c0-1.2-.4-1.9-1.7-1.9-1.2 0-1.7.6-1.8 1.5h-2.8c.2-2.5 2.2-3.6 4.7-3.6 2.6 0 4.4 1 4.4 3.9v6.8H524v-1.3c-.6.9-1.5 1.5-3.2 1.5Zm1-2c1.2 0 2.2-.7 2.2-1.9v-.8h-1.2c-1.6 0-2.6.3-2.6 1.4 0 .8.4 1.3 1.5 1.3Zm7.5 1.8v-10.5h3v1.7c.4-1 1.6-1.9 3.3-1.9 2 0 3.5 1.2 3.5 4v6.7h-2.9v-6.2c0-1.5-.5-2.1-1.8-2.1-1.2 0-2.2.7-2.2 2.3v6h-2.9Zm16.2.2c-2.5 0-4.5-1.8-4.5-5.3v-.1c0-3.5 2-5.5 4.6-5.5 1.7 0 2.7.7 3.3 1.8v-6.3h2.9V281h-2.9v-1.7c-.5 1-1.8 2-3.4 2Zm.9-2.2c1.5 0 2.6-1 2.6-3.2v-.1c0-2.1-1-3.2-2.5-3.2-1.6 0-2.5 1.1-2.5 3.2v.2c0 2 1 3 2.4 3Zm9.5-9.9c-1 0-1.7-.7-1.7-1.6 0-.9.7-1.5 1.7-1.5.9 0 1.6.6 1.6 1.5 0 1-.7 1.6-1.6 1.6Zm-1.5 11.9v-10.5h3V281h-3Zm5.6 0v-10.5h2.9v1.7c.5-1 1.6-1.9 3.4-1.9 2 0 3.5 1.2 3.5 4v6.7h-2.9v-6.2c0-1.5-.6-2.1-1.8-2.1-1.3 0-2.2.7-2.2 2.3v6h-3Zm17 3.9c-3.5 0-5-1.5-5.3-3.7h2.9c.2 1 .8 1.5 2.3 1.5 1.8 0 2.7-.9 2.7-2.5v-1.6a4 4 0 0 1-3.4 2c-2.5 0-4.6-2-4.6-5v-.2c0-3 2-5.1 4.6-5.1 1.7 0 2.8.7 3.4 1.8v-1.6h2.8v9.7c0 3-2 4.7-5.5 4.7Zm0-6.5c1.6 0 2.6-1.1 2.6-2.9v-.1c0-1.8-.9-2.9-2.5-2.9s-2.5 1.2-2.5 2.9v.1c0 1.8 1 2.9 2.5 2.9Z"/><circle cx="772.8" cy="247.6" r="152.3" stroke="#D5C79B" stroke-width="2.4"/><path fill="#9A7500" d="M759.5 233v-14h3.2v14h-3.2Zm6.4 0v-14h3.2v14h-3.2Zm6.3 0v-14h3.2v14h-3.2Zm7.7.2c-1 0-1.8-.8-1.8-1.7 0-1 .8-1.7 1.8-1.7s1.7.7 1.7 1.7-.7 1.7-1.7 1.7Z"/><path fill="#212529" d="m716.1 257 4.7-14.3h4.3l4.6 14.3h-3.4l-1-3.2h-5.1l-1 3.2h-3Zm6.7-11.7-2 6.2h3.8l-1.8-6.2Zm11.8 12c-2 0-3.6-1.3-3.6-4v-6.8h2.9v6.4c0 1.4.6 2 1.8 2 1.2 0 2.2-.7 2.2-2.2v-6.2h2.9V257h-2.9v-1.6c-.5 1-1.6 1.8-3.3 1.8Zm13.4 3.6c-3.4 0-5-1.5-5.2-3.7h2.9c.1 1 .8 1.5 2.3 1.5 1.7 0 2.6-.9 2.6-2.5v-1.6a4 4 0 0 1-3.3 2c-2.6 0-4.6-2-4.6-5v-.2c0-3 2-5.1 4.6-5.1 1.7 0 2.7.7 3.3 1.8v-1.6h2.9v9.7c0 3-2 4.7-5.5 4.7Zm.1-6.5c1.5 0 2.6-1.1 2.6-2.9v-.1c0-1.8-1-2.9-2.5-2.9-1.6 0-2.5 1.2-2.5 2.9v.1c0 1.8 1 2.9 2.4 2.9Zm8 2.6v-10.5h2.9v1.6c.5-1 1.6-1.8 3.2-1.8 1.3 0 2.4.6 2.9 1.8a4.2 4.2 0 0 1 3.5-1.8c2 0 3.4 1.2 3.4 4v6.7h-2.8v-6.4c0-1.3-.6-2-1.7-2s-2 .8-2 2.2v6.2h-2.9v-6.4c0-1.3-.6-2-1.6-2-1.1 0-2 .8-2 2.2v6.2h-3Zm23.2.2c-3.1 0-5.4-2-5.4-5.3v-.2c0-3.3 2.3-5.4 5.4-5.4 2.7 0 5 1.6 5 5.3v.8h-7.5c0 1.8 1 2.8 2.6 2.8 1.4 0 2-.6 2.2-1.5h2.7c-.3 2.3-2.1 3.5-5 3.5Zm-2.4-6.6h4.6c0-1.5-.9-2.3-2.2-2.3-1.3 0-2.2.9-2.4 2.3Zm9.4 6.4v-10.5h2.9v1.7c.5-1 1.6-1.9 3.4-1.9 2 0 3.5 1.2 3.5 4v6.7h-3v-6.2c0-1.5-.5-2.1-1.8-2.1-1.2 0-2.1.7-2.1 2.3v6h-3Zm16 .2c-2.1 0-3.3-1.1-3.3-3.3v-5.3h-1.3v-2h1.3v-2.3h2.9v2.2h2.2v2.1h-2.2v5c0 .9.4 1.3 1.1 1.3.5 0 .8 0 1.1-.2v2.2a4 4 0 0 1-1.7.3Zm8.6 0c-3.1 0-5.4-2-5.4-5.3v-.2c0-3.3 2.3-5.4 5.3-5.4 2.7 0 5.1 1.6 5.1 5.3v.8h-7.5c0 1.8 1 2.8 2.6 2.8 1.3 0 2-.6 2.2-1.5h2.7c-.3 2.3-2.1 3.5-5 3.5Zm-2.5-6.6h4.7c0-1.5-.9-2.3-2.3-2.3-1.3 0-2.1.9-2.4 2.3Zm13.4 6.6c-2.6 0-4.6-1.8-4.6-5.3v-.1c0-3.5 2-5.5 4.6-5.5 1.7 0 2.7.7 3.3 1.8v-6.3h2.9V257h-3v-1.7c-.5 1-1.8 2-3.3 2Zm.8-2.2c1.5 0 2.6-1 2.6-3.2v-.1c0-2.1-1-3.2-2.5-3.2-1.6 0-2.5 1.1-2.5 3.2v.2c0 2 1 3 2.4 3Zm-121.5 26.2c-4.7 0-7.2-2.9-7.2-7.3v-.1c0-4.4 3-7.3 7.1-7.3 3.5 0 6 1.7 6.4 5.2H704c-.2-1.7-1.2-2.7-3-2.7-2.2 0-3.7 1.8-3.7 4.8v.1c0 3 1.4 4.7 3.8 4.7 1.7 0 3-.9 3.2-2.7h3.2c-.3 3.5-2.9 5.3-6.4 5.3Zm8.3-.2v-10.5h2.9v2a3.4 3.4 0 0 1 3.3-2.1v2.7c-2.1 0-3.3.7-3.3 2.7v5.2h-3Zm9.6-11.9c-.9 0-1.6-.7-1.6-1.6 0-.9.7-1.5 1.6-1.5 1 0 1.7.6 1.7 1.5 0 1-.7 1.6-1.7 1.6Zm-1.4 11.9v-10.5h2.9V281h-2.9Zm9.4.2c-2.2 0-3.4-1.1-3.4-3.3v-5.3h-1.3v-2h1.3v-2.3h2.9v2.2h2.2v2.1h-2.2v5c0 .9.4 1.3 1.1 1.3.5 0 .8 0 1.1-.2v2.2a4 4 0 0 1-1.7.3Zm5.2-12c-1 0-1.6-.8-1.6-1.7 0-.9.7-1.5 1.6-1.5 1 0 1.7.6 1.7 1.5 0 1-.8 1.6-1.7 1.6Zm-1.4 11.8v-10.5h2.9V281h-3Zm10.3.2c-3 0-5.4-1.9-5.4-5.3v-.2c0-3.3 2.4-5.4 5.4-5.4 2.4 0 4.6 1 5 4h-2.8c-.2-1.2-1-1.7-2.1-1.7-1.6 0-2.6 1.1-2.6 3.1v.2c0 2 1 3.1 2.6 3.1 1.2 0 2.1-.6 2.3-2h2.6c-.2 2.5-2 4.2-5 4.2Zm9.7 0c-2 0-3.5-.9-3.5-3.1 0-2.4 2.2-3.4 5.4-3.4h1.2v-.4c0-1.2-.4-1.9-1.7-1.9-1.2 0-1.7.6-1.8 1.5h-2.7c.1-2.5 2-3.6 4.7-3.6 2.5 0 4.3 1 4.3 3.9v6.8H754v-1.3c-.6.9-1.5 1.5-3.1 1.5Zm.8-2c1.3 0 2.3-.7 2.3-1.9v-.8h-1.1c-1.7 0-2.7.3-2.7 1.4 0 .8.5 1.3 1.5 1.3Zm7.7 1.8v-15.2h2.9V281h-2.9Zm13 0v-11.8h-3.8v-2.5h11v2.5h-4V281h-3.2Zm8.9 0v-15.2h2.9v6.4c.5-1 1.7-1.9 3.4-1.9 2 0 3.5 1.2 3.5 4v6.7h-2.9v-6.2c0-1.5-.5-2.1-1.8-2.1s-2.2.7-2.2 2.3v6h-3Zm13.8-11.9c-1 0-1.6-.7-1.6-1.6 0-.9.7-1.5 1.6-1.5 1 0 1.7.6 1.7 1.5 0 1-.8 1.6-1.7 1.6Zm-1.4 11.9v-10.5h2.9V281h-3Zm5.5 0v-10.5h3v1.7c.4-1 1.6-1.9 3.3-1.9 2 0 3.5 1.2 3.5 4v6.7H806v-6.2c0-1.5-.5-2.1-1.8-2.1-1.2 0-2.2.7-2.2 2.3v6h-2.9Zm12.3 0v-15.2h3v9.2l3.3-4.5h3l-3.7 4.8 4 5.7h-3.2l-3.5-5v5h-2.9Zm12.6-11.9c-.9 0-1.6-.7-1.6-1.6 0-.9.7-1.5 1.6-1.5 1 0 1.7.6 1.7 1.5 0 1-.7 1.6-1.7 1.6Zm-1.4 11.9v-10.5h2.9V281h-2.9Zm5.5 0v-10.5h3v1.7c.5-1 1.6-1.9 3.3-1.9 2.1 0 3.6 1.2 3.6 4v6.7h-3v-6.2c0-1.5-.5-2.1-1.8-2.1-1.2 0-2.2.7-2.2 2.3v6h-2.9Zm17 3.9c-3.4 0-5-1.5-5.2-3.7h2.9c.2 1 .8 1.5 2.3 1.5 1.8 0 2.6-.9 2.6-2.5v-1.6a4 4 0 0 1-3.3 2c-2.6 0-4.6-2-4.6-5v-.2c0-3 2-5.1 4.6-5.1 1.7 0 2.7.7 3.3 1.8v-1.6h3v9.7c-.1 3-2.2 4.7-5.6 4.7Zm.1-6.5c1.6 0 2.6-1.1 2.6-2.9v-.1c0-1.8-1-2.9-2.5-2.9-1.6 0-2.5 1.2-2.5 2.9v.1c0 1.8 1 2.9 2.4 2.9Z"/><defs><filter id="a" width="493.9" height="494" x="265" y=".5" color-interpolation-filters="sRGB" filterUnits="userSpaceOnUse"><feFlood flood-opacity="0" result="BackgroundImageFix"/><feBlend in="SourceGraphic" in2="BackgroundImageFix" result="shape"/><feGaussianBlur result="effect1_foregroundBlur_3031_323" stdDeviation="2.5"/></filter><filter id="b" width="489.9" height="490" x=".5" y="2.5" color-interpolation-filters="sRGB" filterUnits="userSpaceOnUse"><feFlood flood-opacity="0" result="BackgroundImageFix"/><feBlend in="SourceGraphic" in2="BackgroundImageFix" result="shape"/><feGaussianBlur result="effect1_foregroundBlur_3031_323" stdDeviation="1.5"/></filter><filter id="d" width="489.9" height="490" x="533.6" y="2.5" color-interpolation-filters="sRGB" filterUnits="userSpaceOnUse"><feFlood flood-opacity="0" result="BackgroundImageFix"/><feBlend in="SourceGraphic" in2="BackgroundImageFix" result="shape"/><feGaussianBlur result="effect1_foregroundBlur_3031_323" stdDeviation="1.5"/></filter><linearGradient id="c" x1="25.1" x2="473.2" y1="0" y2="0" gradientUnits="userSpaceOnUse"><stop offset=".3" stop-color="#D5C79B"/><stop offset="1" stop-color="#FAF9F6"/></linearGradient><linearGradient id="e" x1="562.1" x2="1010.2" y1="6" y2="6" gradientUnits="userSpaceOnUse"><stop offset=".3" stop-color="#D5C79B"/><stop offset="1" stop-color="#FAF9F6"/></linearGradient></defs></svg>