<svg width="46" height="46" viewBox="0 0 46 46" fill="none" xmlns="http://www.w3.org/2000/svg">
<path d="M6.70826 39.2917C8.29909 40.8825 10.8674 40.8825 12.4583 39.2917L37.3749 14.375C38.9658 12.7842 38.9658 10.2158 37.3749 8.62501C35.7841 7.03418 33.2158 7.03418 31.6249 8.62501L6.70826 33.5417C5.11743 35.1325 5.11743 37.7008 6.70826 39.2917Z" stroke="white" stroke-width="1.5" stroke-miterlimit="10" stroke-linecap="round" stroke-linejoin="round"/>
<path d="M34.519 17.2307L28.769 11.4807" stroke="white" stroke-width="1.5" stroke-miterlimit="10" stroke-linecap="square" stroke-linejoin="round"/>
<path d="M16.292 4.67683L19.167 3.8335L18.3237 6.7085L19.167 9.5835L16.292 8.74016L13.417 9.5835L14.2603 6.7085L13.417 3.8335L16.292 4.67683Z" stroke="#D5C79B" stroke-width="1.5" stroke-linecap="round" stroke-linejoin="round"/>
<path d="M8.625 16.1768L11.5 15.3335L10.6567 18.2085L11.5 21.0835L8.625 20.2402L5.75 21.0835L6.59333 18.2085L5.75 15.3335L8.625 16.1768Z" stroke="#D5C79B" stroke-width="1.5" stroke-linecap="round" stroke-linejoin="round"/>
<path d="M37.375 25.7598L40.25 24.9165L39.4067 27.7915L40.25 30.6665L37.375 29.8232L34.5 30.6665L35.3433 27.7915L34.5 24.9165L37.375 25.7598Z" stroke="#D5C79B" stroke-width="1.5" stroke-linecap="round" stroke-linejoin="round"/>
</svg>
