<svg width="46" height="46" viewBox="0 0 46 46" fill="none" xmlns="http://www.w3.org/2000/svg">
<path d="M15.3334 8.625V5.75M30.6667 8.625V5.75" stroke="#D29F00" stroke-width="2" stroke-linecap="round" stroke-linejoin="round"/>
<path d="M37.375 15.3333L40.25 15.3333M37.375 30.6666H40.25" stroke="#D29F00" stroke-width="2" stroke-linecap="round" stroke-linejoin="round"/>
<path d="M15.3334 40.25V37.375M30.6667 40.25V37.375" stroke="#D29F00" stroke-width="2" stroke-linecap="round" stroke-linejoin="round"/>
<path d="M5.75 15.3333L8.625 15.3333M5.75 30.6666H8.625" stroke="#D29F00" stroke-width="2" stroke-linecap="round" stroke-linejoin="round"/>
<path d="M15.3334 21.0833C15.3334 18.3727 15.3334 17.0174 16.1754 16.1753C17.0175 15.3333 18.3728 15.3333 21.0834 15.3333H24.9167C27.6273 15.3333 28.9826 15.3333 29.8246 16.1753C30.6667 17.0174 30.6667 18.3727 30.6667 21.0833V24.9166C30.6667 27.6272 30.6667 28.9824 29.8246 29.8245C28.9826 30.6666 27.6273 30.6666 24.9167 30.6666H21.0834C18.3728 30.6666 17.0175 30.6666 16.1754 29.8245C15.3334 28.9824 15.3334 27.6272 15.3334 24.9166V21.0833Z" fill="#4B4B4B" fill-opacity="0.5" stroke="white" stroke-width="1.5" stroke-miterlimit="10" stroke-linecap="round" stroke-linejoin="round"/>
</svg>
