<svg width="46" height="46" viewBox="0 0 46 46" fill="none" xmlns="http://www.w3.org/2000/svg">
<path d="M22.6185 12.438L25.4658 9.59068C28.6719 6.38464 32.8692 5.0548 37.3113 4.83749C39.0391 4.75297 39.903 4.71071 40.5957 5.40345C41.2885 6.09619 41.2462 6.96009 41.1617 8.68787C40.9444 13.13 39.6146 17.3273 36.4085 20.5334L33.5612 23.3807C31.2163 25.7256 30.5496 26.3923 31.0419 28.9358C31.5277 30.8787 31.9979 32.7601 30.5852 34.1729C28.8714 35.8866 27.3082 35.8866 25.5946 34.1729L11.8263 20.4046C10.1126 18.6909 10.1126 17.1277 11.8263 15.414C13.239 14.0013 15.1205 14.4715 17.0634 14.9573C19.6069 15.4496 20.2736 14.7829 22.6185 12.438Z" stroke="white" stroke-width="1.5" stroke-miterlimit="10" stroke-linecap="round" stroke-linejoin="round"/>
<path fill-rule="evenodd" clip-rule="evenodd" d="M32.5748 13.4165H32.592H32.5748Z" fill="white"/>
<path d="M32.5748 13.4165H32.592" stroke="white" stroke-width="4.5" stroke-linecap="round" stroke-linejoin="round"/>
<path d="M4.79102 41.2083L14.3743 31.625" stroke="#D5C79B" stroke-width="1.5" stroke-linecap="round" stroke-linejoin="round"/>
<path d="M16.291 41.2083L20.1243 37.375" stroke="#D5C79B" stroke-width="1.5" stroke-linecap="round" stroke-linejoin="round"/>
<path d="M4.79102 29.7083L8.62435 25.875" stroke="#D5C79B" stroke-width="1.5" stroke-linecap="round" stroke-linejoin="round"/>
</svg>
